{"glyphs":{"0":{"ha":818,"x_min":43,"x_max":771,"o":"m 43 446 q 148 788 43 651 q 417 924 253 924 q 673 797 575 924 q 771 464 771 669 q 671 113 771 246 q 407 -19 571 -19 q 144 111 244 -19 q 43 446 43 242 m 342 799 q 276 657 299 754 q 253 463 253 560 q 302 204 253 308 q 432 100 351 100 q 476 107 456 100 q 541 249 519 154 q 563 444 563 343 q 518 700 563 594 q 388 806 474 806 l 342 799 z "},"1":{"ha":608,"x_min":21,"x_max":600,"o":"m 600 72 l 594 0 l 50 0 l 42 46 q 232 115 119 85 l 232 721 l 67 651 l 21 732 l 343 931 l 433 871 l 433 99 l 600 72 z "},"2":{"ha":807,"x_min":53,"x_max":742,"o":"m 742 268 q 697 0 736 126 l 682 3 l 682 0 l 81 0 l 53 113 l 361 451 q 486 683 486 596 q 449 778 486 739 q 342 817 413 817 l 276 810 l 222 586 l 94 586 q 72 794 72 678 l 74 839 q 383 931 226 931 q 606 855 517 931 q 694 665 694 779 q 648 513 694 588 q 493 326 601 439 l 289 115 l 293 104 l 558 139 l 646 290 l 742 268 z "},"3":{"ha":793,"x_min":67,"x_max":728,"o":"m 514 483 q 665 400 603 471 q 728 240 728 329 q 630 49 728 125 q 376 -28 532 -28 q 67 43 214 -28 l 119 232 q 469 108 338 108 q 518 224 518 160 q 465 338 518 290 q 318 385 413 385 l 233 382 l 229 493 q 409 543 342 493 q 476 671 476 593 q 428 777 476 735 q 301 819 381 819 l 271 818 l 221 625 l 100 625 q 82 788 82 697 l 85 847 l 83 849 q 220 909 140 888 q 378 931 300 931 q 601 865 515 931 q 686 697 686 799 q 642 572 686 631 q 514 483 599 514 z "},"4":{"ha":831,"x_min":24,"x_max":796,"o":"m 636 226 l 636 89 l 743 72 l 738 0 l 288 0 l 279 46 q 440 108 344 79 l 440 226 l 67 226 l 24 339 l 481 931 l 582 911 l 582 908 l 636 911 l 636 358 l 792 363 l 796 265 l 754 226 l 636 226 m 440 354 l 440 594 l 451 713 l 210 349 l 440 354 z "},"5":{"ha":785,"x_min":54,"x_max":724,"o":"m 393 556 q 631 473 538 553 q 724 269 724 393 q 631 54 724 139 q 388 -31 538 -31 q 218 -5 308 -31 q 54 67 128 21 l 121 250 q 481 106 311 106 q 539 231 539 161 q 474 358 539 315 q 307 401 408 401 q 172 378 239 401 l 100 449 l 144 903 l 635 903 l 635 900 l 679 903 l 681 858 q 658 642 681 733 l 533 640 l 507 776 l 300 788 l 278 538 q 393 556 319 556 z "},"6":{"ha":783,"x_min":50,"x_max":743,"o":"m 296 468 q 499 550 388 550 q 672 472 601 550 q 743 279 743 393 q 653 59 743 146 q 422 -28 563 -28 q 155 83 260 -28 q 50 365 50 193 q 115 627 50 500 q 319 836 181 754 q 665 918 458 918 l 665 718 l 425 756 q 298 610 343 715 q 253 382 253 504 q 308 163 253 249 q 464 82 363 76 q 549 247 549 133 q 515 368 549 318 q 428 418 482 418 q 326 379 379 418 l 296 468 z "},"7":{"ha":685,"x_min":32,"x_max":686,"o":"m 686 781 q 310 -26 469 414 l 115 39 q 504 763 299 463 l 494 774 l 207 763 l 185 625 l 54 626 q 32 857 32 718 l 33 903 l 626 903 l 686 781 z "},"8":{"ha":761,"x_min":53,"x_max":708,"o":"m 525 488 q 660 376 611 436 q 708 232 708 315 q 617 44 708 118 q 379 -29 525 -29 q 144 41 236 -29 q 53 218 53 111 q 97 354 53 292 q 225 457 142 417 q 79 679 79 547 q 165 857 79 786 q 385 928 250 928 q 594 865 511 928 q 676 704 676 803 q 525 488 676 572 m 301 810 q 263 713 263 763 q 303 624 263 661 q 424 544 343 588 q 508 694 508 610 q 472 788 508 750 q 376 825 435 825 q 301 810 338 825 m 485 88 q 519 193 519 146 q 480 294 519 250 q 344 390 440 339 q 250 219 250 325 q 290 115 250 157 q 399 72 329 72 q 485 88 435 72 z "},"9":{"ha":760,"x_min":39,"x_max":721,"o":"m 469 351 q 335 325 400 325 q 124 412 208 325 q 39 625 39 499 q 131 844 39 758 q 365 931 224 931 q 623 816 525 931 q 721 518 721 701 q 644 234 721 358 q 436 45 567 110 q 150 -12 306 -19 l 118 194 l 369 147 q 488 294 450 194 q 525 514 525 394 q 484 727 525 640 q 360 814 443 814 l 324 810 q 265 742 286 790 q 244 639 244 694 q 290 506 244 560 q 406 453 335 453 l 454 460 l 469 351 z "},"\u0000":{"ha":417,"x_min":0,"x_max":0,"o":""},"\r":{"ha":597,"x_min":0,"x_max":0,"o":""}," ":{"ha":368,"x_min":0,"x_max":0,"o":""}," ":{"ha":368,"x_min":0,"x_max":0,"o":""}," ":{"ha":694,"x_min":0,"x_max":0,"o":""}," ":{"ha":1319,"x_min":0,"x_max":0,"o":""}," ":{"ha":139,"x_min":0,"x_max":0,"o":""},"!":{"ha":461,"x_min":107,"x_max":356,"o":"m 107 940 q 235 967 157 967 q 356 938 315 967 l 297 331 l 163 331 l 107 940 m 224 226 q 351 99 329 181 q 244 -28 324 13 q 111 79 151 -3 q 224 226 125 175 z "},"\"":{"ha":568,"x_min":24,"x_max":568,"o":"m 24 625 q 69 783 54 704 q 82 910 83 861 l 138 964 l 274 936 q 240 774 279 888 q 144 582 200 660 l 24 625 m 313 625 q 358 783 343 704 q 371 910 372 861 l 426 964 l 563 936 q 528 774 568 888 q 433 582 489 660 l 313 625 z "},"#":{"ha":864,"x_min":78,"x_max":786,"o":"m 647 464 l 618 279 l 746 279 l 746 178 l 603 178 l 574 -15 l 461 0 l 489 178 l 322 178 l 293 -15 l 181 0 l 208 178 l 78 178 l 78 279 l 224 279 l 251 464 l 118 464 l 118 565 l 267 565 l 293 736 l 406 724 l 382 565 l 547 565 l 574 736 l 686 724 l 663 565 l 786 565 l 786 464 l 647 464 m 532 464 l 367 464 l 338 279 l 504 279 l 532 464 z "},"$":{"ha":800,"x_min":72,"x_max":749,"o":"m 749 251 q 678 75 749 146 q 496 -19 607 4 l 496 -201 l 353 -201 l 353 -25 q 74 61 182 -10 l 72 100 q 94 319 72 215 l 194 319 l 263 125 q 463 85 350 85 q 539 201 539 121 q 449 325 539 275 l 240 431 q 75 668 75 525 q 152 845 75 774 q 353 936 229 917 l 353 1090 l 494 1090 l 494 939 q 707 892 608 926 q 683 638 707 744 l 572 638 l 532 793 q 339 832 451 835 q 275 719 275 792 q 312 644 275 678 q 462 558 349 610 q 628 470 575 507 q 715 380 682 433 q 749 251 749 326 z "},"%":{"ha":1150,"x_min":67,"x_max":1083,"o":"m 67 603 q 129 765 67 696 q 279 833 192 833 q 431 764 368 833 q 493 599 493 694 q 433 441 493 506 q 286 376 374 376 q 132 442 197 376 q 67 603 67 508 m 833 826 l 922 754 l 293 -40 l 203 33 l 833 826 m 317 486 q 364 600 364 522 q 339 686 364 650 q 269 722 314 722 q 235 717 251 722 q 193 606 193 672 q 219 519 193 554 q 294 485 246 485 l 317 486 m 657 199 q 719 360 657 292 q 869 429 782 429 q 1021 360 958 429 q 1083 194 1083 290 q 1024 37 1083 101 q 876 -28 964 -28 q 722 38 788 -28 q 657 199 657 104 m 907 81 q 954 196 954 119 q 929 281 954 246 q 858 317 904 317 l 825 313 q 783 200 783 268 q 810 114 783 149 q 886 79 836 79 l 907 81 z "},"&":{"ha":957,"x_min":22,"x_max":1001,"o":"m 951 439 q 778 504 850 501 q 826 310 826 411 q 717 59 826 156 q 431 -37 608 -37 q 138 52 253 -37 q 22 278 22 142 q 64 417 22 358 q 174 507 106 476 q 51 692 51 569 q 140 860 51 793 q 371 928 229 928 q 650 869 514 928 l 588 703 l 329 803 q 265 747 289 785 q 240 664 240 708 q 289 550 240 597 l 435 503 l 415 411 q 268 365 322 413 q 214 246 214 318 q 276 124 214 168 q 426 81 338 81 q 567 111 506 81 q 654 297 654 174 q 611 458 654 383 l 526 408 l 478 496 q 860 650 735 650 q 1001 596 939 650 l 951 439 z "},"'":{"ha":251,"x_min":-35,"x_max":203,"o":"m -35 706 q 11 985 18 840 l 67 1039 l 203 1017 q 168 836 201 935 q 85 663 135 738 l -35 706 z "},"(":{"ha":460,"x_min":39,"x_max":415,"o":"m 289 -215 q 39 417 39 94 q 299 1017 39 733 l 415 953 q 244 424 244 686 q 408 -150 244 157 l 289 -215 z "},")":{"ha":458,"x_min":43,"x_max":419,"o":"m 50 -150 q 214 424 214 157 q 43 953 214 686 l 160 1017 q 419 417 419 733 q 169 -215 419 94 l 50 -150 z "},"*":{"ha":558,"x_min":6,"x_max":489,"o":"m 236 872 l 190 821 l 71 943 l 156 1067 l 236 872 m 296 861 l 232 890 l 314 1042 l 457 996 l 296 861 m 311 801 l 318 869 l 488 840 l 489 692 l 311 801 m 214 818 l 250 758 l 93 682 l 6 806 l 214 818 m 258 772 l 326 786 l 350 615 l 207 568 l 258 772 z "},"+":{"ha":792,"x_min":78,"x_max":714,"o":"m 714 285 l 464 285 l 464 22 l 329 22 l 329 285 l 78 285 l 78 407 l 329 407 l 329 669 l 464 669 l 464 407 l 714 407 l 714 285 z "},",":{"ha":399,"x_min":64,"x_max":319,"o":"m 64 -135 q 160 19 154 -60 l 86 79 q 196 224 100 172 q 319 67 319 178 q 262 -83 319 -7 q 117 -199 204 -158 l 64 -135 z "},"-":{"ha":593,"x_min":44,"x_max":533,"o":"m 44 428 l 68 475 l 467 475 l 533 369 l 510 321 l 111 321 l 44 428 z "},".":{"ha":361,"x_min":126,"x_max":361,"o":"m 260 -54 q 188 -10 228 -42 q 126 49 147 21 q 233 179 175 146 q 361 76 304 153 q 260 -54 329 -7 z "},"/":{"ha":578,"x_min":28,"x_max":579,"o":"m 456 1004 l 579 950 l 154 -169 l 28 -118 l 456 1004 z "},":":{"ha":488,"x_min":114,"x_max":354,"o":"m 354 528 q 247 400 328 443 q 114 507 153 428 q 226 654 128 603 q 354 528 332 608 m 354 99 q 247 -28 326 13 q 114 79 154 -3 q 226 226 128 175 q 354 99 332 181 z "},";":{"ha":403,"x_min":64,"x_max":324,"o":"m 324 528 q 217 400 297 443 q 83 507 122 428 q 196 654 97 603 q 324 528 301 608 m 64 -135 q 160 19 154 -60 l 86 79 q 196 224 100 172 q 319 67 319 178 q 262 -83 319 -7 q 117 -199 204 -158 l 64 -135 z "},"<":{"ha":800,"x_min":94,"x_max":703,"o":"m 701 589 l 274 339 l 275 331 l 703 104 l 642 -8 l 101 281 l 94 378 l 642 694 l 701 589 z "},"=":{"ha":811,"x_min":78,"x_max":733,"o":"m 733 422 l 78 422 l 78 535 l 733 535 l 733 422 m 733 167 l 78 167 l 78 279 l 733 279 l 733 167 z "},">":{"ha":800,"x_min":97,"x_max":706,"o":"m 158 694 l 706 378 l 699 281 l 158 -8 l 97 104 l 525 331 l 526 339 l 99 589 l 158 694 z "},"?":{"ha":864,"x_min":125,"x_max":725,"o":"m 414 976 q 637 901 549 976 q 725 708 725 825 q 651 544 725 613 l 549 457 q 482 338 489 401 l 310 338 q 378 513 310 438 l 482 617 q 525 721 525 665 q 450 846 525 808 q 332 822 392 846 l 275 639 l 156 639 l 143 711 q 129 871 125 836 l 129 872 q 414 976 258 976 m 410 226 q 538 99 515 181 q 431 -28 510 13 q 297 79 338 -3 q 410 226 311 175 z "},"@":{"ha":1482,"x_min":93,"x_max":1401,"o":"m 761 985 q 1113 905 968 985 q 1330 699 1258 825 q 1401 432 1401 572 q 1297 128 1401 254 q 1021 -22 1192 3 q 840 76 892 -28 l 689 -18 l 646 -21 q 501 31 558 -21 q 444 153 444 82 q 553 313 444 254 l 819 318 l 819 438 q 753 579 819 544 q 649 561 689 576 l 624 411 l 507 407 q 476 575 476 496 l 478 603 q 661 662 556 636 q 822 688 767 688 q 926 658 874 688 q 1004 589 978 629 q 1021 483 1019 561 l 1021 156 q 1049 114 1021 114 q 1118 156 1079 114 q 1181 271 1157 197 q 1204 425 1204 344 q 1085 725 1204 611 q 769 839 965 839 q 426 710 558 839 q 293 382 293 582 q 419 17 293 188 l 307 -54 q 147 170 201 49 q 93 414 93 292 q 173 697 93 567 q 404 906 253 828 q 761 985 556 985 m 675 103 q 819 136 728 104 l 819 238 q 646 164 646 247 q 675 103 646 126 z "},"A":{"ha":999,"x_min":-28,"x_max":1008,"o":"m 1008 71 l 1007 0 l 569 0 l 561 44 q 682 103 600 68 l 624 253 l 293 253 l 232 89 l 360 71 l 358 0 l -19 0 l -28 44 q 88 100 14 71 l 394 854 l 378 897 l 560 947 l 910 85 l 1008 71 m 583 358 l 458 686 l 333 358 l 583 358 z "},"B":{"ha":928,"x_min":36,"x_max":885,"o":"m 664 485 q 827 401 769 465 q 885 253 885 338 q 788 72 885 140 q 525 0 692 4 l 44 0 l 36 44 q 154 101 76 71 l 154 831 l 56 843 l 57 914 q 490 925 260 925 q 744 860 649 925 q 840 690 840 794 q 795 561 840 621 q 664 485 750 501 m 365 796 l 365 522 l 429 522 q 577 565 528 522 q 626 668 626 607 q 595 762 626 718 q 517 817 564 806 l 365 796 m 476 107 l 500 106 q 619 150 578 106 q 661 256 661 194 q 610 378 661 326 q 483 431 560 429 l 365 431 l 365 118 l 476 107 z "},"C":{"ha":808,"x_min":15,"x_max":792,"o":"m 792 100 l 507 -22 q 226 39 336 -28 q 65 213 115 106 q 15 446 15 321 q 68 688 15 574 q 226 872 121 801 q 482 942 332 942 q 768 854 643 942 q 763 735 771 810 q 738 604 754 660 l 610 604 l 576 778 q 367 819 481 819 q 265 675 299 768 q 231 479 231 582 q 311 217 231 314 q 529 124 392 119 l 758 199 l 792 100 z "},"D":{"ha":981,"x_min":36,"x_max":961,"o":"m 503 925 q 749 858 646 925 q 907 686 853 792 q 961 464 961 581 q 835 133 961 261 q 501 0 710 6 l 44 0 l 36 44 q 154 101 76 71 l 154 831 l 56 843 l 57 914 q 503 925 257 925 m 471 115 q 665 211 590 115 q 739 456 739 307 q 691 671 739 571 q 567 817 643 771 l 365 796 l 365 132 q 471 115 422 115 z "},"E":{"ha":857,"x_min":36,"x_max":790,"o":"m 788 276 q 771 0 790 140 l 44 0 l 36 44 q 154 101 76 71 l 154 831 l 51 843 l 53 914 l 778 914 q 756 650 785 800 l 639 650 l 615 788 l 365 806 l 365 507 l 664 531 l 664 390 l 365 403 l 365 115 l 625 133 l 671 285 l 788 276 z "},"F":{"ha":832,"x_min":38,"x_max":781,"o":"m 361 806 l 361 481 l 671 503 l 671 357 l 361 371 l 361 94 l 528 71 l 526 0 l 46 0 l 38 44 q 150 100 81 71 l 150 831 l 47 843 l 49 914 l 774 914 q 751 644 781 793 l 635 644 l 611 788 l 361 806 z "},"G":{"ha":965,"x_min":15,"x_max":935,"o":"m 829 332 l 829 96 l 533 -28 l 492 -29 q 222 40 329 -29 q 65 215 114 108 q 15 439 15 322 q 74 686 15 571 q 248 872 133 801 q 522 942 363 942 q 818 857 699 942 l 819 829 q 789 621 819 731 l 663 621 l 629 776 q 408 821 524 821 l 375 819 q 267 674 303 768 q 231 467 231 579 q 309 210 231 311 q 514 108 388 110 q 635 119 560 107 l 635 311 q 496 374 561 338 l 504 421 l 933 421 l 935 354 l 829 332 z "},"H":{"ha":1115,"x_min":36,"x_max":1079,"o":"m 1079 71 l 1078 0 l 629 0 l 621 44 q 739 101 661 71 l 739 394 l 365 394 l 365 89 l 493 71 l 492 0 l 44 0 l 36 44 q 154 101 76 71 l 154 828 l 47 843 l 49 914 l 474 914 l 482 869 q 365 813 431 839 l 365 514 l 739 514 l 739 828 l 632 843 l 633 914 l 1060 914 l 1068 869 q 950 813 1024 842 l 950 89 l 1079 71 z "},"I":{"ha":531,"x_min":36,"x_max":493,"o":"m 493 71 l 492 0 l 44 0 l 36 44 q 154 101 76 71 l 154 828 l 47 843 l 49 914 l 474 914 l 482 869 q 365 813 431 839 l 365 89 l 493 71 z "},"J":{"ha":536,"x_min":-25,"x_max":503,"o":"m 503 869 q 383 811 465 846 l 383 179 q 290 -90 383 10 q 24 -258 196 -190 l -25 -182 q 131 -26 89 -110 q 174 185 172 58 l 174 825 l 50 843 l 51 914 l 494 914 l 503 869 z "},"K":{"ha":999,"x_min":36,"x_max":986,"o":"m 986 72 l 985 0 l 706 0 l 422 397 l 365 338 l 365 88 l 482 71 l 481 0 l 44 0 l 36 44 q 154 101 76 71 l 154 828 l 46 843 l 47 914 l 474 914 l 482 869 q 365 813 431 839 l 365 501 l 672 829 l 581 843 l 582 914 l 926 914 l 935 869 q 819 818 906 850 l 560 543 l 900 86 l 986 72 z "},"L":{"ha":828,"x_min":36,"x_max":818,"o":"m 818 269 q 800 0 818 103 l 44 0 l 36 44 q 154 101 76 71 l 154 828 l 47 843 l 49 914 l 474 914 l 482 869 q 365 813 431 839 l 365 117 l 643 139 l 697 331 l 818 319 l 818 269 z "},"M":{"ha":1325,"x_min":35,"x_max":1289,"o":"m 1289 65 l 1288 0 l 846 0 l 838 44 q 956 101 878 71 l 951 475 l 971 713 l 714 22 l 554 -10 l 296 706 l 318 475 l 311 89 l 428 65 l 426 0 l 43 0 l 35 44 q 158 104 81 72 l 178 814 l 64 838 l 65 903 l 432 903 l 431 901 l 676 217 l 928 903 l 1251 903 l 1260 858 q 1146 803 1215 831 l 1158 92 l 1289 65 z "},"N":{"ha":1075,"x_min":36,"x_max":1038,"o":"m 1038 869 q 925 814 994 843 l 919 0 l 724 -18 l 285 656 l 306 485 l 306 89 l 428 71 l 426 0 l 44 0 l 36 44 q 154 101 76 71 l 154 828 l 57 843 l 58 914 l 367 914 l 365 913 l 794 242 l 774 418 l 774 824 l 639 843 l 640 914 l 1029 914 l 1038 869 z "},"O":{"ha":938,"x_min":19,"x_max":918,"o":"m 464 942 q 790 803 663 942 q 918 444 918 665 q 794 102 918 232 q 475 -28 669 -28 q 147 104 275 -28 q 19 451 19 236 q 145 805 19 668 q 464 942 271 942 m 344 800 q 270 674 299 761 q 242 476 242 586 q 308 201 242 308 q 499 94 375 94 q 578 107 531 94 q 663 239 631 149 q 694 440 694 329 q 626 714 694 608 q 446 819 558 819 q 344 800 399 819 z "},"P":{"ha":878,"x_min":38,"x_max":857,"o":"m 361 329 l 361 94 l 528 71 l 526 0 l 46 0 l 38 44 q 150 100 81 71 l 150 831 l 47 843 l 49 914 l 497 925 q 758 840 658 925 q 857 624 857 754 q 763 417 857 500 q 519 331 668 333 l 361 329 m 361 796 l 361 453 q 468 442 417 442 q 596 495 553 442 q 639 626 639 549 q 617 740 639 686 q 554 817 594 794 l 361 796 z "},"Q":{"ha":990,"x_min":19,"x_max":1032,"o":"m 939 -253 l 526 -25 l 475 -28 q 147 104 275 -28 q 19 451 19 236 q 145 805 19 668 q 464 942 271 942 q 790 803 663 942 q 918 444 918 665 q 855 183 918 290 q 685 21 792 75 l 1032 -67 l 939 -253 m 242 476 q 308 201 242 308 q 499 94 375 94 q 578 107 531 94 q 663 239 631 149 q 694 440 694 329 q 626 714 694 608 q 446 819 558 819 q 344 800 399 819 q 270 674 299 761 q 242 476 242 586 z "},"R":{"ha":961,"x_min":36,"x_max":949,"o":"m 949 71 l 947 0 l 669 0 l 481 354 l 365 353 l 365 89 l 490 71 l 489 0 l 44 0 l 36 44 q 154 101 76 71 l 154 831 l 51 843 l 53 914 l 496 925 q 758 844 656 925 q 860 643 860 764 q 810 491 860 561 q 674 385 760 421 l 860 82 l 949 71 m 365 469 q 456 460 413 460 q 598 510 554 460 q 642 639 642 560 q 558 817 642 761 l 365 796 l 365 469 z "},"S":{"ha":803,"x_min":72,"x_max":749,"o":"m 749 251 q 651 50 749 128 q 404 -28 553 -28 q 229 -3 324 -28 q 74 61 135 21 l 72 100 q 94 319 72 215 l 194 319 l 263 125 q 463 85 350 85 q 539 201 539 121 q 449 325 539 275 l 240 431 q 75 668 75 525 q 175 865 75 789 q 432 942 275 942 q 707 892 571 942 q 683 638 707 744 l 572 638 l 532 793 q 339 832 451 835 q 275 719 275 792 q 312 644 275 678 q 462 558 349 610 q 628 470 575 507 q 715 380 682 433 q 749 251 749 326 z "},"T":{"ha":896,"x_min":11,"x_max":885,"o":"m 883 922 l 885 882 q 861 629 885 739 l 750 629 l 729 804 l 554 818 l 554 92 l 696 71 l 694 0 l 210 0 l 201 44 q 343 107 232 64 l 343 818 l 167 804 l 146 629 l 35 629 q 11 882 11 739 l 13 922 l 450 917 l 883 922 z "},"U":{"ha":1024,"x_min":11,"x_max":1011,"o":"m 1011 869 q 894 813 960 839 l 894 397 q 797 74 893 175 q 533 -26 700 -26 q 232 87 343 -26 q 118 399 121 200 l 118 828 l 11 843 l 13 914 l 438 914 l 446 869 q 329 813 394 839 l 329 368 q 389 168 329 236 q 553 100 449 100 q 674 133 621 100 q 744 383 742 197 l 744 826 l 626 843 l 628 914 l 1003 914 l 1011 869 z "},"V":{"ha":985,"x_min":-3,"x_max":988,"o":"m 988 869 q 879 817 940 840 l 594 0 q 399 -19 510 -15 l 101 828 l -3 843 l -1 914 l 429 914 l 438 869 q 322 813 383 838 l 482 322 l 499 142 l 508 142 l 739 825 l 615 843 l 617 914 l 979 914 l 988 869 z "},"W":{"ha":1367,"x_min":3,"x_max":1369,"o":"m 1369 869 l 1264 817 l 1031 -1 q 833 -19 947 -17 l 685 469 l 654 308 l 558 -1 q 363 -19 475 -17 l 101 829 l 3 843 l 4 914 l 426 914 l 435 869 q 321 814 394 844 l 453 326 l 464 142 l 471 142 l 624 671 l 567 860 l 768 906 l 919 339 l 935 142 l 938 142 l 1124 824 l 989 843 l 990 914 l 1361 914 l 1369 869 z "},"X":{"ha":971,"x_min":3,"x_max":978,"o":"m 978 71 l 976 0 l 560 0 l 551 44 l 636 88 l 453 358 l 276 88 l 392 71 l 390 0 l 11 0 l 3 44 l 118 101 l 376 472 l 136 829 l 44 843 l 46 914 l 438 914 l 446 869 l 372 831 l 535 592 l 679 828 l 575 843 l 576 914 l 925 914 l 933 869 q 822 815 885 839 l 606 486 l 879 83 l 978 71 z "},"Y":{"ha":899,"x_min":-3,"x_max":904,"o":"m 551 88 l 667 71 l 665 0 l 242 0 l 233 44 q 346 100 276 71 l 346 343 l 85 831 l -3 843 l -1 914 l 369 914 l 378 869 l 300 829 l 431 583 l 468 465 l 476 465 l 658 828 l 556 843 l 557 914 l 896 914 l 904 869 q 794 815 868 847 l 551 365 l 551 88 z "},"Z":{"ha":878,"x_min":46,"x_max":828,"o":"m 828 292 q 792 0 821 169 l 100 -1 l 101 0 l 46 94 l 569 808 l 260 789 l 217 614 l 100 614 q 85 814 85 696 l 89 914 l 772 914 l 818 821 l 306 122 l 639 131 l 703 310 l 828 292 z "},"[":{"ha":546,"x_min":126,"x_max":504,"o":"m 504 906 l 324 864 l 324 -44 l 504 -86 l 496 -169 l 126 -169 l 126 989 l 496 989 l 504 906 z "},"\\":{"ha":560,"x_min":-25,"x_max":550,"o":"m -25 946 l 122 1004 l 550 -119 l 400 -175 l -25 946 z "},"]":{"ha":549,"x_min":42,"x_max":419,"o":"m 419 989 l 419 -169 l 50 -169 l 42 -86 l 222 -44 l 222 864 l 42 906 l 50 989 l 419 989 z "},"^":{"ha":710,"x_min":33,"x_max":685,"o":"m 410 901 l 685 518 l 588 453 l 361 775 l 351 775 l 135 447 l 33 513 l 297 901 l 410 901 z "},"_":{"ha":739,"x_min":14,"x_max":725,"o":"m 725 -296 l 14 -296 l 14 -183 l 725 -183 l 725 -296 z "},"`":{"ha":408,"x_min":36,"x_max":378,"o":"m 274 740 q 36 956 108 899 l 169 1071 l 378 824 l 274 740 z "},"a":{"ha":756,"x_min":51,"x_max":743,"o":"m 743 67 l 574 -22 q 504 8 540 -21 q 447 78 468 36 l 296 -18 l 253 -21 q 108 31 165 -21 q 51 154 51 82 q 160 313 51 254 l 425 319 l 425 443 q 360 585 425 554 q 256 567 296 581 l 231 417 l 114 413 q 83 581 83 489 l 85 608 q 268 667 161 642 q 431 693 375 693 q 531 665 482 693 q 611 593 581 638 q 628 488 626 567 l 628 154 q 663 121 628 121 l 731 129 l 743 67 m 282 103 q 425 138 338 104 l 425 238 l 390 239 q 253 164 253 239 q 282 103 253 126 z "},"b":{"ha":771,"x_min":-31,"x_max":744,"o":"m 438 678 l 488 682 q 672 590 600 682 q 744 358 744 497 q 636 82 744 190 q 356 -26 528 -26 q 82 31 229 -26 l 82 896 l -21 907 l -31 974 q 217 1022 85 1018 l 217 1021 l 283 960 l 283 571 l 438 678 m 439 93 q 509 190 483 128 q 535 321 535 253 q 494 470 535 408 q 386 532 453 532 q 283 500 343 532 l 283 114 q 396 90 333 90 l 439 93 z "},"c":{"ha":621,"x_min":19,"x_max":614,"o":"m 403 -19 l 360 -22 q 116 76 213 -22 q 19 329 19 175 q 116 588 19 488 q 360 689 213 689 q 513 650 444 689 q 614 539 582 611 l 463 435 q 290 575 381 546 q 217 364 217 496 q 270 185 217 254 q 421 117 324 117 q 571 154 492 117 l 600 85 l 403 -19 z "},"d":{"ha":799,"x_min":19,"x_max":790,"o":"m 790 67 l 619 -22 q 547 12 585 -21 q 489 90 508 44 l 332 -22 q 108 76 197 -24 q 19 325 19 175 q 122 585 19 482 q 383 688 225 688 q 472 676 428 688 l 472 896 l 368 907 l 358 974 q 606 1022 478 1019 l 674 960 l 674 158 q 708 121 674 121 l 778 129 l 790 67 m 231 346 q 272 194 231 254 q 385 133 313 133 q 472 154 422 133 l 472 539 q 340 572 406 572 l 315 571 q 231 346 231 492 z "},"e":{"ha":672,"x_min":19,"x_max":647,"o":"m 567 331 l 213 335 q 276 175 218 232 q 425 118 335 118 q 603 168 500 118 l 632 94 l 414 -18 l 369 -21 q 118 76 217 -21 q 19 321 19 172 q 119 583 19 476 q 363 689 219 689 q 567 612 488 689 q 647 411 647 535 l 567 331 m 314 583 q 221 431 242 542 l 461 443 q 410 543 451 503 q 314 583 369 583 z "},"f":{"ha":508,"x_min":13,"x_max":569,"o":"m 317 514 l 317 114 q 443 68 393 94 l 438 0 l 25 0 l 21 47 q 114 89 54 67 l 114 517 l 18 515 l 13 588 q 114 639 63 618 l 114 760 q 192 962 115 881 q 379 1043 269 1043 q 569 975 482 1043 l 460 799 q 251 901 369 886 l 318 654 l 471 654 l 474 596 l 404 514 l 317 514 z "},"g":{"ha":790,"x_min":28,"x_max":772,"o":"m 772 592 l 742 593 q 640 575 686 593 q 679 454 679 521 q 588 282 679 349 q 363 215 497 215 l 315 218 l 243 156 q 486 130 353 154 q 721 72 619 106 q 735 -10 735 32 q 610 -239 735 -142 q 317 -336 485 -336 q 115 -284 200 -336 q 28 -128 31 -232 l 181 10 l 93 15 l 65 104 q 221 238 138 183 q 96 323 142 265 q 50 453 50 381 q 141 626 50 557 q 367 696 232 696 q 560 647 479 696 q 738 771 607 760 l 772 592 m 428 315 q 481 442 481 354 q 443 551 481 504 q 347 599 406 599 q 286 585 318 599 q 247 458 247 546 q 281 349 247 392 q 372 306 314 306 q 428 315 394 306 m 344 -181 q 492 -153 419 -181 q 597 -75 564 -125 q 264 1 472 -22 q 189 -100 189 -56 q 233 -159 189 -137 q 344 -181 276 -181 z "},"h":{"ha":864,"x_min":13,"x_max":847,"o":"m 747 108 q 847 68 803 93 l 842 0 l 474 0 l 469 47 l 546 82 l 546 401 q 456 538 546 538 q 328 490 410 538 l 328 106 q 413 68 376 90 l 407 0 l 28 0 l 24 47 q 126 92 63 69 l 126 896 l 22 907 l 13 974 q 260 1022 132 1019 l 328 961 l 328 557 q 560 682 465 658 q 679 639 624 678 q 743 539 735 600 l 747 460 l 747 108 z "},"i":{"ha":451,"x_min":13,"x_max":429,"o":"m 238 775 q 92 888 150 814 q 211 1035 138 979 q 351 913 294 990 q 238 775 313 829 m 328 110 q 429 68 393 89 l 424 0 l 25 0 l 21 47 q 126 93 63 71 l 126 558 l 22 571 l 13 638 q 260 686 132 683 l 328 625 l 328 110 z "},"j":{"ha":429,"x_min":-10,"x_max":356,"o":"m 242 775 q 96 888 149 817 q 215 1033 143 981 q 356 911 299 989 q 242 775 315 825 m 264 685 l 332 625 l 332 -69 q 244 -217 332 -154 q 11 -300 157 -281 l -10 -240 q 97 -173 64 -215 q 131 -56 131 -131 l 131 558 l 26 571 l 17 638 q 264 686 132 682 l 264 685 z "},"k":{"ha":847,"x_min":13,"x_max":814,"o":"m 814 29 l 589 -12 q 510 74 556 4 l 389 269 l 328 265 l 328 103 q 404 68 375 86 l 399 0 l 28 0 l 24 47 q 126 92 63 69 l 126 896 l 22 907 l 13 974 q 260 1022 132 1019 l 328 961 l 328 338 l 379 371 l 535 565 l 438 571 l 428 638 q 701 686 549 679 l 757 600 l 549 349 l 685 150 q 776 103 721 103 l 801 104 l 814 29 z "},"l":{"ha":464,"x_min":13,"x_max":429,"o":"m 328 110 q 429 68 393 89 l 424 0 l 25 0 l 21 47 q 126 93 63 71 l 126 896 l 22 907 l 13 974 q 260 1022 132 1019 l 328 961 l 328 110 z "},"m":{"ha":1271,"x_min":13,"x_max":1253,"o":"m 1156 108 q 1253 68 1224 88 l 1247 0 l 881 0 l 876 47 l 954 83 l 954 401 q 864 538 954 538 q 740 493 819 538 l 742 107 q 829 68 797 88 l 824 0 l 468 0 l 464 47 l 540 82 l 540 401 q 450 538 540 538 q 328 494 408 538 l 328 106 q 413 68 376 90 l 407 0 l 29 0 l 25 47 q 126 92 63 68 l 126 558 l 22 571 l 13 638 q 260 686 132 683 l 328 619 l 328 561 q 554 682 463 660 q 648 654 599 679 q 724 585 697 629 q 733 556 732 568 q 968 682 874 658 q 1088 639 1032 678 q 1151 539 1143 600 l 1156 460 l 1156 108 z "},"n":{"ha":865,"x_min":13,"x_max":849,"o":"m 750 108 q 849 68 818 88 l 843 0 l 476 0 l 472 47 l 549 82 l 549 401 q 458 538 549 538 q 328 489 415 538 l 328 106 q 413 68 376 90 l 407 0 l 29 0 l 25 47 q 126 92 63 68 l 126 558 l 22 571 l 13 638 q 260 686 132 683 l 328 619 l 328 556 q 563 682 468 658 q 682 639 626 678 q 746 539 738 600 l 750 460 l 750 108 z "},"o":{"ha":715,"x_min":19,"x_max":689,"o":"m 19 335 q 19 413 19 335 q 116 590 19 492 q 357 689 213 689 q 595 588 501 689 q 689 328 689 488 q 597 69 689 167 q 361 -28 504 -28 q 117 75 215 -28 q 19 335 19 178 m 418 93 q 483 311 483 139 q 449 498 483 425 q 346 571 415 571 q 275 551 304 571 q 225 338 225 485 q 261 156 225 226 q 371 86 297 86 q 418 93 396 86 z "},"p":{"ha":813,"x_min":13,"x_max":782,"o":"m 426 -14 q 326 -4 388 -14 l 326 -167 q 453 -214 411 -193 l 447 -282 l 38 -282 l 33 -233 l 125 -199 l 125 558 l 22 571 l 13 638 q 260 686 128 682 l 260 685 l 326 625 l 326 572 l 475 678 l 525 682 q 710 590 638 682 q 782 358 782 497 q 683 91 782 196 q 426 -14 583 -14 m 425 532 q 326 501 385 532 l 326 114 q 443 94 378 94 l 478 96 q 544 191 519 129 q 568 321 568 253 q 529 469 568 407 q 425 532 490 532 z "},"q":{"ha":790,"x_min":19,"x_max":753,"o":"m 672 -178 q 750 -214 713 -192 l 744 -282 l 338 -282 l 333 -233 q 471 -179 392 -203 l 471 82 l 333 -18 q 108 81 197 -19 q 19 326 19 181 q 128 587 19 483 q 396 690 236 690 q 611 640 496 690 l 729 657 l 753 590 l 672 528 l 672 -178 m 385 136 q 471 157 424 136 l 471 543 q 342 575 407 575 l 315 574 q 231 350 231 494 q 272 197 231 258 q 385 136 314 136 z "},"r":{"ha":656,"x_min":13,"x_max":653,"o":"m 467 667 q 536 679 500 679 q 653 638 608 679 q 601 375 646 485 l 496 375 l 468 531 q 328 396 392 474 l 328 115 q 478 68 425 96 l 472 0 l 28 0 l 24 47 q 126 92 63 69 l 126 558 l 22 571 l 13 638 q 260 686 132 683 l 328 625 l 328 511 l 467 667 z "},"s":{"ha":619,"x_min":28,"x_max":572,"o":"m 232 524 q 253 472 232 494 q 385 397 275 450 q 533 294 494 343 q 572 183 572 246 q 498 31 572 90 q 303 -28 424 -28 q 28 46 167 -28 l 97 208 q 356 79 225 114 q 385 142 385 104 q 360 197 385 174 q 229 272 335 221 q 87 370 124 324 q 50 478 50 417 q 132 631 50 572 q 342 689 214 689 q 544 644 461 689 l 546 606 q 522 456 546 525 l 415 456 l 382 578 q 285 589 329 592 q 232 524 232 571 z "},"t":{"ha":531,"x_min":11,"x_max":504,"o":"m 365 135 q 482 153 404 135 l 497 85 l 283 -22 q 169 18 224 -25 q 114 115 115 61 l 114 517 l 17 515 l 11 588 q 124 654 64 625 l 193 835 l 288 835 l 311 654 l 501 654 l 504 594 l 436 514 l 315 514 l 315 199 q 326 149 315 163 q 365 135 338 135 z "},"u":{"ha":850,"x_min":0,"x_max":842,"o":"m 842 67 l 671 -22 q 597 13 636 -21 q 540 93 558 47 q 303 -22 417 7 q 212 7 260 -19 q 135 76 164 33 q 114 206 115 106 l 114 558 l 10 571 l 0 638 q 247 686 119 683 l 315 625 l 315 244 q 404 124 315 124 q 524 158 454 124 l 524 560 l 436 574 l 426 640 q 657 686 529 681 l 725 625 l 725 158 q 760 121 725 121 l 829 129 l 842 67 z "},"v":{"ha":740,"x_min":-31,"x_max":750,"o":"m 750 599 l 678 563 q 458 4 532 179 q 339 -11 410 -11 q 253 -4 292 -11 l 54 550 l -31 588 l -31 660 l 331 660 l 335 599 l 267 564 l 351 296 l 371 175 l 396 175 q 483 561 438 343 l 413 588 l 414 660 l 746 660 l 750 599 z "},"w":{"ha":1067,"x_min":-31,"x_max":1078,"o":"m 1078 599 q 1007 563 1053 582 l 824 7 q 693 -11 771 -11 q 618 -4 653 -11 l 536 231 l 440 7 q 313 -10 396 -10 l 235 -4 l 47 553 l -31 588 l -31 660 l 325 660 l 329 599 l 256 561 l 340 294 l 374 153 l 385 153 l 474 404 l 393 635 l 588 654 l 710 294 l 736 153 l 747 153 l 814 558 l 735 588 l 736 660 l 1074 660 l 1078 599 z "},"x":{"ha":790,"x_min":-1,"x_max":782,"o":"m 668 115 q 782 68 731 99 l 776 0 l 426 0 l 422 47 l 479 75 l 356 239 l 286 101 l 357 68 l 351 0 l 3 0 l -1 47 q 81 85 29 65 l 285 332 l 122 546 l 28 588 l 29 660 l 363 660 l 367 599 l 329 578 l 428 443 l 490 571 l 435 588 l 436 660 l 749 660 l 753 599 l 671 560 l 494 351 l 668 115 z "},"y":{"ha":751,"x_min":-31,"x_max":763,"o":"m 763 599 q 685 563 725 576 q 540 103 601 267 q 397 -131 485 -31 q 172 -308 310 -231 l 65 -126 q 347 7 249 -75 q 243 53 290 21 l 64 547 l -31 588 l -31 660 l 339 660 l 343 599 l 271 563 l 350 297 l 367 176 l 392 176 q 481 560 451 367 l 408 588 l 410 660 l 758 660 l 763 599 z "},"z":{"ha":707,"x_min":26,"x_max":681,"o":"m 597 240 l 674 226 q 631 -21 668 100 l 169 29 l 103 -24 l 26 40 l 418 574 l 218 551 l 175 411 l 67 411 q 53 569 53 485 l 58 660 l 568 660 l 614 690 l 681 626 l 307 122 l 551 142 l 597 240 z "},"{":{"ha":683,"x_min":90,"x_max":567,"o":"m 549 -201 q 308 -124 406 -192 q 211 38 211 -56 l 211 221 q 183 338 210 310 q 90 372 157 367 l 99 454 q 186 492 161 460 q 211 611 211 524 l 211 756 q 305 931 211 864 q 558 1013 399 999 l 567 878 l 415 878 l 426 624 q 351 422 433 517 l 351 410 q 426 207 432 314 l 415 -50 l 563 -67 l 549 -201 z "},"|":{"ha":435,"x_min":139,"x_max":294,"o":"m 139 1021 l 293 1021 l 294 -312 l 139 -312 l 139 1021 z "},"}":{"ha":689,"x_min":118,"x_max":594,"o":"m 122 -67 l 269 -50 l 258 207 q 333 410 253 314 l 333 422 q 258 624 251 517 l 269 878 l 118 878 l 126 1013 q 378 932 285 1000 q 474 764 472 864 l 474 610 q 499 491 474 522 q 586 454 525 460 l 594 372 q 501 338 528 367 q 474 221 475 310 l 474 38 q 376 -124 474 -56 q 136 -201 279 -192 l 122 -67 z "},"~":{"ha":838,"x_min":107,"x_max":739,"o":"m 107 315 q 209 455 171 413 q 283 497 247 497 q 372 471 314 497 q 565 375 431 444 l 685 474 l 739 426 q 637 279 672 321 q 567 238 601 238 q 419 294 528 238 q 283 350 310 350 q 172 265 251 350 l 107 315 z "},"¡":{"ha":461,"x_min":107,"x_max":356,"o":"m 107 -265 q 235 -292 157 -292 q 356 -262 315 -292 l 297 344 l 163 344 l 107 -265 m 224 449 q 351 576 329 494 q 244 703 324 663 q 111 596 151 678 q 224 449 125 500 z "},"¢":{"ha":632,"x_min":19,"x_max":614,"o":"m 600 110 l 417 19 l 417 -161 l 297 -161 l 297 15 q 97 122 174 35 q 19 338 19 210 q 96 557 19 467 q 297 667 172 647 l 297 835 l 417 835 l 417 668 q 614 532 561 644 l 463 435 q 290 565 382 538 q 217 369 217 489 q 271 203 217 267 q 421 139 325 139 q 571 174 489 139 l 600 110 z "},"£":{"ha":783,"x_min":19,"x_max":732,"o":"m 725 286 q 732 131 732 235 q 726 0 732 40 l 28 0 l 19 44 q 131 99 58 68 q 183 299 183 200 l 179 351 l 42 351 l 33 397 l 93 450 l 157 450 l 138 510 q 104 656 104 613 q 199 849 104 768 q 439 931 293 931 q 697 871 575 931 l 699 871 l 700 822 q 682 615 700 706 l 575 617 l 507 789 q 374 815 447 811 q 315 683 315 778 q 340 542 315 647 l 358 469 l 560 469 l 568 424 l 508 371 l 374 371 q 299 121 381 238 l 560 135 l 622 294 l 725 286 z "},"¤":{"ha":708,"x_min":72,"x_max":636,"o":"m 603 497 q 553 331 603 401 l 633 242 l 567 176 l 483 267 q 353 229 425 229 q 225 264 282 229 l 150 174 l 81 236 l 157 324 q 101 496 101 399 q 154 656 101 590 l 72 747 l 143 810 l 224 719 q 358 757 290 757 q 490 721 431 757 l 564 808 l 636 749 l 557 658 q 603 497 603 590 m 425 347 q 461 399 446 360 q 476 483 476 439 q 441 596 476 549 q 328 643 406 643 l 281 638 q 228 503 228 594 q 265 389 228 436 q 375 342 303 342 l 425 347 z "},"¥":{"ha":890,"x_min":-33,"x_max":874,"o":"m 521 329 l 521 253 l 701 253 l 710 207 l 650 163 l 521 163 l 521 88 l 636 71 l 635 0 l 211 0 l 203 44 q 315 100 246 71 l 315 163 l 146 163 l 138 208 l 197 253 l 315 253 l 315 329 l 146 329 l 138 375 l 197 419 l 274 419 l 54 831 l -33 843 l -32 914 l 339 914 l 347 869 l 269 829 l 400 583 l 438 465 l 446 465 l 628 828 l 525 843 l 526 914 l 865 914 l 874 869 q 764 815 838 847 l 550 419 l 701 419 l 710 374 l 650 329 l 521 329 z "},"¦":{"ha":435,"x_min":139,"x_max":293,"o":"m 139 856 l 293 856 l 293 497 l 139 497 l 139 856 m 139 253 l 293 253 l 293 -106 l 139 -106 l 139 253 z "},"§":{"ha":742,"x_min":86,"x_max":685,"o":"m 575 175 q 660 18 660 110 q 579 -143 660 -79 q 382 -207 499 -207 q 238 -185 317 -207 q 94 -124 158 -164 l 175 32 q 465 -82 311 -72 q 506 -7 506 -47 q 472 58 506 35 q 363 110 438 81 l 322 125 q 132 242 178 190 q 86 360 86 294 q 193 533 86 468 q 99 699 99 603 q 188 867 99 801 q 414 932 278 932 q 647 886 529 932 l 649 842 q 631 663 649 749 l 524 664 l 481 810 q 382 825 432 825 l 331 821 q 271 724 271 786 q 347 632 271 668 l 446 589 l 540 543 q 685 349 685 465 q 575 175 685 244 m 238 394 q 281 319 238 347 q 440 247 325 292 l 489 226 q 529 303 529 264 q 485 387 529 356 q 322 464 440 418 l 285 481 q 238 394 238 440 z "},"¨":{"ha":651,"x_min":56,"x_max":596,"o":"m 276 881 q 176 764 251 800 q 56 863 93 789 q 158 999 67 949 q 276 881 257 958 m 596 881 q 497 764 571 800 q 375 863 413 789 q 478 999 386 949 q 596 881 576 958 z "},"©":{"ha":1111,"x_min":60,"x_max":1050,"o":"m 556 -32 q 452 -32 556 -32 q 204 110 349 -32 q 60 461 60 253 q 203 813 60 668 q 553 957 347 957 q 904 812 758 957 q 1050 460 1050 667 q 906 112 1050 256 q 556 -32 763 -32 m 553 69 q 835 185 719 69 q 950 463 950 300 q 835 742 950 626 q 556 857 719 857 q 276 740 392 857 q 161 458 161 624 q 274 182 161 294 q 553 69 388 69 m 597 188 q 378 258 465 181 q 292 458 292 335 q 370 656 292 578 q 572 735 449 735 q 793 600 725 735 l 664 521 q 515 643 608 617 q 447 481 447 581 q 495 360 447 408 q 629 311 543 311 q 754 339 686 311 l 778 276 l 597 188 z "},"ª":{"ha":596,"x_min":42,"x_max":553,"o":"m 315 631 l 315 704 q 271 796 315 775 q 200 788 233 796 l 183 685 l 96 681 q 82 813 78 756 q 200 854 126 838 q 325 871 274 871 q 449 794 404 868 q 458 722 458 774 l 458 532 q 482 507 458 507 l 528 511 l 535 471 l 417 407 q 366 428 392 408 q 326 476 340 447 l 226 410 l 200 408 q 97 441 133 408 q 60 521 60 474 q 125 626 60 583 l 315 631 m 210 493 q 315 515 249 493 l 315 574 l 279 576 q 193 528 193 576 q 210 493 193 507 m 553 354 l 553 272 l 42 272 l 42 354 l 553 354 z "},"«":{"ha":808,"x_min":78,"x_max":729,"o":"m 293 656 l 396 589 l 272 351 l 404 125 l 297 53 l 78 306 l 78 397 l 293 656 m 618 656 l 721 589 l 597 351 l 729 125 l 622 53 l 403 306 l 403 397 l 618 656 z "},"¬":{"ha":822,"x_min":78,"x_max":744,"o":"m 744 0 l 610 0 l 610 258 l 78 258 l 78 379 l 744 379 l 744 0 z "},"­":{"ha":593,"x_min":44,"x_max":533,"o":"m 44 428 l 68 475 l 467 475 l 533 369 l 510 321 l 111 321 l 44 428 z "},"®":{"ha":796,"x_min":18,"x_max":775,"o":"m 399 1074 q 481 1074 399 1074 q 669 967 564 1074 q 775 700 775 861 q 668 432 775 538 q 396 326 561 326 q 124 433 229 326 q 18 700 18 539 q 126 968 18 863 q 399 1074 233 1074 m 390 397 q 613 481 526 397 q 700 699 700 565 q 615 919 700 833 q 397 1004 529 1004 q 179 918 265 1004 q 93 694 93 832 q 175 479 93 561 q 390 397 257 397 m 561 564 l 603 558 l 603 522 l 474 522 l 394 663 l 346 663 l 346 565 l 401 558 l 400 522 l 201 522 l 196 549 l 249 572 l 249 851 l 200 857 l 200 896 l 404 896 q 526 863 482 896 q 571 779 571 831 q 490 675 571 707 l 561 564 m 346 715 l 375 713 q 467 778 467 713 q 421 846 467 825 l 346 838 l 346 715 z "},"¯":{"ha":601,"x_min":78,"x_max":576,"o":"m 569 908 l 576 843 l 511 785 l 86 785 l 78 874 q 235 908 146 908 l 569 908 z "},"°":{"ha":506,"x_min":42,"x_max":422,"o":"m 42 713 q 96 847 42 792 q 229 903 150 903 q 367 847 311 903 q 422 713 422 792 q 370 575 422 626 q 235 524 318 524 q 98 577 154 524 q 42 713 42 631 m 282 622 q 313 701 313 653 q 288 775 313 743 q 221 807 263 807 q 175 797 199 807 q 149 719 149 763 q 174 647 149 678 q 242 617 199 617 q 282 622 264 617 z "},"±":{"ha":758,"x_min":78,"x_max":681,"o":"m 681 461 l 447 461 l 447 213 l 313 213 l 313 461 l 78 461 l 78 579 l 313 579 l 313 826 l 447 826 l 447 579 l 681 579 l 681 461 m 671 0 l 83 0 l 82 119 l 671 119 l 671 0 z "},"²":{"ha":428,"x_min":35,"x_max":393,"o":"m 393 707 l 372 585 l 58 585 l 35 647 l 167 771 q 247 901 247 850 q 226 958 247 936 q 174 979 206 979 l 163 978 l 125 851 l 53 851 q 39 967 39 907 l 40 989 q 207 1043 114 1043 q 328 1002 282 1043 q 374 903 374 961 q 189 676 374 803 l 193 668 l 393 707 z "},"³":{"ha":439,"x_min":42,"x_max":399,"o":"m 301 817 q 371 778 343 810 q 399 701 399 746 q 345 605 399 639 q 214 571 292 571 q 42 607 119 571 l 74 725 q 243 640 169 654 q 274 693 274 657 q 249 742 274 721 q 182 763 225 763 l 136 763 l 133 829 l 164 829 q 233 856 211 832 q 256 908 256 879 q 234 958 256 938 q 178 979 213 978 l 131 876 l 68 878 q 57 976 57 919 l 58 1000 q 215 1043 119 1043 q 331 1007 285 1043 q 376 919 376 971 q 301 818 376 846 l 301 817 z "},"⁴":{"ha":439,"x_min":0,"x_max":410,"o":"m 410 758 l 410 713 l 386 683 l 332 683 l 332 632 l 385 622 l 383 585 l 129 585 l 125 606 q 213 642 161 628 l 213 683 l 25 683 l 0 743 l 228 1043 l 332 1024 l 332 758 l 410 758 m 213 757 l 213 832 l 229 917 l 117 756 l 213 757 z "},"´":{"ha":408,"x_min":31,"x_max":372,"o":"m 31 824 l 239 1071 l 372 956 q 157 763 307 901 l 135 740 l 31 824 z "},"µ":{"ha":808,"x_min":72,"x_max":800,"o":"m 800 67 l 629 -22 q 556 12 594 -21 q 499 92 518 44 q 267 -19 375 10 q 192 28 232 -19 l 186 28 l 283 -271 q 218 -305 264 -290 q 125 -319 172 -319 q 74 -314 96 -319 l 72 654 q 274 682 176 685 l 274 249 q 375 125 274 119 q 482 156 421 125 l 482 654 q 683 682 586 685 l 683 158 q 718 121 683 121 l 788 129 l 800 67 z "},"¶":{"ha":925,"x_min":0,"x_max":881,"o":"m 879 -229 l 758 -229 l 758 -231 l 626 -231 l 626 822 l 529 828 l 522 828 l 522 -231 l 390 -231 l 390 -229 l 243 -229 l 235 -175 q 390 -126 292 -149 l 390 814 q 231 597 231 767 q 293 419 231 511 l 240 368 q 65 485 129 403 q 0 663 0 567 q 106 875 0 793 q 386 957 211 957 l 436 956 l 878 897 l 868 807 l 758 814 l 758 -146 l 881 -160 l 879 -229 z "},"·":{"ha":353,"x_min":42,"x_max":276,"o":"m 175 257 q 103 301 143 269 q 42 360 63 332 q 149 490 90 457 q 276 388 219 464 q 175 257 244 304 z "},"¸":{"ha":381,"x_min":46,"x_max":340,"o":"m 165 -81 q 292 -116 244 -81 q 340 -197 340 -151 q 265 -316 340 -267 q 69 -374 190 -365 l 46 -326 q 149 -271 113 -304 q 186 -207 186 -237 q 159 -166 186 -181 q 83 -156 132 -151 l 46 -96 l 133 8 l 218 8 l 165 -81 z "},"¹":{"ha":360,"x_min":11,"x_max":328,"o":"m 328 622 l 326 585 l 35 585 l 31 606 q 119 646 67 631 l 119 918 l 36 885 l 11 933 l 192 1038 l 249 1001 l 247 1001 l 247 642 l 328 622 z "},"º":{"ha":594,"x_min":25,"x_max":531,"o":"m 44 635 q 44 687 44 635 q 113 807 44 739 q 281 875 182 875 q 442 806 378 875 q 507 632 507 738 q 442 461 507 526 q 276 396 378 396 q 111 463 178 396 q 44 635 44 531 m 322 486 q 347 525 335 492 q 360 611 360 558 q 263 782 360 782 l 231 776 q 204 726 215 765 q 193 636 193 686 q 292 482 193 482 l 322 486 m 531 272 l 25 272 l 25 354 l 531 354 l 531 272 z "},"»":{"ha":808,"x_min":78,"x_max":729,"o":"m 185 53 l 78 125 l 210 351 l 86 589 l 189 656 l 404 397 l 404 306 l 185 53 m 510 53 l 403 125 l 535 351 l 411 589 l 514 656 l 729 397 l 729 306 l 510 53 z "},"¼":{"ha":1024,"x_min":11,"x_max":996,"o":"m 328 510 l 326 472 l 35 472 l 31 493 q 119 533 67 518 l 119 806 l 36 772 l 11 821 l 192 925 l 249 889 l 247 889 l 247 529 l 328 510 m 868 946 l 949 867 l 140 21 l 58 99 l 868 946 m 996 174 l 996 128 l 972 99 l 918 99 l 918 47 l 971 38 l 969 0 l 715 0 l 711 21 q 799 57 747 43 l 799 99 l 611 99 l 586 158 l 814 458 l 918 439 l 918 174 l 996 174 m 799 172 l 799 247 l 815 332 l 703 171 l 799 172 z "},"½":{"ha":1001,"x_min":11,"x_max":981,"o":"m 328 510 l 326 472 l 35 472 l 31 493 q 119 533 67 518 l 119 806 l 36 772 l 11 821 l 192 925 l 249 889 l 247 889 l 247 529 l 328 510 m 868 946 l 949 867 l 140 21 l 58 99 l 868 946 m 981 122 l 960 0 l 646 0 l 622 63 l 754 186 q 835 317 835 265 q 814 373 835 351 q 761 394 793 394 l 750 393 l 713 267 l 640 267 q 626 382 626 322 l 628 404 q 794 458 701 458 q 915 417 869 458 q 961 318 961 376 q 776 92 961 218 l 781 83 l 981 122 z "},"¾":{"ha":1081,"x_min":40,"x_max":1051,"o":"m 300 704 q 369 665 342 697 q 397 589 397 633 q 344 492 397 526 q 213 458 290 458 q 40 494 118 458 l 72 613 q 242 528 168 542 q 272 581 272 544 q 248 629 272 608 q 181 650 224 650 l 135 650 l 132 717 l 163 717 q 232 743 210 719 q 254 796 254 767 q 233 845 254 825 q 176 867 211 865 l 129 764 l 67 765 q 56 864 56 807 l 57 888 q 214 931 118 931 q 329 894 283 931 q 375 807 375 858 q 300 706 375 733 l 300 704 m 924 946 l 1004 867 l 196 21 l 114 99 l 924 946 m 1051 174 l 1051 128 l 1028 99 l 974 99 l 974 47 l 1026 38 l 1025 0 l 771 0 l 767 21 q 854 57 803 43 l 854 99 l 667 99 l 642 158 l 869 458 l 974 439 l 974 174 l 1051 174 m 854 172 l 854 247 l 871 332 l 758 171 l 854 172 z "},"¿":{"ha":864,"x_min":129,"x_max":729,"o":"m 440 -324 q 217 -248 306 -324 q 129 -56 129 -172 q 203 108 129 40 l 306 196 q 372 315 365 251 l 544 315 q 476 140 544 215 l 372 36 q 329 -68 329 -12 q 404 -193 329 -156 q 522 -169 463 -193 l 579 14 l 699 14 l 711 -58 q 725 -218 729 -183 l 725 -219 q 440 -324 596 -324 m 444 426 q 317 554 339 472 q 424 681 344 640 q 557 574 517 656 q 444 426 543 478 z "},"À":{"ha":999,"x_min":-28,"x_max":1008,"o":"m 1008 71 l 1007 0 l 569 0 l 561 44 q 682 103 600 68 l 624 253 l 293 253 l 232 89 l 360 71 l 358 0 l -19 0 l -28 44 q 88 100 14 71 l 394 854 l 378 897 l 560 947 l 910 85 l 1008 71 m 583 358 l 458 686 l 333 358 l 583 358 m 626 956 l 276 1093 l 357 1247 l 686 1057 l 626 956 z "},"Á":{"ha":999,"x_min":-28,"x_max":1008,"o":"m 1008 71 l 1007 0 l 569 0 l 561 44 q 682 103 600 68 l 624 253 l 293 253 l 232 89 l 360 71 l 358 0 l -19 0 l -28 44 q 88 100 14 71 l 394 854 l 378 897 l 560 947 l 910 85 l 1008 71 m 583 358 l 458 686 l 333 358 l 583 358 m 629 1247 l 710 1093 l 360 956 l 300 1057 l 629 1247 z "},"Â":{"ha":999,"x_min":-28,"x_max":1008,"o":"m 1008 71 l 1007 0 l 569 0 l 561 44 q 682 103 600 68 l 624 253 l 293 253 l 232 89 l 360 71 l 358 0 l -19 0 l -28 44 q 88 100 14 71 l 394 854 l 378 897 l 560 947 l 910 85 l 1008 71 m 583 358 l 458 686 l 333 358 l 583 358 m 406 1263 l 560 1263 l 769 1047 l 696 975 l 482 1128 l 278 975 l 200 1047 l 406 1263 z "},"Ã":{"ha":999,"x_min":-28,"x_max":1008,"o":"m 1008 71 l 1007 0 l 569 0 l 561 44 q 682 103 600 68 l 624 253 l 293 253 l 232 89 l 360 71 l 358 0 l -19 0 l -28 44 q 88 100 14 71 l 394 854 l 378 897 l 560 947 l 910 85 l 1008 71 m 583 358 l 458 686 l 333 358 l 583 358 m 179 1053 q 281 1192 243 1150 q 356 1235 319 1235 q 444 1208 386 1235 q 638 1113 503 1182 l 757 1211 l 811 1164 q 709 1017 744 1058 q 639 975 674 975 q 491 1031 600 975 q 356 1088 382 1088 q 244 1003 324 1088 l 179 1053 z "},"Ä":{"ha":999,"x_min":-28,"x_max":1008,"o":"m 1008 71 l 1007 0 l 569 0 l 561 44 q 682 103 600 68 l 624 253 l 293 253 l 232 89 l 360 71 l 358 0 l -19 0 l -28 44 q 88 100 14 71 l 394 854 l 378 897 l 560 947 l 910 85 l 1008 71 m 583 358 l 458 686 l 333 358 l 583 358 m 433 1129 q 333 1013 408 1049 q 213 1111 250 1038 q 315 1247 224 1197 q 433 1129 414 1207 m 753 1129 q 654 1013 728 1049 q 532 1111 569 1038 q 635 1247 543 1197 q 753 1129 733 1207 z "},"Å":{"ha":999,"x_min":-28,"x_max":1008,"o":"m 1008 71 l 1007 0 l 569 0 l 561 44 q 682 103 600 68 l 624 253 l 293 253 l 232 89 l 360 71 l 358 0 l -19 0 l -28 44 q 88 100 14 71 l 394 854 l 378 897 l 560 947 l 910 85 l 1008 71 m 583 358 l 458 686 l 333 358 l 583 358 m 318 1150 q 365 1267 318 1219 q 481 1315 411 1315 q 599 1267 551 1315 q 646 1146 646 1219 q 601 1031 646 1076 q 488 986 557 986 q 367 1032 417 986 q 318 1150 318 1078 m 401 1131 q 426 1072 401 1094 q 485 1050 450 1050 q 541 1072 519 1050 q 563 1129 563 1094 q 540 1188 563 1164 q 482 1211 517 1211 q 424 1188 447 1211 q 401 1131 401 1165 z "},"Æ":{"ha":1314,"x_min":3,"x_max":1257,"o":"m 1254 276 q 1238 0 1257 140 l 1225 3 l 1225 0 l 510 0 l 501 47 q 619 104 524 63 l 619 253 l 351 253 l 268 89 l 390 71 l 389 0 l 11 0 l 3 47 l 36 67 l 135 110 l 515 832 l 424 843 l 425 914 l 1243 914 q 1221 650 1250 800 l 1104 650 l 1081 785 l 825 799 l 825 507 l 1131 531 l 1131 390 l 825 403 l 825 119 l 1092 135 l 1138 285 l 1254 276 m 619 358 l 619 775 l 406 358 l 619 358 z "},"Ç":{"ha":808,"x_min":15,"x_max":792,"o":"m 449 -81 q 576 -116 528 -81 q 624 -197 624 -151 q 549 -316 624 -267 q 353 -374 474 -365 l 329 -326 q 433 -271 396 -304 q 469 -207 469 -237 q 442 -166 469 -181 q 367 -156 415 -151 l 329 -96 l 396 -17 q 117 131 219 7 q 15 446 15 254 q 68 688 15 574 q 226 872 121 801 q 482 942 332 942 q 768 854 643 942 q 763 735 771 810 q 738 604 754 660 l 610 604 l 576 778 q 367 819 481 819 q 265 675 299 768 q 231 479 231 582 q 311 217 231 314 q 529 124 392 119 l 758 199 l 792 100 l 507 -22 l 483 -22 l 449 -81 z "},"È":{"ha":857,"x_min":36,"x_max":790,"o":"m 788 276 q 771 0 790 140 l 44 0 l 36 44 q 154 101 76 71 l 154 831 l 51 843 l 53 914 l 778 914 q 756 650 785 800 l 639 650 l 615 788 l 365 806 l 365 507 l 664 531 l 664 390 l 365 403 l 365 115 l 625 133 l 671 285 l 788 276 m 576 956 l 226 1093 l 307 1247 l 636 1057 l 576 956 z "},"É":{"ha":857,"x_min":36,"x_max":790,"o":"m 788 276 q 771 0 790 140 l 44 0 l 36 44 q 154 101 76 71 l 154 831 l 51 843 l 53 914 l 778 914 q 756 650 785 800 l 639 650 l 615 788 l 365 806 l 365 507 l 664 531 l 664 390 l 365 403 l 365 115 l 625 133 l 671 285 l 788 276 m 579 1247 l 660 1093 l 310 956 l 250 1057 l 579 1247 z "},"Ê":{"ha":857,"x_min":36,"x_max":790,"o":"m 788 276 q 771 0 790 140 l 44 0 l 36 44 q 154 101 76 71 l 154 831 l 51 843 l 53 914 l 778 914 q 756 650 785 800 l 639 650 l 615 788 l 365 806 l 365 507 l 664 531 l 664 390 l 365 403 l 365 115 l 625 133 l 671 285 l 788 276 m 356 1263 l 510 1263 l 719 1047 l 646 975 l 432 1128 l 228 975 l 150 1047 l 356 1263 z "},"Ë":{"ha":857,"x_min":36,"x_max":790,"o":"m 788 276 q 771 0 790 140 l 44 0 l 36 44 q 154 101 76 71 l 154 831 l 51 843 l 53 914 l 778 914 q 756 650 785 800 l 639 650 l 615 788 l 365 806 l 365 507 l 664 531 l 664 390 l 365 403 l 365 115 l 625 133 l 671 285 l 788 276 m 383 1129 q 283 1013 358 1049 q 163 1111 200 1038 q 265 1247 174 1197 q 383 1129 364 1207 m 703 1129 q 604 1013 678 1049 q 482 1111 519 1038 q 585 1247 493 1197 q 703 1129 683 1207 z "},"Ì":{"ha":531,"x_min":36,"x_max":493,"o":"m 493 71 l 492 0 l 44 0 l 36 44 q 154 101 76 71 l 154 828 l 47 843 l 49 914 l 474 914 l 482 869 q 365 813 431 839 l 365 89 l 493 71 m 406 956 l 56 1093 l 136 1247 l 465 1057 l 406 956 z "},"Í":{"ha":531,"x_min":36,"x_max":493,"o":"m 493 71 l 492 0 l 44 0 l 36 44 q 154 101 76 71 l 154 828 l 47 843 l 49 914 l 474 914 l 482 869 q 365 813 431 839 l 365 89 l 493 71 m 408 1247 l 489 1093 l 139 956 l 79 1057 l 408 1247 z "},"Î":{"ha":531,"x_min":-22,"x_max":547,"o":"m 493 71 l 492 0 l 44 0 l 36 44 q 154 101 76 71 l 154 828 l 47 843 l 49 914 l 474 914 l 482 869 q 365 813 431 839 l 365 89 l 493 71 m 183 1263 l 338 1263 l 547 1047 l 474 975 l 260 1128 l 56 975 l -22 1047 l 183 1263 z "},"Ï":{"ha":531,"x_min":-8,"x_max":532,"o":"m 493 71 l 492 0 l 44 0 l 36 44 q 154 101 76 71 l 154 828 l 47 843 l 49 914 l 474 914 l 482 869 q 365 813 431 839 l 365 89 l 493 71 m 213 1129 q 113 1013 188 1049 q -8 1111 29 1038 q 94 1247 3 1197 q 213 1129 193 1207 m 532 1129 q 433 1013 507 1049 q 311 1111 349 1038 q 414 1247 322 1197 q 532 1129 513 1207 z "},"Ð":{"ha":1013,"x_min":19,"x_max":961,"o":"m 503 925 q 749 858 646 925 q 907 686 853 792 q 961 464 961 581 q 835 133 961 261 q 501 0 710 6 l 44 0 l 36 44 q 154 101 76 71 l 154 381 l 28 381 l 19 426 l 79 486 l 154 486 l 154 831 l 56 843 l 57 914 q 503 925 257 925 m 471 115 q 665 211 590 115 q 739 456 739 307 q 691 671 739 571 q 567 817 643 771 l 365 796 l 365 486 l 554 486 l 563 440 l 503 381 l 365 381 l 365 132 q 471 115 422 115 z "},"Ñ":{"ha":1075,"x_min":36,"x_max":1038,"o":"m 1038 869 q 925 814 994 843 l 919 0 l 724 -18 l 285 656 l 306 485 l 306 89 l 428 71 l 426 0 l 44 0 l 36 44 q 154 101 76 71 l 154 828 l 57 843 l 58 914 l 367 914 l 365 913 l 794 242 l 774 418 l 774 824 l 639 843 l 640 914 l 1029 914 l 1038 869 m 207 1053 q 309 1192 271 1150 q 383 1235 347 1235 q 472 1208 414 1235 q 665 1113 531 1182 l 785 1211 l 839 1164 q 737 1017 772 1058 q 667 975 701 975 q 519 1031 628 975 q 383 1088 410 1088 q 272 1003 351 1088 l 207 1053 z "},"Ò":{"ha":938,"x_min":19,"x_max":918,"o":"m 464 942 q 790 803 663 942 q 918 444 918 665 q 794 102 918 232 q 475 -28 669 -28 q 147 104 275 -28 q 19 451 19 236 q 145 805 19 668 q 464 942 271 942 m 344 800 q 270 674 299 761 q 242 476 242 586 q 308 201 242 308 q 499 94 375 94 q 578 107 531 94 q 663 239 631 149 q 694 440 694 329 q 626 714 694 608 q 446 819 558 819 q 344 800 399 819 m 613 956 l 263 1093 l 343 1247 l 672 1057 l 613 956 z "},"Ó":{"ha":938,"x_min":19,"x_max":918,"o":"m 464 942 q 790 803 663 942 q 918 444 918 665 q 794 102 918 232 q 475 -28 669 -28 q 147 104 275 -28 q 19 451 19 236 q 145 805 19 668 q 464 942 271 942 m 344 800 q 270 674 299 761 q 242 476 242 586 q 308 201 242 308 q 499 94 375 94 q 578 107 531 94 q 663 239 631 149 q 694 440 694 329 q 626 714 694 608 q 446 819 558 819 q 344 800 399 819 m 615 1247 l 696 1093 l 346 956 l 286 1057 l 615 1247 z "},"Ô":{"ha":938,"x_min":19,"x_max":918,"o":"m 464 942 q 790 803 663 942 q 918 444 918 665 q 794 102 918 232 q 475 -28 669 -28 q 147 104 275 -28 q 19 451 19 236 q 145 805 19 668 q 464 942 271 942 m 344 800 q 270 674 299 761 q 242 476 242 586 q 308 201 242 308 q 499 94 375 94 q 578 107 531 94 q 663 239 631 149 q 694 440 694 329 q 626 714 694 608 q 446 819 558 819 q 344 800 399 819 m 392 1263 l 546 1263 l 756 1047 l 682 975 l 468 1128 l 264 975 l 186 1047 l 392 1263 z "},"Õ":{"ha":938,"x_min":19,"x_max":918,"o":"m 464 942 q 790 803 663 942 q 918 444 918 665 q 794 102 918 232 q 475 -28 669 -28 q 147 104 275 -28 q 19 451 19 236 q 145 805 19 668 q 464 942 271 942 m 344 800 q 270 674 299 761 q 242 476 242 586 q 308 201 242 308 q 499 94 375 94 q 578 107 531 94 q 663 239 631 149 q 694 440 694 329 q 626 714 694 608 q 446 819 558 819 q 344 800 399 819 m 165 1053 q 267 1192 229 1150 q 342 1235 306 1235 q 431 1208 372 1235 q 624 1113 489 1182 l 743 1211 l 797 1164 q 695 1017 731 1058 q 625 975 660 975 q 477 1031 586 975 q 342 1088 368 1088 q 231 1003 310 1088 l 165 1053 z "},"Ö":{"ha":938,"x_min":19,"x_max":918,"o":"m 464 942 q 790 803 663 942 q 918 444 918 665 q 794 102 918 232 q 475 -28 669 -28 q 147 104 275 -28 q 19 451 19 236 q 145 805 19 668 q 464 942 271 942 m 344 800 q 270 674 299 761 q 242 476 242 586 q 308 201 242 308 q 499 94 375 94 q 578 107 531 94 q 663 239 631 149 q 694 440 694 329 q 626 714 694 608 q 446 819 558 819 q 344 800 399 819 m 419 1129 q 319 1013 394 1049 q 199 1111 236 1038 q 301 1247 210 1197 q 419 1129 400 1207 m 739 1129 q 640 1013 714 1049 q 518 1111 556 1038 q 621 1247 529 1197 q 739 1129 719 1207 z "},"×":{"ha":781,"x_min":90,"x_max":689,"o":"m 689 550 l 478 333 l 688 117 l 597 28 l 389 244 l 183 28 l 93 115 l 303 331 l 90 550 l 183 636 l 392 419 l 597 636 l 689 550 z "},"Ø":{"ha":976,"x_min":19,"x_max":918,"o":"m 760 833 q 918 444 918 696 q 794 102 918 232 q 475 -28 669 -28 q 311 0 390 -28 l 246 -121 l 149 -68 l 213 50 q 72 212 124 110 q 19 451 19 314 q 145 805 19 668 q 464 942 271 942 q 667 894 576 942 l 739 1028 l 835 972 l 760 833 m 242 476 q 300 214 242 317 l 593 757 q 446 819 533 819 q 344 800 399 819 q 270 674 299 761 q 242 476 242 586 m 578 107 q 663 239 631 149 q 694 440 694 329 q 660 647 694 557 l 379 128 q 499 94 435 94 q 578 107 531 94 z "},"Ù":{"ha":1024,"x_min":11,"x_max":1011,"o":"m 1011 869 q 894 813 960 839 l 894 397 q 797 74 893 175 q 533 -26 700 -26 q 232 87 343 -26 q 118 399 121 200 l 118 828 l 11 843 l 13 914 l 438 914 l 446 869 q 329 813 394 839 l 329 368 q 389 168 329 236 q 553 100 449 100 q 674 133 621 100 q 744 383 742 197 l 744 826 l 626 843 l 628 914 l 1003 914 l 1011 869 m 658 956 l 308 1093 l 389 1247 l 718 1057 l 658 956 z "},"Ú":{"ha":1024,"x_min":11,"x_max":1011,"o":"m 1011 869 q 894 813 960 839 l 894 397 q 797 74 893 175 q 533 -26 700 -26 q 232 87 343 -26 q 118 399 121 200 l 118 828 l 11 843 l 13 914 l 438 914 l 446 869 q 329 813 394 839 l 329 368 q 389 168 329 236 q 553 100 449 100 q 674 133 621 100 q 744 383 742 197 l 744 826 l 626 843 l 628 914 l 1003 914 l 1011 869 m 661 1247 l 742 1093 l 392 956 l 332 1057 l 661 1247 z "},"Û":{"ha":1024,"x_min":11,"x_max":1011,"o":"m 1011 869 q 894 813 960 839 l 894 397 q 797 74 893 175 q 533 -26 700 -26 q 232 87 343 -26 q 118 399 121 200 l 118 828 l 11 843 l 13 914 l 438 914 l 446 869 q 329 813 394 839 l 329 368 q 389 168 329 236 q 553 100 449 100 q 674 133 621 100 q 744 383 742 197 l 744 826 l 626 843 l 628 914 l 1003 914 l 1011 869 m 438 1263 l 592 1263 l 801 1047 l 728 975 l 514 1128 l 310 975 l 232 1047 l 438 1263 z "},"Ü":{"ha":1024,"x_min":11,"x_max":1011,"o":"m 1011 869 q 894 813 960 839 l 894 397 q 797 74 893 175 q 533 -26 700 -26 q 232 87 343 -26 q 118 399 121 200 l 118 828 l 11 843 l 13 914 l 438 914 l 446 869 q 329 813 394 839 l 329 368 q 389 168 329 236 q 553 100 449 100 q 674 133 621 100 q 744 383 742 197 l 744 826 l 626 843 l 628 914 l 1003 914 l 1011 869 m 465 1129 q 365 1013 440 1049 q 244 1111 282 1038 q 347 1247 256 1197 q 465 1129 446 1207 m 785 1129 q 686 1013 760 1049 q 564 1111 601 1038 q 667 1247 575 1197 q 785 1129 765 1207 z "},"Ý":{"ha":899,"x_min":-3,"x_max":904,"o":"m 551 88 l 667 71 l 665 0 l 242 0 l 233 44 q 346 100 276 71 l 346 343 l 85 831 l -3 843 l -1 914 l 369 914 l 378 869 l 300 829 l 431 583 l 468 465 l 476 465 l 658 828 l 556 843 l 557 914 l 896 914 l 904 869 q 794 815 868 847 l 551 365 l 551 88 m 615 1247 l 696 1093 l 346 956 l 286 1057 l 615 1247 z "},"Þ":{"ha":869,"x_min":39,"x_max":832,"o":"m 372 204 l 372 89 l 500 71 l 499 0 l 47 0 l 39 47 l 71 65 l 161 106 l 161 815 l 50 832 l 51 903 l 482 903 l 490 856 q 372 799 463 838 l 372 725 l 500 725 q 739 650 646 725 q 832 461 832 575 q 743 281 832 353 q 511 206 654 210 l 372 204 m 372 590 l 372 319 q 438 313 404 313 q 576 354 531 313 q 621 461 621 396 q 531 615 621 558 l 372 590 z "},"ß":{"ha":850,"x_min":7,"x_max":824,"o":"m 565 510 q 603 456 572 481 l 732 358 q 824 182 824 283 q 752 31 824 86 q 572 -25 681 -25 q 376 18 478 -25 l 432 189 q 607 101 513 121 q 633 169 633 139 q 613 228 633 203 q 531 295 592 254 q 435 373 471 336 q 396 464 400 410 q 489 622 465 572 q 513 722 513 672 q 478 819 513 775 q 421 826 453 826 q 303 796 349 826 l 314 606 l 314 0 l 19 0 l 15 47 q 114 90 47 67 l 114 511 l 13 510 l 7 582 q 114 642 58 619 q 162 831 114 767 q 279 925 210 896 q 415 954 349 954 q 619 882 535 954 q 703 713 703 810 q 565 510 703 601 z "},"à":{"ha":756,"x_min":51,"x_max":743,"o":"m 743 67 l 574 -22 q 504 8 540 -21 q 447 78 468 36 l 296 -18 l 253 -21 q 108 31 165 -21 q 51 154 51 82 q 160 313 51 254 l 425 319 l 425 443 q 360 585 425 554 q 256 567 296 581 l 231 417 l 114 413 q 83 581 83 489 l 85 608 q 268 667 161 642 q 431 693 375 693 q 531 665 482 693 q 611 593 581 638 q 628 488 626 567 l 628 154 q 663 121 628 121 l 731 129 l 743 67 m 282 103 q 425 138 338 104 l 425 238 l 390 239 q 253 164 253 239 q 282 103 253 126 m 388 736 q 150 951 222 894 l 283 1067 l 492 819 l 388 736 z "},"á":{"ha":756,"x_min":51,"x_max":743,"o":"m 743 67 l 574 -22 q 504 8 540 -21 q 447 78 468 36 l 296 -18 l 253 -21 q 108 31 165 -21 q 51 154 51 82 q 160 313 51 254 l 425 319 l 425 443 q 360 585 425 554 q 256 567 296 581 l 231 417 l 114 413 q 83 581 83 489 l 85 608 q 268 667 161 642 q 431 693 375 693 q 531 665 482 693 q 611 593 581 638 q 628 488 626 567 l 628 154 q 663 121 628 121 l 731 129 l 743 67 m 282 103 q 425 138 338 104 l 425 238 l 390 239 q 253 164 253 239 q 282 103 253 126 m 229 819 l 438 1067 l 571 951 q 356 758 506 897 l 333 736 l 229 819 z "},"â":{"ha":756,"x_min":51,"x_max":743,"o":"m 743 67 l 574 -22 q 504 8 540 -21 q 447 78 468 36 l 296 -18 l 253 -21 q 108 31 165 -21 q 51 154 51 82 q 160 313 51 254 l 425 319 l 425 443 q 360 585 425 554 q 256 567 296 581 l 231 417 l 114 413 q 83 581 83 489 l 85 608 q 268 667 161 642 q 431 693 375 693 q 531 665 482 693 q 611 593 581 638 q 628 488 626 567 l 628 154 q 663 121 628 121 l 731 129 l 743 67 m 282 103 q 425 138 338 104 l 425 238 l 390 239 q 253 164 253 239 q 282 103 253 126 m 293 1015 l 439 1015 l 618 807 l 546 739 l 361 889 l 193 733 l 113 797 l 293 1015 z "},"ã":{"ha":756,"x_min":51,"x_max":743,"o":"m 743 67 l 574 -22 q 504 8 540 -21 q 447 78 468 36 l 296 -18 l 253 -21 q 108 31 165 -21 q 51 154 51 82 q 160 313 51 254 l 425 319 l 425 443 q 360 585 425 554 q 256 567 296 581 l 231 417 l 114 413 q 83 581 83 489 l 85 608 q 268 667 161 642 q 431 693 375 693 q 531 665 482 693 q 611 593 581 638 q 628 488 626 567 l 628 154 q 663 121 628 121 l 731 129 l 743 67 m 282 103 q 425 138 338 104 l 425 238 l 390 239 q 253 164 253 239 q 282 103 253 126 m 78 815 q 185 967 143 924 q 272 1010 226 1010 q 493 885 324 1010 l 603 999 l 669 950 q 492 751 564 751 q 372 809 457 751 q 265 867 288 867 q 147 761 235 867 l 78 815 z "},"ä":{"ha":756,"x_min":51,"x_max":743,"o":"m 743 67 l 574 -22 q 504 8 540 -21 q 447 78 468 36 l 296 -18 l 253 -21 q 108 31 165 -21 q 51 154 51 82 q 160 313 51 254 l 425 319 l 425 443 q 360 585 425 554 q 256 567 296 581 l 231 417 l 114 413 q 83 581 83 489 l 85 608 q 268 667 161 642 q 431 693 375 693 q 531 665 482 693 q 611 593 581 638 q 628 488 626 567 l 628 154 q 663 121 628 121 l 731 129 l 743 67 m 282 103 q 425 138 338 104 l 425 238 l 390 239 q 253 164 253 239 q 282 103 253 126 m 311 876 q 211 760 286 796 q 90 858 128 785 q 193 994 101 944 q 311 876 292 954 m 631 876 q 532 760 606 796 q 410 858 447 785 q 513 994 421 944 q 631 876 611 954 z "},"å":{"ha":756,"x_min":51,"x_max":743,"o":"m 743 67 l 574 -22 q 504 8 540 -21 q 447 78 468 36 l 296 -18 l 253 -21 q 108 31 165 -21 q 51 154 51 82 q 160 313 51 254 l 425 319 l 425 443 q 360 585 425 554 q 256 567 296 581 l 231 417 l 114 413 q 83 581 83 489 l 85 608 q 268 667 161 642 q 431 693 375 693 q 531 665 482 693 q 611 593 581 638 q 628 488 626 567 l 628 154 q 663 121 628 121 l 731 129 l 743 67 m 282 103 q 425 138 338 104 l 425 238 l 390 239 q 253 164 253 239 q 282 103 253 126 m 196 897 q 242 1015 196 967 q 358 1063 289 1063 q 476 1015 429 1063 q 524 893 524 967 q 479 778 524 824 q 365 733 435 733 q 245 779 294 733 q 196 897 196 825 m 279 878 q 303 819 279 842 q 363 797 328 797 q 419 819 397 797 q 440 876 440 842 q 417 935 440 911 q 360 958 394 958 q 302 935 325 958 q 279 878 279 913 z "},"æ":{"ha":1081,"x_min":51,"x_max":1056,"o":"m 969 331 l 617 335 q 681 171 622 224 q 831 118 739 118 q 1011 168 906 118 l 1040 94 l 822 -18 l 779 -21 q 508 96 607 -21 l 296 -18 l 253 -21 q 108 31 165 -21 q 51 154 51 82 q 160 313 51 254 l 426 319 l 425 454 q 360 581 422 550 q 256 561 301 578 l 231 411 l 108 413 q 83 571 83 486 l 85 603 q 270 665 165 639 q 442 690 375 690 q 567 615 504 689 q 771 689 658 689 q 976 612 896 689 q 1056 411 1056 535 l 1049 410 l 969 331 m 722 583 q 624 431 647 540 l 869 443 q 819 543 860 503 q 722 583 778 583 m 282 103 q 468 153 336 104 q 438 238 444 197 l 431 238 l 393 239 q 253 164 253 239 q 282 103 253 126 z "},"ç":{"ha":621,"x_min":19,"x_max":614,"o":"m 369 -22 l 335 -81 q 462 -116 414 -81 q 510 -197 510 -151 q 435 -316 510 -267 q 239 -374 360 -365 l 215 -326 q 319 -271 282 -304 q 356 -207 356 -237 q 328 -166 356 -181 q 253 -156 301 -151 l 215 -96 l 283 -14 q 92 103 165 11 q 19 329 19 196 q 116 588 19 488 q 360 689 213 689 q 513 650 444 689 q 614 539 582 611 l 463 435 q 290 575 381 546 q 217 364 217 496 q 270 185 217 254 q 421 117 324 117 q 571 154 492 117 l 600 85 l 403 -19 l 369 -22 z "},"è":{"ha":672,"x_min":19,"x_max":647,"o":"m 567 331 l 213 335 q 276 175 218 232 q 425 118 335 118 q 603 168 500 118 l 632 94 l 414 -18 l 369 -21 q 118 76 217 -21 q 19 321 19 172 q 119 583 19 476 q 363 689 219 689 q 567 612 488 689 q 647 411 647 535 l 567 331 m 314 583 q 221 431 242 542 l 461 443 q 410 543 451 503 q 314 583 369 583 m 382 736 q 144 951 217 894 l 278 1067 l 486 819 l 382 736 z "},"é":{"ha":672,"x_min":19,"x_max":647,"o":"m 567 331 l 213 335 q 276 175 218 232 q 425 118 335 118 q 603 168 500 118 l 632 94 l 414 -18 l 369 -21 q 118 76 217 -21 q 19 321 19 172 q 119 583 19 476 q 363 689 219 689 q 567 612 488 689 q 647 411 647 535 l 567 331 m 314 583 q 221 431 242 542 l 461 443 q 410 543 451 503 q 314 583 369 583 m 224 819 l 432 1067 l 565 951 q 350 758 500 897 l 328 736 l 224 819 z "},"ê":{"ha":672,"x_min":19,"x_max":647,"o":"m 567 331 l 213 335 q 276 175 218 232 q 425 118 335 118 q 603 168 500 118 l 632 94 l 414 -18 l 369 -21 q 118 76 217 -21 q 19 321 19 172 q 119 583 19 476 q 363 689 219 689 q 567 612 488 689 q 647 411 647 535 l 567 331 m 314 583 q 221 431 242 542 l 461 443 q 410 543 451 503 q 314 583 369 583 m 288 1015 l 433 1015 l 613 807 l 540 739 l 356 889 l 188 733 l 107 797 l 288 1015 z "},"ë":{"ha":672,"x_min":19,"x_max":647,"o":"m 567 331 l 213 335 q 276 175 218 232 q 425 118 335 118 q 603 168 500 118 l 632 94 l 414 -18 l 369 -21 q 118 76 217 -21 q 19 321 19 172 q 119 583 19 476 q 363 689 219 689 q 567 612 488 689 q 647 411 647 535 l 567 331 m 314 583 q 221 431 242 542 l 461 443 q 410 543 451 503 q 314 583 369 583 m 306 876 q 206 760 281 796 q 85 858 122 785 q 188 994 96 944 q 306 876 286 954 m 625 876 q 526 760 600 796 q 404 858 442 785 q 507 994 415 944 q 625 876 606 954 z "},"ì":{"ha":435,"x_min":-3,"x_max":413,"o":"m 328 106 q 413 68 376 90 l 407 0 l 29 0 l 25 47 q 126 92 63 68 l 126 553 l 22 565 l 13 632 q 260 681 132 678 l 328 619 l 328 106 m 235 736 q -3 951 69 894 l 131 1067 l 339 819 l 235 736 z "},"í":{"ha":435,"x_min":13,"x_max":418,"o":"m 328 106 q 413 68 376 90 l 407 0 l 29 0 l 25 47 q 126 92 63 68 l 126 553 l 22 565 l 13 632 q 260 681 132 678 l 328 619 l 328 106 m 76 819 l 285 1067 l 418 951 q 203 758 353 897 l 181 736 l 76 819 z "},"î":{"ha":435,"x_min":-40,"x_max":465,"o":"m 328 106 q 413 68 376 90 l 407 0 l 29 0 l 25 47 q 126 92 63 68 l 126 553 l 22 565 l 13 632 q 260 681 132 678 l 328 619 l 328 106 m 140 1015 l 286 1015 l 465 807 l 393 739 l 208 889 l 40 733 l -40 797 l 140 1015 z "},"ï":{"ha":435,"x_min":-62,"x_max":478,"o":"m 328 106 q 413 68 376 90 l 407 0 l 29 0 l 25 47 q 126 92 63 68 l 126 553 l 22 565 l 13 632 q 260 681 132 678 l 328 619 l 328 106 m 158 876 q 58 760 133 796 q -62 858 -25 785 q 40 994 -51 944 q 158 876 139 954 m 478 876 q 379 760 453 796 q 257 858 294 785 q 360 994 268 944 q 478 876 458 954 z "},"ð":{"ha":728,"x_min":25,"x_max":707,"o":"m 560 856 q 669 599 631 729 q 707 358 707 468 q 614 74 707 183 q 374 -36 521 -36 q 126 67 228 -36 q 25 326 25 171 q 114 568 25 471 q 335 665 203 665 q 465 629 408 665 q 401 783 439 706 l 296 735 l 214 783 l 201 832 l 336 896 l 267 996 l 410 1069 q 490 968 446 1031 l 614 1026 l 675 908 l 560 856 m 431 85 q 513 349 513 167 q 500 474 513 411 q 324 553 415 546 q 256 456 282 522 q 229 318 229 389 q 285 144 229 210 q 431 85 340 79 z "},"ñ":{"ha":865,"x_min":13,"x_max":849,"o":"m 750 108 q 849 68 818 88 l 843 0 l 476 0 l 472 47 l 549 82 l 549 401 q 458 538 549 538 q 328 489 415 538 l 328 106 q 413 68 376 90 l 407 0 l 29 0 l 25 47 q 126 92 63 68 l 126 558 l 22 571 l 13 638 q 260 686 132 683 l 328 619 l 328 556 q 563 682 468 658 q 682 639 626 678 q 746 539 738 600 l 750 460 l 750 108 m 150 815 q 257 967 215 924 q 344 1010 299 1010 q 565 885 396 1010 l 675 999 l 742 950 q 564 751 636 751 q 444 809 529 751 q 338 867 360 867 q 219 761 307 867 l 150 815 z "},"ò":{"ha":715,"x_min":19,"x_max":689,"o":"m 19 335 q 19 413 19 335 q 116 590 19 492 q 357 689 213 689 q 595 588 501 689 q 689 328 689 488 q 597 69 689 167 q 361 -28 504 -28 q 117 75 215 -28 q 19 335 19 178 m 418 93 q 483 311 483 139 q 449 498 483 425 q 346 571 415 571 q 275 551 304 571 q 225 338 225 485 q 261 156 225 226 q 371 86 297 86 q 418 93 396 86 m 382 736 q 144 951 217 894 l 278 1067 l 486 819 l 382 736 z "},"ó":{"ha":715,"x_min":19,"x_max":689,"o":"m 19 335 q 19 413 19 335 q 116 590 19 492 q 357 689 213 689 q 595 588 501 689 q 689 328 689 488 q 597 69 689 167 q 361 -28 504 -28 q 117 75 215 -28 q 19 335 19 178 m 418 93 q 483 311 483 139 q 449 498 483 425 q 346 571 415 571 q 275 551 304 571 q 225 338 225 485 q 261 156 225 226 q 371 86 297 86 q 418 93 396 86 m 224 819 l 432 1067 l 565 951 q 350 758 500 897 l 328 736 l 224 819 z "},"ô":{"ha":715,"x_min":19,"x_max":689,"o":"m 19 335 q 19 413 19 335 q 116 590 19 492 q 357 689 213 689 q 595 588 501 689 q 689 328 689 488 q 597 69 689 167 q 361 -28 504 -28 q 117 75 215 -28 q 19 335 19 178 m 418 93 q 483 311 483 139 q 449 498 483 425 q 346 571 415 571 q 275 551 304 571 q 225 338 225 485 q 261 156 225 226 q 371 86 297 86 q 418 93 396 86 m 288 1015 l 433 1015 l 613 807 l 540 739 l 356 889 l 188 733 l 107 797 l 288 1015 z "},"õ":{"ha":715,"x_min":19,"x_max":689,"o":"m 19 335 q 19 413 19 335 q 116 590 19 492 q 357 689 213 689 q 595 588 501 689 q 689 328 689 488 q 597 69 689 167 q 361 -28 504 -28 q 117 75 215 -28 q 19 335 19 178 m 418 93 q 483 311 483 139 q 449 498 483 425 q 346 571 415 571 q 275 551 304 571 q 225 338 225 485 q 261 156 225 226 q 371 86 297 86 q 418 93 396 86 m 72 815 q 179 967 138 924 q 267 1010 221 1010 q 488 885 318 1010 l 597 999 l 664 950 q 486 751 558 751 q 367 809 451 751 q 260 867 282 867 q 142 761 229 867 l 72 815 z "},"ö":{"ha":715,"x_min":19,"x_max":689,"o":"m 19 335 q 19 413 19 335 q 116 590 19 492 q 357 689 213 689 q 595 588 501 689 q 689 328 689 488 q 597 69 689 167 q 361 -28 504 -28 q 117 75 215 -28 q 19 335 19 178 m 418 93 q 483 311 483 139 q 449 498 483 425 q 346 571 415 571 q 275 551 304 571 q 225 338 225 485 q 261 156 225 226 q 371 86 297 86 q 418 93 396 86 m 306 876 q 206 760 281 796 q 85 858 122 785 q 188 994 96 944 q 306 876 286 954 m 625 876 q 526 760 600 796 q 404 858 442 785 q 507 994 415 944 q 625 876 606 954 z "},"÷":{"ha":831,"x_min":78,"x_max":753,"o":"m 529 597 q 431 481 503 515 q 308 579 357 499 q 411 714 318 660 q 529 597 504 676 m 753 283 l 78 283 l 78 406 l 753 406 l 753 283 m 529 88 q 431 -29 501 6 q 308 71 354 -10 q 411 206 318 151 q 529 88 504 168 z "},"ø":{"ha":724,"x_min":19,"x_max":689,"o":"m 606 578 q 689 328 689 479 q 597 69 689 167 q 361 -28 504 -28 q 226 0 290 -28 l 151 -114 l 49 -43 l 122 69 q 19 335 19 169 q 116 590 19 492 q 357 689 213 689 q 507 654 439 689 l 564 740 l 668 674 l 606 578 m 225 338 q 233 239 225 285 l 428 532 q 346 571 396 571 q 275 551 304 571 q 225 338 225 485 m 418 93 q 483 311 483 139 l 479 386 l 299 110 q 371 86 329 86 q 418 93 396 86 z "},"ù":{"ha":850,"x_min":0,"x_max":842,"o":"m 842 67 l 671 -22 q 597 13 636 -21 q 540 93 558 47 q 303 -22 417 7 q 212 7 260 -19 q 135 76 164 33 q 114 206 115 106 l 114 558 l 10 571 l 0 638 q 247 686 119 683 l 315 625 l 315 244 q 404 124 315 124 q 524 158 454 124 l 524 560 l 436 574 l 426 640 q 657 686 529 681 l 725 625 l 725 158 q 760 121 725 121 l 829 129 l 842 67 m 419 736 q 182 951 254 894 l 315 1067 l 524 819 l 419 736 z "},"ú":{"ha":850,"x_min":0,"x_max":842,"o":"m 842 67 l 671 -22 q 597 13 636 -21 q 540 93 558 47 q 303 -22 417 7 q 212 7 260 -19 q 135 76 164 33 q 114 206 115 106 l 114 558 l 10 571 l 0 638 q 247 686 119 683 l 315 625 l 315 244 q 404 124 315 124 q 524 158 454 124 l 524 560 l 436 574 l 426 640 q 657 686 529 681 l 725 625 l 725 158 q 760 121 725 121 l 829 129 l 842 67 m 261 819 l 469 1067 l 603 951 q 388 758 538 897 l 365 736 l 261 819 z "},"û":{"ha":850,"x_min":0,"x_max":842,"o":"m 842 67 l 671 -22 q 597 13 636 -21 q 540 93 558 47 q 303 -22 417 7 q 212 7 260 -19 q 135 76 164 33 q 114 206 115 106 l 114 558 l 10 571 l 0 638 q 247 686 119 683 l 315 625 l 315 244 q 404 124 315 124 q 524 158 454 124 l 524 560 l 436 574 l 426 640 q 657 686 529 681 l 725 625 l 725 158 q 760 121 725 121 l 829 129 l 842 67 m 325 1015 l 471 1015 l 650 807 l 578 739 l 393 889 l 225 733 l 144 797 l 325 1015 z "},"ü":{"ha":850,"x_min":0,"x_max":842,"o":"m 842 67 l 671 -22 q 597 13 636 -21 q 540 93 558 47 q 303 -22 417 7 q 212 7 260 -19 q 135 76 164 33 q 114 206 115 106 l 114 558 l 10 571 l 0 638 q 247 686 119 683 l 315 625 l 315 244 q 404 124 315 124 q 524 158 454 124 l 524 560 l 436 574 l 426 640 q 657 686 529 681 l 725 625 l 725 158 q 760 121 725 121 l 829 129 l 842 67 m 343 876 q 243 760 318 796 q 122 858 160 785 q 225 994 133 944 q 343 876 324 954 m 663 876 q 564 760 638 796 q 442 858 479 785 q 544 994 453 944 q 663 876 643 954 z "},"ý":{"ha":751,"x_min":-31,"x_max":763,"o":"m 763 599 q 685 563 725 576 q 540 103 601 267 q 397 -131 485 -31 q 172 -308 310 -231 l 65 -126 q 347 7 249 -75 q 243 53 290 21 l 64 547 l -31 588 l -31 660 l 339 660 l 343 599 l 271 563 l 350 297 l 367 176 l 392 176 q 481 560 451 367 l 408 588 l 410 660 l 758 660 l 763 599 m 249 819 l 457 1067 l 590 951 q 375 758 525 897 l 353 736 l 249 819 z "},"þ":{"ha":783,"x_min":-31,"x_max":757,"o":"m 368 -26 l 293 -21 l 293 -167 q 419 -214 378 -193 l 414 -282 l 4 -282 l 0 -233 l 92 -199 l 92 885 l -21 906 l -31 972 q 226 1022 83 1015 l 294 960 l 294 569 l 450 678 l 500 682 q 685 590 613 682 q 757 358 757 497 q 649 82 757 190 q 368 -26 540 -26 m 399 532 q 294 499 353 532 l 294 114 q 407 89 351 89 l 451 93 q 522 190 496 128 q 547 321 547 253 q 506 470 547 408 q 399 532 465 532 z "},"ÿ":{"ha":751,"x_min":-31,"x_max":763,"o":"m 763 599 q 685 563 725 576 q 540 103 601 267 q 397 -131 485 -31 q 172 -308 310 -231 l 65 -126 q 347 7 249 -75 q 243 53 290 21 l 64 547 l -31 588 l -31 660 l 339 660 l 343 599 l 271 563 l 350 297 l 367 176 l 392 176 q 481 560 451 367 l 408 588 l 410 660 l 758 660 l 763 599 m 331 876 q 231 760 306 796 q 110 858 147 785 q 213 994 121 944 q 331 876 311 954 m 650 876 q 551 760 625 796 q 429 858 467 785 q 532 994 440 944 q 650 876 631 954 z "},"Ā":{"ha":999,"x_min":-28,"x_max":1008,"o":"m 1008 71 l 1007 0 l 569 0 l 561 44 q 682 103 600 68 l 624 253 l 293 253 l 232 89 l 360 71 l 358 0 l -19 0 l -28 44 q 88 100 14 71 l 394 854 l 378 897 l 560 947 l 910 85 l 1008 71 m 583 358 l 458 686 l 333 358 l 583 358 m 772 1154 l 779 1089 l 714 1031 l 219 1031 l 211 1119 q 368 1154 279 1154 l 772 1154 z "},"ā":{"ha":756,"x_min":51,"x_max":743,"o":"m 743 67 l 574 -22 q 504 8 540 -21 q 447 78 468 36 l 296 -18 l 253 -21 q 108 31 165 -21 q 51 154 51 82 q 160 313 51 254 l 425 319 l 425 443 q 360 585 425 554 q 256 567 296 581 l 231 417 l 114 413 q 83 581 83 489 l 85 608 q 268 667 161 642 q 431 693 375 693 q 531 665 482 693 q 611 593 581 638 q 628 488 626 567 l 628 154 q 663 121 628 121 l 731 129 l 743 67 m 282 103 q 425 138 338 104 l 425 238 l 390 239 q 253 164 253 239 q 282 103 253 126 m 622 904 l 629 839 l 564 781 l 139 781 l 131 869 q 288 904 199 904 l 622 904 z "},"Ă":{"ha":999,"x_min":-28,"x_max":1008,"o":"m 1008 71 l 1007 0 l 569 0 l 561 44 q 682 103 600 68 l 624 253 l 293 253 l 232 89 l 360 71 l 358 0 l -19 0 l -28 44 q 88 100 14 71 l 394 854 l 378 897 l 560 947 l 910 85 l 1008 71 m 583 358 l 458 686 l 333 358 l 583 358 m 707 1206 q 638 1048 699 1103 q 489 993 576 993 q 336 1049 400 993 q 260 1203 272 1104 l 383 1214 q 478 1110 394 1110 q 569 1213 561 1110 l 707 1206 z "},"ă":{"ha":756,"x_min":51,"x_max":743,"o":"m 743 67 l 574 -22 q 504 8 540 -21 q 447 78 468 36 l 296 -18 l 253 -21 q 108 31 165 -21 q 51 154 51 82 q 160 313 51 254 l 425 319 l 425 443 q 360 585 425 554 q 256 567 296 581 l 231 417 l 114 413 q 83 581 83 489 l 85 608 q 268 667 161 642 q 431 693 375 693 q 531 665 482 693 q 611 593 581 638 q 628 488 626 567 l 628 154 q 663 121 628 121 l 731 129 l 743 67 m 282 103 q 425 138 338 104 l 425 238 l 390 239 q 253 164 253 239 q 282 103 253 126 m 585 985 q 519 819 582 878 q 367 760 457 760 q 212 817 278 760 q 138 983 146 875 l 258 993 q 357 878 272 878 q 422 908 397 878 q 447 992 447 939 l 585 985 z "},"Ą":{"ha":999,"x_min":-28,"x_max":1008,"o":"m 911 0 q 736 -189 736 -100 q 758 -243 736 -222 q 817 -264 779 -264 q 926 -229 867 -264 l 957 -294 l 786 -381 l 764 -382 q 640 -337 688 -382 q 593 -229 593 -292 q 647 -107 593 -168 q 801 0 701 -46 l 569 0 l 561 44 q 682 103 600 68 l 624 253 l 293 253 l 232 89 l 360 71 l 358 0 l -19 0 l -28 44 q 88 100 14 71 l 394 854 l 378 897 l 560 947 l 910 85 l 1008 71 l 1007 0 l 911 0 m 583 358 l 458 686 l 333 358 l 583 358 z "},"ą":{"ha":736,"x_min":51,"x_max":743,"o":"m 500 -156 q 522 -210 500 -189 q 581 -231 543 -231 q 692 -196 632 -231 l 721 -261 l 550 -347 l 528 -349 q 404 -303 451 -349 q 357 -197 357 -258 q 510 4 357 -83 q 447 78 469 33 l 296 -18 l 253 -21 q 108 31 165 -21 q 51 154 51 82 q 160 313 51 254 l 425 319 l 425 443 q 360 585 425 554 q 256 567 296 581 l 231 417 l 114 413 q 83 581 83 489 l 85 608 q 268 667 161 642 q 431 693 375 693 q 531 665 482 693 q 611 593 581 638 q 628 488 626 567 l 628 154 q 663 121 628 121 l 731 129 l 743 67 l 644 15 q 500 -156 500 -78 m 282 103 q 425 138 338 104 l 425 238 l 390 239 q 253 164 253 239 q 282 103 253 126 z "},"Ć":{"ha":808,"x_min":15,"x_max":792,"o":"m 792 100 l 507 -22 q 226 39 336 -28 q 65 213 115 106 q 15 446 15 321 q 68 688 15 574 q 226 872 121 801 q 482 942 332 942 q 768 854 643 942 q 763 735 771 810 q 738 604 754 660 l 610 604 l 576 778 q 367 819 481 819 q 265 675 299 768 q 231 479 231 582 q 311 217 231 314 q 529 124 392 119 l 758 199 l 792 100 m 603 1247 l 683 1093 l 333 956 l 274 1057 l 603 1247 z "},"ć":{"ha":621,"x_min":19,"x_max":614,"o":"m 403 -19 l 360 -22 q 116 76 213 -22 q 19 329 19 175 q 116 588 19 488 q 360 689 213 689 q 513 650 444 689 q 614 539 582 611 l 463 435 q 290 575 381 546 q 217 364 217 496 q 270 185 217 254 q 421 117 324 117 q 571 154 492 117 l 600 85 l 403 -19 m 222 819 l 431 1067 l 564 951 q 349 758 499 897 l 326 736 l 222 819 z "},"Č":{"ha":808,"x_min":15,"x_max":792,"o":"m 792 100 l 507 -22 q 226 39 336 -28 q 65 213 115 106 q 15 446 15 321 q 68 688 15 574 q 226 872 121 801 q 482 942 332 942 q 768 854 643 942 q 763 735 771 810 q 738 604 754 660 l 610 604 l 576 778 q 367 819 481 819 q 265 675 299 768 q 231 479 231 582 q 311 217 231 314 q 529 124 392 119 l 758 199 l 792 100 m 456 1097 l 643 1258 l 724 1178 l 524 986 l 375 983 l 176 1160 l 275 1256 l 456 1097 z "},"č":{"ha":621,"x_min":19,"x_max":614,"o":"m 403 -19 l 360 -22 q 116 76 213 -22 q 19 329 19 175 q 116 588 19 488 q 360 689 213 689 q 513 650 444 689 q 614 539 582 611 l 463 435 q 290 575 381 546 q 217 364 217 496 q 270 185 217 254 q 421 117 324 117 q 571 154 492 117 l 600 85 l 403 -19 m 356 864 l 514 1057 l 606 979 l 428 750 l 275 747 l 78 957 l 188 1056 l 356 864 z "},"Ď":{"ha":981,"x_min":36,"x_max":961,"o":"m 503 925 q 749 858 646 925 q 907 686 853 792 q 961 464 961 581 q 835 133 961 261 q 501 0 710 6 l 44 0 l 36 44 q 154 101 76 71 l 154 831 l 56 843 l 57 914 q 503 925 257 925 m 471 115 q 665 211 590 115 q 739 456 739 307 q 691 671 739 571 q 567 817 643 771 l 365 796 l 365 132 q 471 115 422 115 m 475 1097 l 663 1258 l 743 1178 l 543 986 l 394 983 l 196 1160 l 294 1256 l 475 1097 z "},"ď":{"ha":979,"x_min":19,"x_max":986,"o":"m 790 67 l 619 -22 q 547 12 585 -21 q 489 90 508 44 l 332 -22 q 108 76 197 -24 q 19 325 19 175 q 122 585 19 482 q 383 688 225 688 q 472 676 428 688 l 472 896 l 368 907 l 358 974 q 606 1022 478 1019 l 674 960 l 674 158 q 708 121 674 121 l 778 129 l 790 67 m 231 346 q 272 194 231 254 q 385 133 313 133 q 472 154 422 133 l 472 539 q 340 572 406 572 l 315 571 q 231 346 231 492 m 942 1122 q 986 996 986 1065 q 826 714 986 850 l 761 769 q 828 929 828 865 q 786 993 828 978 l 783 1050 l 942 1122 z "},"Đ":{"ha":1013,"x_min":19,"x_max":961,"o":"m 503 925 q 749 858 646 925 q 907 686 853 792 q 961 464 961 581 q 835 133 961 261 q 501 0 710 6 l 44 0 l 36 44 q 154 101 76 71 l 154 381 l 28 381 l 19 426 l 79 486 l 154 486 l 154 831 l 56 843 l 57 914 q 503 925 257 925 m 471 115 q 665 211 590 115 q 739 456 739 307 q 691 671 739 571 q 567 817 643 771 l 365 796 l 365 486 l 554 486 l 563 440 l 503 381 l 365 381 l 365 132 q 471 115 422 115 z "},"đ":{"ha":814,"x_min":19,"x_max":807,"o":"m 708 121 l 778 129 l 790 67 l 619 -22 q 547 12 585 -21 q 489 90 508 44 l 332 -22 q 108 76 197 -24 q 19 325 19 175 q 122 585 19 482 q 383 688 225 688 q 472 676 428 688 l 472 746 l 313 746 l 304 792 l 364 838 l 472 838 l 472 896 l 368 907 l 358 974 q 606 1022 478 1019 l 674 960 l 674 838 l 799 838 l 807 792 l 747 746 l 674 746 l 674 153 q 708 121 674 121 m 231 346 q 272 194 231 254 q 385 133 313 133 q 472 154 422 133 l 472 539 q 340 572 406 572 l 315 571 q 231 346 231 492 z "},"Ē":{"ha":857,"x_min":36,"x_max":790,"o":"m 788 276 q 771 0 790 140 l 44 0 l 36 44 q 154 101 76 71 l 154 831 l 51 843 l 53 914 l 778 914 q 756 650 785 800 l 639 650 l 615 788 l 365 806 l 365 507 l 664 531 l 664 390 l 365 403 l 365 115 l 625 133 l 671 285 l 788 276 m 722 1154 l 729 1089 l 664 1031 l 169 1031 l 161 1119 q 318 1154 229 1154 l 722 1154 z "},"ē":{"ha":672,"x_min":19,"x_max":647,"o":"m 567 331 l 213 335 q 276 175 218 232 q 425 118 335 118 q 603 168 500 118 l 632 94 l 414 -18 l 369 -21 q 118 76 217 -21 q 19 321 19 172 q 119 583 19 476 q 363 689 219 689 q 567 612 488 689 q 647 411 647 535 l 567 331 m 314 583 q 221 431 242 542 l 461 443 q 410 543 451 503 q 314 583 369 583 m 617 904 l 624 839 l 558 781 l 133 781 l 125 869 q 282 904 193 904 l 617 904 z "},"Ė":{"ha":857,"x_min":36,"x_max":790,"o":"m 788 276 q 771 0 790 140 l 44 0 l 36 44 q 154 101 76 71 l 154 831 l 51 843 l 53 914 l 778 914 q 756 650 785 800 l 639 650 l 615 788 l 365 806 l 365 507 l 664 531 l 664 390 l 365 403 l 365 115 l 625 133 l 671 285 l 788 276 m 544 1129 q 446 1013 522 1050 q 324 1111 360 1038 q 426 1247 335 1197 q 503 1198 469 1231 q 544 1129 536 1165 z "},"ė":{"ha":672,"x_min":19,"x_max":647,"o":"m 567 331 l 213 335 q 276 175 218 232 q 425 118 335 118 q 603 168 500 118 l 632 94 l 414 -18 l 369 -21 q 118 76 217 -21 q 19 321 19 172 q 119 583 19 476 q 363 689 219 689 q 567 612 488 689 q 647 411 647 535 l 567 331 m 314 583 q 221 431 242 542 l 461 443 q 410 543 451 503 q 314 583 369 583 m 467 876 q 368 760 444 797 q 246 858 282 785 q 349 994 257 944 q 425 945 392 978 q 467 876 458 913 z "},"Ę":{"ha":860,"x_min":36,"x_max":817,"o":"m 817 -296 l 646 -382 l 624 -383 q 500 -338 547 -383 q 453 -231 453 -293 q 507 -107 453 -168 q 664 0 561 -46 l 44 0 l 36 44 q 154 101 76 71 l 154 831 l 51 843 l 53 914 l 778 914 q 756 650 785 800 l 639 650 l 615 788 l 365 806 l 365 507 l 664 531 l 664 390 l 365 403 l 365 115 l 625 133 l 671 285 l 788 276 q 771 1 790 142 l 774 0 q 596 -190 596 -99 q 617 -244 596 -224 q 676 -265 639 -265 q 786 -231 726 -265 l 817 -296 z "},"ę":{"ha":694,"x_min":19,"x_max":647,"o":"m 567 331 l 213 335 q 276 175 218 232 q 425 118 335 118 q 603 168 500 118 l 632 94 l 571 61 q 394 -129 394 -40 q 415 -183 394 -162 q 474 -204 436 -204 q 585 -169 525 -204 l 614 -235 l 443 -321 l 421 -322 q 297 -277 344 -322 q 250 -169 250 -232 q 332 -18 250 -92 q 106 88 193 -6 q 19 321 19 182 q 119 583 19 476 q 363 689 219 689 q 567 612 488 689 q 647 411 647 535 l 567 331 m 314 583 q 221 431 242 542 l 461 443 q 410 543 451 503 q 314 583 369 583 z "},"Ě":{"ha":857,"x_min":36,"x_max":790,"o":"m 788 276 q 771 0 790 140 l 44 0 l 36 44 q 154 101 76 71 l 154 831 l 51 843 l 53 914 l 778 914 q 756 650 785 800 l 639 650 l 615 788 l 365 806 l 365 507 l 664 531 l 664 390 l 365 403 l 365 115 l 625 133 l 671 285 l 788 276 m 433 1097 l 621 1258 l 701 1178 l 501 986 l 353 983 l 154 1160 l 253 1256 l 433 1097 z "},"ě":{"ha":672,"x_min":19,"x_max":647,"o":"m 567 331 l 213 335 q 276 175 218 232 q 425 118 335 118 q 603 168 500 118 l 632 94 l 414 -18 l 369 -21 q 118 76 217 -21 q 19 321 19 172 q 119 583 19 476 q 363 689 219 689 q 567 612 488 689 q 647 411 647 535 l 567 331 m 314 583 q 221 431 242 542 l 461 443 q 410 543 451 503 q 314 583 369 583 m 357 864 l 515 1057 l 607 979 l 429 750 l 276 747 l 79 957 l 189 1056 l 357 864 z "},"Ğ":{"ha":965,"x_min":15,"x_max":935,"o":"m 829 332 l 829 96 l 533 -28 l 492 -29 q 222 40 329 -29 q 65 215 114 108 q 15 439 15 322 q 74 686 15 571 q 248 872 133 801 q 522 942 363 942 q 818 857 699 942 l 819 829 q 789 621 819 731 l 663 621 l 629 776 q 408 821 524 821 l 375 819 q 267 674 303 768 q 231 467 231 579 q 309 210 231 311 q 514 108 388 110 q 635 119 560 107 l 635 311 q 496 374 561 338 l 504 421 l 933 421 l 935 354 l 829 332 m 708 1206 q 639 1048 700 1103 q 490 993 578 993 q 338 1049 401 993 q 261 1203 274 1104 l 385 1214 q 479 1110 396 1110 q 571 1213 563 1110 l 708 1206 z "},"ğ":{"ha":790,"x_min":28,"x_max":772,"o":"m 772 592 l 742 593 q 640 575 686 593 q 679 454 679 521 q 588 282 679 349 q 363 215 497 215 l 315 218 l 243 156 q 486 130 353 154 q 721 72 619 106 q 735 -10 735 32 q 610 -239 735 -142 q 317 -336 485 -336 q 115 -284 200 -336 q 28 -128 31 -232 l 181 10 l 93 15 l 65 104 q 221 238 138 183 q 96 323 142 265 q 50 453 50 381 q 141 626 50 557 q 367 696 232 696 q 560 647 479 696 q 738 771 607 760 l 772 592 m 428 315 q 481 442 481 354 q 443 551 481 504 q 347 599 406 599 q 286 585 318 599 q 247 458 247 546 q 281 349 247 392 q 372 306 314 306 q 428 315 394 306 m 344 -181 q 492 -153 419 -181 q 597 -75 564 -125 q 264 1 472 -22 q 189 -100 189 -56 q 233 -159 189 -137 q 344 -181 276 -181 m 589 985 q 524 819 586 878 q 371 760 461 760 q 216 817 282 760 q 142 983 150 875 l 263 993 q 361 878 276 878 q 426 908 401 878 q 451 992 451 939 l 589 985 z "},"Ģ":{"ha":965,"x_min":15,"x_max":935,"o":"m 829 332 l 829 96 l 533 -28 l 492 -29 q 222 40 329 -29 q 65 215 114 108 q 15 439 15 322 q 74 686 15 571 q 248 872 133 801 q 522 942 363 942 q 818 857 699 942 l 819 829 q 789 621 819 731 l 663 621 l 629 776 q 408 821 524 821 l 375 819 q 267 674 303 768 q 231 467 231 579 q 309 210 231 311 q 514 108 388 110 q 635 119 560 107 l 635 311 q 496 374 561 338 l 504 421 l 933 421 l 935 354 l 829 332 m 511 -89 q 581 -196 581 -124 q 541 -315 581 -251 q 454 -414 501 -379 l 386 -368 q 432 -261 432 -310 q 396 -194 432 -221 l 393 -149 l 511 -89 z "},"ģ":{"ha":790,"x_min":28,"x_max":772,"o":"m 772 592 l 742 593 q 640 575 686 593 q 679 454 679 521 q 588 282 679 349 q 363 215 497 215 l 315 218 l 243 156 q 486 130 353 154 q 721 72 619 106 q 735 -10 735 32 q 610 -239 735 -142 q 317 -336 485 -336 q 115 -284 200 -336 q 28 -128 31 -232 l 181 10 l 93 15 l 65 104 q 221 238 138 183 q 96 323 142 265 q 50 453 50 381 q 141 626 50 557 q 367 696 232 696 q 560 647 479 696 q 738 771 607 760 l 772 592 m 428 315 q 481 442 481 354 q 443 551 481 504 q 347 599 406 599 q 286 585 318 599 q 247 458 247 546 q 281 349 247 392 q 372 306 314 306 q 428 315 394 306 m 344 -181 q 492 -153 419 -181 q 597 -75 564 -125 q 264 1 472 -22 q 189 -100 189 -56 q 233 -159 189 -137 q 344 -181 276 -181 m 449 1057 q 518 950 518 1022 q 478 831 518 894 q 392 732 439 767 l 324 778 q 369 885 369 836 q 333 951 369 925 l 331 997 l 449 1057 z "},"Ī":{"ha":557,"x_min":44,"x_max":518,"o":"m 53 1008 l 44 1097 q 201 1132 113 1132 l 511 1132 l 518 1067 l 453 1008 l 53 1008 m 376 89 l 504 71 l 503 0 l 56 0 l 47 44 q 165 101 88 71 l 165 828 l 58 843 l 60 914 l 485 914 l 493 869 q 376 813 442 839 l 376 89 z "},"ī":{"ha":474,"x_min":19,"x_max":451,"o":"m 386 796 l 28 796 l 19 885 q 176 919 88 919 l 444 919 l 451 854 l 386 796 m 350 106 q 435 68 399 90 l 429 0 l 51 0 l 47 47 q 149 92 85 68 l 149 553 l 44 565 l 35 632 q 282 681 154 678 l 350 619 l 350 106 z "},"Į":{"ha":531,"x_min":36,"x_max":493,"o":"m 381 0 q 206 -189 206 -100 q 227 -243 206 -222 q 286 -264 249 -264 q 396 -229 336 -264 l 426 -294 l 256 -381 l 233 -382 q 110 -337 157 -382 q 63 -229 63 -292 q 117 -107 63 -168 q 271 0 171 -46 l 44 0 l 36 44 q 154 101 76 71 l 154 828 l 47 843 l 49 914 l 474 914 l 482 869 q 365 813 431 839 l 365 89 l 493 71 l 492 0 l 381 0 z "},"į":{"ha":464,"x_min":13,"x_max":432,"o":"m 238 775 q 92 888 150 814 q 211 1035 138 979 q 351 913 294 990 q 238 775 313 829 m 432 -289 l 261 -375 l 239 -376 q 115 -331 163 -376 q 68 -225 68 -286 q 119 -105 68 -164 q 265 0 169 -46 l 25 0 l 21 47 q 126 93 63 71 l 126 558 l 22 571 l 13 638 q 260 686 132 683 l 328 625 l 328 110 q 429 68 393 89 l 424 0 l 376 0 q 211 -183 211 -99 q 233 -237 211 -217 q 292 -258 254 -258 q 403 -224 343 -258 l 432 -289 z "},"İ":{"ha":531,"x_min":36,"x_max":493,"o":"m 493 71 l 492 0 l 44 0 l 36 44 q 154 101 76 71 l 154 828 l 47 843 l 49 914 l 474 914 l 482 869 q 365 813 431 839 l 365 89 l 493 71 m 374 1129 q 275 1013 351 1050 q 153 1111 189 1038 q 256 1247 164 1197 q 332 1198 299 1231 q 374 1129 365 1165 z "},"ı":{"ha":435,"x_min":13,"x_max":413,"o":"m 328 106 q 413 68 376 90 l 407 0 l 29 0 l 25 47 q 126 92 63 68 l 126 553 l 22 565 l 13 632 q 260 681 132 678 l 328 619 l 328 106 z "},"Ķ":{"ha":999,"x_min":36,"x_max":986,"o":"m 986 72 l 985 0 l 706 0 l 422 397 l 365 338 l 365 88 l 482 71 l 481 0 l 44 0 l 36 44 q 154 101 76 71 l 154 828 l 46 843 l 47 914 l 474 914 l 482 869 q 365 813 431 839 l 365 501 l 672 829 l 581 843 l 582 914 l 926 914 l 935 869 q 819 818 906 850 l 560 543 l 900 86 l 986 72 m 565 -89 q 635 -196 635 -124 q 595 -315 635 -251 q 508 -414 556 -379 l 440 -368 q 486 -261 486 -310 q 450 -194 486 -221 l 447 -149 l 565 -89 z "},"ķ":{"ha":847,"x_min":13,"x_max":814,"o":"m 814 29 l 589 -12 q 510 74 556 4 l 389 269 l 328 265 l 328 103 q 404 68 375 86 l 399 0 l 28 0 l 24 47 q 126 92 63 69 l 126 896 l 22 907 l 13 974 q 260 1022 132 1019 l 328 961 l 328 338 l 379 371 l 535 565 l 438 571 l 428 638 q 701 686 549 679 l 757 600 l 549 349 l 685 150 q 776 103 721 103 l 801 104 l 814 29 m 450 -89 q 519 -196 519 -124 q 480 -315 519 -251 q 393 -414 440 -379 l 325 -368 q 371 -261 371 -310 q 335 -194 371 -221 l 332 -149 l 450 -89 z "},"Ĺ":{"ha":828,"x_min":36,"x_max":818,"o":"m 818 269 q 800 0 818 103 l 44 0 l 36 44 q 154 101 76 71 l 154 828 l 47 843 l 49 914 l 474 914 l 482 869 q 365 813 431 839 l 365 117 l 643 139 l 697 331 l 818 319 l 818 269 m 418 1247 l 499 1093 l 149 956 l 89 1057 l 418 1247 z "},"ĺ":{"ha":464,"x_min":13,"x_max":447,"o":"m 328 110 q 429 68 393 89 l 424 0 l 25 0 l 21 47 q 126 93 63 71 l 126 896 l 22 907 l 13 974 q 260 1022 132 1019 l 328 961 l 328 110 m 367 1365 l 447 1211 l 97 1074 l 38 1175 l 367 1365 z "},"Ļ":{"ha":828,"x_min":36,"x_max":818,"o":"m 818 269 q 800 0 818 103 l 44 0 l 36 44 q 154 101 76 71 l 154 828 l 47 843 l 49 914 l 474 914 l 482 869 q 365 813 431 839 l 365 117 l 643 139 l 697 331 l 818 319 l 818 269 m 447 -89 q 517 -196 517 -124 q 477 -315 517 -251 q 390 -414 438 -379 l 322 -368 q 368 -261 368 -310 q 332 -194 368 -221 l 329 -149 l 447 -89 z "},"ļ":{"ha":464,"x_min":13,"x_max":429,"o":"m 328 110 q 429 68 393 89 l 424 0 l 25 0 l 21 47 q 126 93 63 71 l 126 896 l 22 907 l 13 974 q 260 1022 132 1019 l 328 961 l 328 110 m 267 -89 q 336 -196 336 -124 q 297 -315 336 -251 q 210 -414 257 -379 l 142 -368 q 188 -261 188 -310 q 151 -194 188 -221 l 149 -149 l 267 -89 z "},"Ľ":{"ha":838,"x_min":36,"x_max":818,"o":"m 818 269 q 800 0 818 103 l 44 0 l 36 44 q 154 101 76 71 l 154 828 l 47 843 l 49 914 l 474 914 l 482 869 q 365 813 431 839 l 365 117 l 643 139 l 697 331 l 818 319 l 818 269 m 765 1056 q 810 929 810 999 q 650 647 810 783 l 585 703 q 651 863 651 799 q 610 926 651 911 l 607 983 l 765 1056 z "},"ľ":{"ha":646,"x_min":13,"x_max":642,"o":"m 328 110 q 429 68 393 89 l 424 0 l 25 0 l 21 47 q 126 93 63 71 l 126 896 l 22 907 l 13 974 q 260 1022 132 1019 l 328 961 l 328 110 m 597 1108 q 642 982 642 1051 q 482 700 642 836 l 417 756 q 483 915 483 851 q 442 979 483 964 l 439 1036 l 597 1108 z "},"Ł":{"ha":849,"x_min":39,"x_max":843,"o":"m 843 269 q 825 0 843 103 l 69 0 l 61 44 q 179 101 101 71 l 179 342 l 81 292 l 39 376 l 179 447 l 179 828 l 72 843 l 74 914 l 499 914 l 507 869 q 390 813 456 839 l 390 554 l 558 639 l 582 606 l 563 533 l 390 447 l 390 117 l 668 139 l 722 331 l 843 319 l 843 269 z "},"ł":{"ha":565,"x_min":13,"x_max":492,"o":"m 358 518 l 358 110 q 460 68 424 89 l 454 0 l 56 0 l 51 47 q 157 93 93 71 l 157 413 l 58 361 l 13 449 l 157 525 l 157 896 l 53 907 l 43 974 q 290 1022 163 1019 l 358 961 l 358 631 l 457 682 l 492 658 l 490 586 l 358 518 z "},"Ń":{"ha":1075,"x_min":36,"x_max":1038,"o":"m 1038 869 q 925 814 994 843 l 919 0 l 724 -18 l 285 656 l 306 485 l 306 89 l 428 71 l 426 0 l 44 0 l 36 44 q 154 101 76 71 l 154 828 l 57 843 l 58 914 l 367 914 l 365 913 l 794 242 l 774 418 l 774 824 l 639 843 l 640 914 l 1029 914 l 1038 869 m 657 1247 l 738 1093 l 388 956 l 328 1057 l 657 1247 z "},"ń":{"ha":865,"x_min":13,"x_max":849,"o":"m 750 108 q 849 68 818 88 l 843 0 l 476 0 l 472 47 l 549 82 l 549 401 q 458 538 549 538 q 328 489 415 538 l 328 106 q 413 68 376 90 l 407 0 l 29 0 l 25 47 q 126 92 63 68 l 126 558 l 22 571 l 13 638 q 260 686 132 683 l 328 619 l 328 556 q 563 682 468 658 q 682 639 626 678 q 746 539 738 600 l 750 460 l 750 108 m 301 819 l 510 1067 l 643 951 q 428 758 578 897 l 406 736 l 301 819 z "},"Ņ":{"ha":1075,"x_min":36,"x_max":1038,"o":"m 1038 869 q 925 814 994 843 l 919 0 l 724 -18 l 285 656 l 306 485 l 306 89 l 428 71 l 426 0 l 44 0 l 36 44 q 154 101 76 71 l 154 828 l 57 843 l 58 914 l 367 914 l 365 913 l 794 242 l 774 418 l 774 824 l 639 843 l 640 914 l 1029 914 l 1038 869 m 568 -89 q 638 -196 638 -124 q 598 -315 638 -251 q 511 -414 558 -379 l 443 -368 q 489 -261 489 -310 q 453 -194 489 -221 l 450 -149 l 568 -89 z "},"ņ":{"ha":865,"x_min":13,"x_max":849,"o":"m 750 108 q 849 68 818 88 l 843 0 l 476 0 l 472 47 l 549 82 l 549 401 q 458 538 549 538 q 328 489 415 538 l 328 106 q 413 68 376 90 l 407 0 l 29 0 l 25 47 q 126 92 63 68 l 126 558 l 22 571 l 13 638 q 260 686 132 683 l 328 619 l 328 556 q 563 682 468 658 q 682 639 626 678 q 746 539 738 600 l 750 460 l 750 108 m 476 -89 q 546 -196 546 -124 q 506 -315 546 -251 q 419 -414 467 -379 l 351 -368 q 397 -261 397 -310 q 361 -194 397 -221 l 358 -149 l 476 -89 z "},"Ň":{"ha":1075,"x_min":36,"x_max":1038,"o":"m 1038 869 q 925 814 994 843 l 919 0 l 724 -18 l 285 656 l 306 485 l 306 89 l 428 71 l 426 0 l 44 0 l 36 44 q 154 101 76 71 l 154 828 l 57 843 l 58 914 l 367 914 l 365 913 l 794 242 l 774 418 l 774 824 l 639 843 l 640 914 l 1029 914 l 1038 869 m 511 1097 l 699 1258 l 779 1178 l 579 986 l 431 983 l 232 1160 l 331 1256 l 511 1097 z "},"ň":{"ha":865,"x_min":13,"x_max":849,"o":"m 750 108 q 849 68 818 88 l 843 0 l 476 0 l 472 47 l 549 82 l 549 401 q 458 538 549 538 q 328 489 415 538 l 328 106 q 413 68 376 90 l 407 0 l 29 0 l 25 47 q 126 92 63 68 l 126 558 l 22 571 l 13 638 q 260 686 132 683 l 328 619 l 328 556 q 563 682 468 658 q 682 639 626 678 q 746 539 738 600 l 750 460 l 750 108 m 435 864 l 593 1057 l 685 979 l 507 750 l 354 747 l 157 957 l 267 1056 l 435 864 z "},"Ō":{"ha":938,"x_min":19,"x_max":918,"o":"m 464 942 q 790 803 663 942 q 918 444 918 665 q 794 102 918 232 q 475 -28 669 -28 q 147 104 275 -28 q 19 451 19 236 q 145 805 19 668 q 464 942 271 942 m 344 800 q 270 674 299 761 q 242 476 242 586 q 308 201 242 308 q 499 94 375 94 q 578 107 531 94 q 663 239 631 149 q 694 440 694 329 q 626 714 694 608 q 446 819 558 819 q 344 800 399 819 m 758 1154 l 765 1089 l 700 1031 l 206 1031 l 197 1119 q 354 1154 265 1154 l 758 1154 z "},"ō":{"ha":715,"x_min":19,"x_max":689,"o":"m 19 335 q 19 413 19 335 q 116 590 19 492 q 357 689 213 689 q 595 588 501 689 q 689 328 689 488 q 597 69 689 167 q 361 -28 504 -28 q 117 75 215 -28 q 19 335 19 178 m 418 93 q 483 311 483 139 q 449 498 483 425 q 346 571 415 571 q 275 551 304 571 q 225 338 225 485 q 261 156 225 226 q 371 86 297 86 q 418 93 396 86 m 617 904 l 624 839 l 558 781 l 133 781 l 125 869 q 282 904 193 904 l 617 904 z "},"Ő":{"ha":938,"x_min":19,"x_max":918,"o":"m 464 942 q 790 803 663 942 q 918 444 918 665 q 794 102 918 232 q 475 -28 669 -28 q 147 104 275 -28 q 19 451 19 236 q 145 805 19 668 q 464 942 271 942 m 344 800 q 270 674 299 761 q 242 476 242 586 q 308 201 242 308 q 499 94 375 94 q 578 107 531 94 q 663 239 631 149 q 694 440 694 329 q 626 714 694 608 q 446 819 558 819 q 344 800 399 819 m 447 1289 l 574 1188 q 331 988 471 1108 l 240 1067 l 447 1289 m 726 1276 l 851 1175 q 610 975 764 1107 l 518 1054 l 726 1276 z "},"ő":{"ha":715,"x_min":19,"x_max":724,"o":"m 19 335 q 19 413 19 335 q 116 590 19 492 q 357 689 213 689 q 595 588 501 689 q 689 328 689 488 q 597 69 689 167 q 361 -28 504 -28 q 117 75 215 -28 q 19 335 19 178 m 418 93 q 483 311 483 139 q 449 498 483 425 q 346 571 415 571 q 275 551 304 571 q 225 338 225 485 q 261 156 225 226 q 371 86 297 86 q 418 93 396 86 m 308 1056 l 446 965 q 217 738 351 879 l 119 808 l 308 1056 m 588 1056 l 724 965 q 496 738 644 892 l 397 808 l 588 1056 z "},"Œ":{"ha":1325,"x_min":49,"x_max":1279,"o":"m 1276 276 q 1260 0 1279 140 l 667 0 q 511 -21 599 -21 q 286 32 392 -21 q 115 193 181 85 q 49 461 49 301 q 118 722 49 614 q 297 883 188 829 q 529 936 407 936 q 682 914 611 936 l 1265 914 q 1243 650 1272 800 l 1126 650 l 1103 785 l 847 799 l 847 507 l 1140 531 l 1140 390 l 847 403 l 847 121 l 1114 135 l 1160 285 l 1276 276 m 264 463 q 334 201 264 300 q 524 101 404 101 q 636 122 586 101 l 636 788 q 504 811 579 811 q 383 793 438 811 q 296 658 328 749 q 264 463 264 567 z "},"œ":{"ha":1136,"x_min":19,"x_max":1113,"o":"m 1031 331 l 672 335 q 734 174 675 229 q 888 118 793 118 q 1067 168 967 118 l 1097 94 l 879 -18 l 839 -19 q 597 72 697 -19 q 361 -28 503 -28 q 117 75 215 -28 q 19 335 19 178 q 116 590 19 492 q 357 689 213 689 q 593 589 499 689 q 826 689 693 689 q 1032 611 951 689 q 1111 411 1113 533 l 1031 331 m 778 583 q 682 429 710 542 l 926 443 q 876 543 917 503 q 778 583 835 583 m 418 93 q 483 313 483 139 q 449 499 483 426 q 346 571 415 571 q 275 551 304 571 q 225 338 225 485 q 261 156 225 226 q 371 86 297 86 q 418 93 396 86 z "},"Ŕ":{"ha":961,"x_min":36,"x_max":949,"o":"m 949 71 l 947 0 l 669 0 l 481 354 l 365 353 l 365 89 l 490 71 l 489 0 l 44 0 l 36 44 q 154 101 76 71 l 154 831 l 51 843 l 53 914 l 496 925 q 758 844 656 925 q 860 643 860 764 q 810 491 860 561 q 674 385 760 421 l 860 82 l 949 71 m 365 469 q 456 460 413 460 q 598 510 554 460 q 642 639 642 560 q 558 817 642 761 l 365 796 l 365 469 m 589 1247 l 669 1093 l 319 956 l 260 1057 l 589 1247 z "},"ŕ":{"ha":656,"x_min":13,"x_max":653,"o":"m 467 667 q 536 679 500 679 q 653 638 608 679 q 601 375 646 485 l 496 375 l 468 531 q 328 396 392 474 l 328 115 q 478 68 425 96 l 472 0 l 28 0 l 24 47 q 126 92 63 69 l 126 558 l 22 571 l 13 638 q 260 686 132 683 l 328 625 l 328 511 l 467 667 m 217 819 l 425 1067 l 558 951 q 343 758 493 897 l 321 736 l 217 819 z "},"Ŗ":{"ha":961,"x_min":36,"x_max":949,"o":"m 949 71 l 947 0 l 669 0 l 481 354 l 365 353 l 365 89 l 490 71 l 489 0 l 44 0 l 36 44 q 154 101 76 71 l 154 831 l 51 843 l 53 914 l 496 925 q 758 844 656 925 q 860 643 860 764 q 810 491 860 561 q 674 385 760 421 l 860 82 l 949 71 m 365 469 q 456 460 413 460 q 598 510 554 460 q 642 639 642 560 q 558 817 642 761 l 365 796 l 365 469 m 494 -89 q 564 -196 564 -124 q 524 -315 564 -251 q 438 -414 485 -379 l 369 -368 q 415 -261 415 -310 q 379 -194 415 -221 l 376 -149 l 494 -89 z "},"ŗ":{"ha":656,"x_min":13,"x_max":653,"o":"m 467 667 q 536 679 500 679 q 653 638 608 679 q 601 375 646 485 l 496 375 l 468 531 q 328 396 392 474 l 328 115 q 478 68 425 96 l 472 0 l 28 0 l 24 47 q 126 92 63 69 l 126 558 l 22 571 l 13 638 q 260 686 132 683 l 328 625 l 328 511 l 467 667 m 289 -89 q 358 -196 358 -124 q 319 -315 358 -251 q 232 -414 279 -379 l 164 -368 q 210 -261 210 -310 q 174 -194 210 -221 l 171 -149 l 289 -89 z "},"Ř":{"ha":961,"x_min":36,"x_max":949,"o":"m 949 71 l 947 0 l 669 0 l 481 354 l 365 353 l 365 89 l 490 71 l 489 0 l 44 0 l 36 44 q 154 101 76 71 l 154 831 l 51 843 l 53 914 l 496 925 q 758 844 656 925 q 860 643 860 764 q 810 491 860 561 q 674 385 760 421 l 860 82 l 949 71 m 365 469 q 456 460 413 460 q 598 510 554 460 q 642 639 642 560 q 558 817 642 761 l 365 796 l 365 469 m 443 1097 l 631 1258 l 711 1178 l 511 986 l 363 983 l 164 1160 l 263 1256 l 443 1097 z "},"ř":{"ha":656,"x_min":13,"x_max":653,"o":"m 467 667 q 536 679 500 679 q 653 638 608 679 q 601 375 646 485 l 496 375 l 468 531 q 328 396 392 474 l 328 115 q 478 68 425 96 l 472 0 l 28 0 l 24 47 q 126 92 63 69 l 126 558 l 22 571 l 13 638 q 260 686 132 683 l 328 625 l 328 511 l 467 667 m 350 864 l 508 1057 l 600 979 l 422 750 l 269 747 l 72 957 l 182 1056 l 350 864 z "},"Ś":{"ha":803,"x_min":72,"x_max":749,"o":"m 749 251 q 651 50 749 128 q 404 -28 553 -28 q 229 -3 324 -28 q 74 61 135 21 l 72 100 q 94 319 72 215 l 194 319 l 263 125 q 463 85 350 85 q 539 201 539 121 q 449 325 539 275 l 240 431 q 75 668 75 525 q 175 865 75 789 q 432 942 275 942 q 707 892 571 942 q 683 638 707 744 l 572 638 l 532 793 q 339 832 451 835 q 275 719 275 792 q 312 644 275 678 q 462 558 349 610 q 628 470 575 507 q 715 380 682 433 q 749 251 749 326 m 560 1247 l 640 1093 l 290 956 l 231 1057 l 560 1247 z "},"ś":{"ha":619,"x_min":28,"x_max":572,"o":"m 232 524 q 253 472 232 494 q 385 397 275 450 q 533 294 494 343 q 572 183 572 246 q 498 31 572 90 q 303 -28 424 -28 q 28 46 167 -28 l 97 208 q 356 79 225 114 q 385 142 385 104 q 360 197 385 174 q 229 272 335 221 q 87 370 124 324 q 50 478 50 417 q 132 631 50 572 q 342 689 214 689 q 544 644 461 689 l 546 606 q 522 456 546 525 l 415 456 l 382 578 q 285 589 329 592 q 232 524 232 571 m 193 819 l 401 1067 l 535 951 q 319 758 469 897 l 297 736 l 193 819 z "},"Ş":{"ha":803,"x_min":72,"x_max":749,"o":"m 749 251 q 657 54 749 132 q 421 -28 565 -24 l 389 -81 q 516 -116 468 -81 q 564 -197 564 -151 q 489 -316 564 -267 q 293 -374 414 -365 l 269 -326 q 373 -271 336 -304 q 410 -207 410 -237 q 383 -166 410 -181 q 307 -156 356 -151 l 269 -96 l 331 -24 q 74 61 171 -4 l 72 100 q 94 319 72 215 l 194 319 l 263 125 q 463 85 350 85 q 539 201 539 121 q 449 325 539 275 l 240 431 q 75 668 75 525 q 175 865 75 789 q 432 942 275 942 q 707 892 571 942 q 683 638 707 744 l 572 638 l 532 793 q 339 832 451 835 q 275 719 275 792 q 312 644 275 678 q 462 558 349 610 q 628 470 575 507 q 715 380 682 433 q 749 251 749 326 z "},"ş":{"ha":619,"x_min":28,"x_max":572,"o":"m 572 183 q 510 41 572 99 q 340 -26 447 -17 l 308 -81 q 435 -116 388 -81 q 483 -197 483 -151 q 408 -316 483 -267 q 213 -374 333 -365 l 189 -326 q 292 -271 256 -304 q 329 -207 329 -237 q 302 -166 329 -181 q 226 -156 275 -151 l 189 -96 l 249 -25 q 28 46 136 -11 l 97 208 q 356 79 225 114 q 385 142 385 104 q 360 197 385 174 q 229 272 335 221 q 87 370 124 324 q 50 478 50 417 q 132 631 50 572 q 342 689 214 689 q 544 644 461 689 l 546 606 q 522 456 546 525 l 415 456 l 382 578 q 285 589 329 592 q 232 524 232 571 q 253 472 232 494 q 385 397 275 450 q 533 294 494 343 q 572 183 572 246 z "},"Š":{"ha":803,"x_min":72,"x_max":749,"o":"m 749 251 q 651 50 749 128 q 404 -28 553 -28 q 229 -3 324 -28 q 74 61 135 21 l 72 100 q 94 319 72 215 l 194 319 l 263 125 q 463 85 350 85 q 539 201 539 121 q 449 325 539 275 l 240 431 q 75 668 75 525 q 175 865 75 789 q 432 942 275 942 q 707 892 571 942 q 683 638 707 744 l 572 638 l 532 793 q 339 832 451 835 q 275 719 275 792 q 312 644 275 678 q 462 558 349 610 q 628 470 575 507 q 715 380 682 433 q 749 251 749 326 m 413 1097 l 600 1258 l 681 1178 l 481 986 l 332 983 l 133 1160 l 232 1256 l 413 1097 z "},"š":{"ha":619,"x_min":28,"x_max":576,"o":"m 232 524 q 253 472 232 494 q 385 397 275 450 q 533 294 494 343 q 572 183 572 246 q 498 31 572 90 q 303 -28 424 -28 q 28 46 167 -28 l 97 208 q 356 79 225 114 q 385 142 385 104 q 360 197 385 174 q 229 272 335 221 q 87 370 124 324 q 50 478 50 417 q 132 631 50 572 q 342 689 214 689 q 544 644 461 689 l 546 606 q 522 456 546 525 l 415 456 l 382 578 q 285 589 329 592 q 232 524 232 571 m 326 864 l 485 1057 l 576 979 l 399 750 l 246 747 l 49 957 l 158 1056 l 326 864 z "},"Ţ":{"ha":896,"x_min":11,"x_max":885,"o":"m 883 922 l 885 882 q 861 629 885 739 l 750 629 l 729 804 l 554 818 l 554 92 l 696 71 l 694 0 l 489 0 l 442 -81 q 569 -116 521 -81 q 617 -197 617 -151 q 542 -316 617 -267 q 346 -374 467 -365 l 322 -326 q 426 -271 389 -304 q 463 -207 463 -237 q 435 -166 463 -181 q 360 -156 408 -151 l 322 -96 l 403 0 l 210 0 l 201 44 q 343 107 232 64 l 343 818 l 167 804 l 146 629 l 35 629 q 11 882 11 739 l 13 922 l 450 917 l 883 922 z "},"ţ":{"ha":531,"x_min":11,"x_max":504,"o":"m 303 -12 l 263 -81 q 390 -116 342 -81 q 438 -197 438 -151 q 363 -316 438 -267 q 167 -374 288 -365 l 143 -326 q 247 -271 210 -304 q 283 -207 283 -237 q 256 -166 283 -181 q 181 -156 229 -151 l 143 -96 l 215 -10 q 143 42 172 7 q 114 117 114 78 l 114 517 l 17 515 l 11 588 q 124 654 64 625 l 193 835 l 288 835 l 311 654 l 501 654 l 504 594 l 436 514 l 315 514 l 315 199 q 326 149 315 163 q 365 135 338 135 q 482 153 404 135 l 497 85 l 303 -12 z "},"Ť":{"ha":896,"x_min":11,"x_max":885,"o":"m 883 922 l 885 882 q 861 629 885 739 l 750 629 l 729 804 l 554 818 l 554 92 l 696 71 l 694 0 l 210 0 l 201 44 q 343 107 232 64 l 343 818 l 167 804 l 146 629 l 35 629 q 11 882 11 739 l 13 922 l 450 917 l 883 922 m 449 1097 l 636 1258 l 717 1178 l 517 986 l 368 983 l 169 1160 l 268 1256 l 449 1097 z "},"ť":{"ha":764,"x_min":11,"x_max":764,"o":"m 365 135 q 482 153 404 135 l 497 85 l 283 -22 q 169 18 224 -25 q 114 115 115 61 l 114 517 l 17 515 l 11 588 q 124 654 64 625 l 193 835 l 288 835 l 311 654 l 501 654 l 504 594 l 436 514 l 315 514 l 315 199 q 326 149 315 163 q 365 135 338 135 m 719 1111 q 764 985 764 1054 q 604 703 764 839 l 539 758 q 606 918 606 854 q 564 982 606 967 l 561 1039 l 719 1111 z "},"Ū":{"ha":1024,"x_min":11,"x_max":1011,"o":"m 1011 869 q 894 813 960 839 l 894 397 q 797 74 893 175 q 533 -26 700 -26 q 232 87 343 -26 q 118 399 121 200 l 118 828 l 11 843 l 13 914 l 438 914 l 446 869 q 329 813 394 839 l 329 368 q 389 168 329 236 q 553 100 449 100 q 674 133 621 100 q 744 383 742 197 l 744 826 l 626 843 l 628 914 l 1003 914 l 1011 869 m 804 1154 l 811 1089 l 746 1031 l 251 1031 l 243 1119 q 400 1154 311 1154 l 804 1154 z "},"ū":{"ha":850,"x_min":0,"x_max":842,"o":"m 842 67 l 671 -22 q 597 13 636 -21 q 540 93 558 47 q 303 -22 417 7 q 212 7 260 -19 q 135 76 164 33 q 114 206 115 106 l 114 558 l 10 571 l 0 638 q 247 686 119 683 l 315 625 l 315 244 q 404 124 315 124 q 524 158 454 124 l 524 560 l 436 574 l 426 640 q 657 686 529 681 l 725 625 l 725 158 q 760 121 725 121 l 829 129 l 842 67 m 654 904 l 661 839 l 596 781 l 171 781 l 163 869 q 319 904 231 904 l 654 904 z "},"Ů":{"ha":1024,"x_min":11,"x_max":1011,"o":"m 1011 869 q 894 813 960 839 l 894 397 q 797 74 893 175 q 533 -26 700 -26 q 232 87 343 -26 q 118 399 121 200 l 118 828 l 11 843 l 13 914 l 438 914 l 446 869 q 329 813 394 839 l 329 368 q 389 168 329 236 q 553 100 449 100 q 674 133 621 100 q 744 383 742 197 l 744 826 l 626 843 l 628 914 l 1003 914 l 1011 869 m 350 1150 q 397 1267 350 1219 q 513 1315 443 1315 q 631 1267 583 1315 q 678 1146 678 1219 q 633 1031 678 1076 q 519 986 589 986 q 399 1032 449 986 q 350 1150 350 1078 m 433 1131 q 458 1072 433 1094 q 517 1050 482 1050 q 573 1072 551 1050 q 594 1129 594 1094 q 572 1188 594 1164 q 514 1211 549 1211 q 456 1188 479 1211 q 433 1131 433 1165 z "},"ů":{"ha":850,"x_min":0,"x_max":842,"o":"m 842 67 l 671 -22 q 597 13 636 -21 q 540 93 558 47 q 303 -22 417 7 q 212 7 260 -19 q 135 76 164 33 q 114 206 115 106 l 114 558 l 10 571 l 0 638 q 247 686 119 683 l 315 625 l 315 244 q 404 124 315 124 q 524 158 454 124 l 524 560 l 436 574 l 426 640 q 657 686 529 681 l 725 625 l 725 158 q 760 121 725 121 l 829 129 l 842 67 m 228 897 q 274 1015 228 967 q 390 1063 321 1063 q 508 1015 461 1063 q 556 893 556 967 q 511 778 556 824 q 397 733 467 733 q 277 779 326 733 q 228 897 228 825 m 311 878 q 335 819 311 842 q 394 797 360 797 q 451 819 429 797 q 472 876 472 842 q 449 935 472 911 q 392 958 426 958 q 334 935 357 958 q 311 878 311 913 z "},"Ű":{"ha":1024,"x_min":11,"x_max":1011,"o":"m 1011 869 q 894 813 960 839 l 894 397 q 797 74 893 175 q 533 -26 700 -26 q 232 87 343 -26 q 118 399 121 200 l 118 828 l 11 843 l 13 914 l 438 914 l 446 869 q 329 813 394 839 l 329 368 q 389 168 329 236 q 553 100 449 100 q 674 133 621 100 q 744 383 742 197 l 744 826 l 626 843 l 628 914 l 1003 914 l 1011 869 m 493 1289 l 619 1188 q 376 988 517 1108 l 286 1067 l 493 1289 m 772 1276 l 897 1175 q 656 975 810 1107 l 564 1054 l 772 1276 z "},"ű":{"ha":850,"x_min":0,"x_max":842,"o":"m 842 67 l 671 -22 q 597 13 636 -21 q 540 93 558 47 q 303 -22 417 7 q 212 7 260 -19 q 135 76 164 33 q 114 206 115 106 l 114 558 l 10 571 l 0 638 q 247 686 119 683 l 315 625 l 315 244 q 404 124 315 124 q 524 158 454 124 l 524 560 l 436 574 l 426 640 q 657 686 529 681 l 725 625 l 725 158 q 760 121 725 121 l 829 129 l 842 67 m 346 1056 l 483 965 q 254 738 389 879 l 157 808 l 346 1056 m 625 1056 l 761 965 q 533 738 682 892 l 435 808 l 625 1056 z "},"Ų":{"ha":1024,"x_min":11,"x_max":1011,"o":"m 1011 869 q 894 813 960 839 l 894 393 q 660 -10 890 58 q 501 -189 501 -101 q 523 -243 501 -222 q 582 -264 544 -264 q 692 -229 632 -264 l 722 -294 l 551 -381 l 529 -382 q 406 -337 453 -382 q 358 -229 358 -292 q 515 -26 358 -115 q 224 96 329 -19 q 118 408 118 211 l 118 828 l 11 843 l 13 914 l 438 914 l 446 869 q 329 813 394 839 l 329 368 q 389 168 329 236 q 553 100 449 100 q 674 133 621 100 q 744 383 742 197 l 744 826 l 626 843 l 628 914 l 1003 914 l 1011 869 z "},"ų":{"ha":850,"x_min":0,"x_max":842,"o":"m 593 -156 q 615 -210 593 -189 q 674 -231 636 -231 q 785 -196 725 -231 l 814 -261 l 643 -347 l 621 -349 q 497 -303 544 -349 q 450 -197 450 -258 q 606 6 450 -82 q 540 93 560 44 q 303 -22 417 7 q 212 7 260 -19 q 135 76 164 33 q 114 206 115 106 l 114 558 l 10 571 l 0 638 q 247 686 119 683 l 315 625 l 315 244 q 404 124 315 124 q 524 158 454 124 l 524 560 l 436 574 l 426 640 q 657 686 529 681 l 725 625 l 725 158 q 760 121 725 121 l 829 129 l 842 67 l 717 1 q 593 -156 593 -79 z "},"Ÿ":{"ha":899,"x_min":-3,"x_max":904,"o":"m 551 88 l 667 71 l 665 0 l 242 0 l 233 44 q 346 100 276 71 l 346 343 l 85 831 l -3 843 l -1 914 l 369 914 l 378 869 l 300 829 l 431 583 l 468 465 l 476 465 l 658 828 l 556 843 l 557 914 l 896 914 l 904 869 q 794 815 868 847 l 551 365 l 551 88 m 419 1129 q 319 1013 394 1049 q 199 1111 236 1038 q 301 1247 210 1197 q 419 1129 400 1207 m 739 1129 q 640 1013 714 1049 q 518 1111 556 1038 q 621 1247 529 1197 q 739 1129 719 1207 z "},"Ź":{"ha":878,"x_min":46,"x_max":828,"o":"m 828 292 q 792 0 821 169 l 100 -1 l 101 0 l 46 94 l 569 808 l 260 789 l 217 614 l 100 614 q 85 814 85 696 l 89 914 l 772 914 l 818 821 l 306 122 l 639 131 l 703 310 l 828 292 m 594 1247 l 675 1093 l 325 956 l 265 1057 l 594 1247 z "},"ź":{"ha":707,"x_min":26,"x_max":681,"o":"m 597 240 l 674 226 q 631 -21 668 100 l 169 29 l 103 -24 l 26 40 l 418 574 l 218 551 l 175 411 l 67 411 q 53 569 53 485 l 58 660 l 568 660 l 614 690 l 681 626 l 307 122 l 551 142 l 597 240 m 231 819 l 439 1067 l 572 951 q 357 758 507 897 l 335 736 l 231 819 z "},"Ż":{"ha":878,"x_min":46,"x_max":828,"o":"m 828 292 q 792 0 821 169 l 100 -1 l 101 0 l 46 94 l 569 808 l 260 789 l 217 614 l 100 614 q 85 814 85 696 l 89 914 l 772 914 l 818 821 l 306 122 l 639 131 l 703 310 l 828 292 m 560 1129 q 461 1013 538 1050 q 339 1111 375 1038 q 442 1247 350 1197 q 518 1198 485 1231 q 560 1129 551 1165 z "},"ż":{"ha":707,"x_min":26,"x_max":681,"o":"m 597 240 l 674 226 q 631 -21 668 100 l 169 29 l 103 -24 l 26 40 l 418 574 l 218 551 l 175 411 l 67 411 q 53 569 53 485 l 58 660 l 568 660 l 614 690 l 681 626 l 307 122 l 551 142 l 597 240 m 474 876 q 375 760 451 797 q 253 858 289 785 q 356 994 264 944 q 432 945 399 978 q 474 876 465 913 z "},"Ž":{"ha":878,"x_min":46,"x_max":828,"o":"m 828 292 q 792 0 821 169 l 100 -1 l 101 0 l 46 94 l 569 808 l 260 789 l 217 614 l 100 614 q 85 814 85 696 l 89 914 l 772 914 l 818 821 l 306 122 l 639 131 l 703 310 l 828 292 m 447 1097 l 635 1258 l 715 1178 l 515 986 l 367 983 l 168 1160 l 267 1256 l 447 1097 z "},"ž":{"ha":707,"x_min":26,"x_max":681,"o":"m 597 240 l 674 226 q 631 -21 668 100 l 169 29 l 103 -24 l 26 40 l 418 574 l 218 551 l 175 411 l 67 411 q 53 569 53 485 l 58 660 l 568 660 l 614 690 l 681 626 l 307 122 l 551 142 l 597 240 m 364 864 l 522 1057 l 614 979 l 436 750 l 283 747 l 86 957 l 196 1056 l 364 864 z "},"Ș":{"ha":803,"x_min":72,"x_max":749,"o":"m 749 251 q 651 50 749 128 q 404 -28 553 -28 q 229 -3 324 -28 q 74 61 135 21 l 72 100 q 94 319 72 215 l 194 319 l 263 125 q 463 85 350 85 q 539 201 539 121 q 449 325 539 275 l 240 431 q 75 668 75 525 q 175 865 75 789 q 432 942 275 942 q 707 892 571 942 q 683 638 707 744 l 572 638 l 532 793 q 339 832 451 835 q 275 719 275 792 q 312 644 275 678 q 462 558 349 610 q 628 470 575 507 q 715 380 682 433 q 749 251 749 326 m 424 -89 q 493 -196 493 -124 q 453 -315 493 -251 q 367 -414 414 -379 l 299 -368 q 344 -261 344 -310 q 308 -194 344 -221 l 306 -149 l 424 -89 z "},"ș":{"ha":619,"x_min":28,"x_max":572,"o":"m 232 524 q 253 472 232 494 q 385 397 275 450 q 533 294 494 343 q 572 183 572 246 q 498 31 572 90 q 303 -28 424 -28 q 28 46 167 -28 l 97 208 q 356 79 225 114 q 385 142 385 104 q 360 197 385 174 q 229 272 335 221 q 87 370 124 324 q 50 478 50 417 q 132 631 50 572 q 342 689 214 689 q 544 644 461 689 l 546 606 q 522 456 546 525 l 415 456 l 382 578 q 285 589 329 592 q 232 524 232 571 m 343 -89 q 413 -196 413 -124 q 373 -315 413 -251 q 286 -414 333 -379 l 218 -368 q 264 -261 264 -310 q 228 -194 264 -221 l 225 -149 l 343 -89 z "},"Ț":{"ha":896,"x_min":11,"x_max":885,"o":"m 883 922 l 885 882 q 861 629 885 739 l 750 629 l 729 804 l 554 818 l 554 92 l 696 71 l 694 0 l 210 0 l 201 44 q 343 107 232 64 l 343 818 l 167 804 l 146 629 l 35 629 q 11 882 11 739 l 13 922 l 450 917 l 883 922 m 476 -89 q 546 -196 546 -124 q 506 -315 546 -251 q 419 -414 467 -379 l 351 -368 q 397 -261 397 -310 q 361 -194 397 -221 l 358 -149 l 476 -89 z "},"ț":{"ha":531,"x_min":11,"x_max":504,"o":"m 365 135 q 482 153 404 135 l 497 85 l 283 -22 q 169 18 224 -25 q 114 115 115 61 l 114 517 l 17 515 l 11 588 q 124 654 64 625 l 193 835 l 288 835 l 311 654 l 501 654 l 504 594 l 436 514 l 315 514 l 315 199 q 326 149 315 163 q 365 135 338 135 m 297 -89 q 367 -196 367 -124 q 327 -315 367 -251 q 240 -414 288 -379 l 172 -368 q 218 -261 218 -310 q 182 -194 218 -221 l 179 -149 l 297 -89 z "},"ˆ":{"ha":576,"x_min":38,"x_max":543,"o":"m 218 1019 l 364 1019 l 543 811 l 471 743 l 286 893 l 118 738 l 38 801 l 218 1019 z "},"ˇ":{"ha":601,"x_min":42,"x_max":569,"o":"m 319 868 l 478 1061 l 569 983 l 392 754 l 239 751 l 42 961 l 151 1060 l 319 868 z "},"ˉ":{"ha":0,"x_min":-228,"x_max":271,"o":"m 264 908 l 271 843 l 206 785 l -219 785 l -228 874 q -71 908 -160 908 l 264 908 z "},"˘":{"ha":519,"x_min":44,"x_max":492,"o":"m 492 989 q 426 823 489 882 q 274 764 364 764 q 119 822 185 764 q 44 988 53 879 l 165 997 q 264 882 179 882 q 329 913 304 882 q 354 996 354 943 l 492 989 z "},"˙":{"ha":304,"x_min":42,"x_max":263,"o":"m 263 881 q 164 764 240 801 q 42 863 78 789 q 144 999 53 949 q 221 949 188 982 q 263 881 254 917 z "},"˚":{"ha":406,"x_min":38,"x_max":365,"o":"m 38 1150 q 84 1267 38 1219 q 200 1315 131 1315 q 318 1267 271 1315 q 365 1146 365 1219 q 321 1031 365 1076 q 207 986 276 986 q 87 1032 136 986 q 38 1150 38 1078 m 121 1131 q 145 1072 121 1094 q 204 1050 169 1050 q 260 1072 239 1050 q 282 1129 282 1094 q 259 1188 282 1164 q 201 1211 236 1211 q 144 1188 167 1211 q 121 1131 121 1165 z "},"˛":{"ha":408,"x_min":42,"x_max":406,"o":"m 363 32 q 185 -158 185 -71 q 206 -212 185 -192 q 265 -233 228 -233 q 376 -199 317 -233 l 406 -264 l 235 -350 l 213 -351 q 89 -306 136 -351 q 42 -200 42 -261 q 115 -57 42 -126 q 324 60 189 13 l 363 32 z "},"˜":{"ha":688,"x_min":47,"x_max":639,"o":"m 47 819 q 154 971 113 928 q 242 1014 196 1014 q 463 889 293 1014 l 572 1003 l 639 954 q 461 756 533 756 q 342 813 426 756 q 235 871 257 871 q 117 765 204 871 l 47 819 z "},"˝":{"ha":694,"x_min":42,"x_max":646,"o":"m 231 1060 l 368 969 q 139 742 274 883 l 42 813 l 231 1060 m 510 1060 l 646 969 q 418 742 567 896 l 319 813 l 510 1060 z "},"π":{"ha":1010,"x_min":42,"x_max":974,"o":"m 919 508 l 804 514 l 849 0 l 701 -4 l 638 43 l 633 522 l 485 529 l 475 286 q 414 44 465 111 q 260 -22 363 -22 q 61 18 167 -22 l 124 172 l 256 78 q 276 236 271 110 l 288 539 l 213 543 l 88 457 l 42 522 q 120 601 68 560 q 210 654 172 643 l 968 654 l 974 549 l 919 508 z "},"–":{"ha":790,"x_min":51,"x_max":725,"o":"m 718 433 l 725 374 l 658 303 l 61 303 l 51 396 q 206 433 131 432 l 718 433 z "},"—":{"ha":1403,"x_min":51,"x_max":1338,"o":"m 1332 433 l 1338 374 l 1272 303 l 61 303 l 51 396 q 207 433 131 432 l 1332 433 z "},"‘":{"ha":339,"x_min":36,"x_max":283,"o":"m 283 989 q 189 835 200 924 l 267 768 q 228 690 260 728 q 153 638 196 651 q 36 792 36 685 q 90 935 36 864 q 235 1050 144 1006 l 283 989 z "},"’":{"ha":340,"x_min":56,"x_max":304,"o":"m 56 699 q 150 854 138 765 l 74 921 q 113 999 81 961 q 186 1050 144 1038 q 304 894 304 1007 q 249 753 304 822 q 104 638 194 683 l 56 699 z "},"‚":{"ha":340,"x_min":56,"x_max":304,"o":"m 56 -135 q 150 21 138 -68 l 74 88 q 113 166 81 128 q 186 217 144 204 q 304 61 304 174 q 249 -81 304 -11 q 104 -196 194 -150 l 56 -135 z "},"“":{"ha":618,"x_min":36,"x_max":563,"o":"m 283 989 q 189 835 200 924 l 267 768 q 228 690 260 728 q 153 638 196 651 q 36 792 36 685 q 90 935 36 864 q 235 1050 144 1006 l 283 989 m 563 989 q 468 835 479 924 l 546 768 q 507 690 539 728 q 432 638 475 651 q 315 792 315 685 q 369 935 315 864 q 514 1050 424 1006 l 563 989 z "},"”":{"ha":618,"x_min":56,"x_max":582,"o":"m 56 699 q 150 854 138 765 l 74 921 q 113 999 81 961 q 186 1050 144 1038 q 304 894 304 1007 q 249 753 304 822 q 104 638 194 683 l 56 699 m 333 699 q 428 854 415 765 l 351 921 q 390 999 358 961 q 464 1050 422 1038 q 582 894 582 1007 q 527 753 582 822 q 382 638 472 683 l 333 699 z "},"„":{"ha":618,"x_min":56,"x_max":582,"o":"m 56 -135 q 150 21 138 -68 l 74 88 q 113 166 81 128 q 186 217 144 204 q 304 61 304 174 q 249 -81 304 -11 q 104 -196 194 -150 l 56 -135 m 333 -135 q 428 21 415 -68 l 351 88 q 390 166 358 128 q 464 217 422 204 q 582 61 582 174 q 527 -81 582 -11 q 382 -196 472 -150 l 333 -135 z "},"†":{"ha":771,"x_min":58,"x_max":713,"o":"m 653 533 l 472 533 l 443 -250 l 303 -250 l 278 533 l 67 533 l 58 579 l 118 651 l 275 651 l 267 901 l 319 957 l 488 951 l 476 651 l 704 651 l 713 606 l 653 533 z "},"‡":{"ha":779,"x_min":58,"x_max":719,"o":"m 704 297 l 713 251 l 653 181 l 467 181 l 451 -250 l 311 -250 l 297 181 l 67 181 l 58 226 l 118 297 l 294 297 l 286 533 l 74 533 l 65 579 l 125 651 l 283 651 l 275 901 l 328 957 l 496 951 l 485 651 l 711 651 l 719 606 l 660 533 l 481 533 l 472 297 l 704 297 z "},"•":{"ha":576,"x_min":93,"x_max":483,"o":"m 483 358 q 308 151 446 219 q 93 326 156 196 q 275 565 121 485 q 483 358 433 504 z "},"…":{"ha":1299,"x_min":131,"x_max":1215,"o":"m 371 101 q 264 -26 344 17 q 131 81 171 -1 q 243 228 144 176 q 371 101 349 182 m 793 101 q 686 -26 767 17 q 553 81 593 -1 q 665 228 567 176 q 793 101 771 182 m 1215 101 q 1108 -26 1189 17 q 975 81 1015 -1 q 1088 228 989 176 q 1215 101 1193 182 z "},"‰":{"ha":1651,"x_min":67,"x_max":1585,"o":"m 67 604 q 129 765 67 696 q 278 833 192 833 q 429 765 365 833 q 493 604 493 697 q 434 442 493 508 q 285 376 375 376 q 131 444 196 376 q 67 604 67 511 m 796 813 l 885 747 l 317 -53 l 229 15 l 796 813 m 326 489 q 365 588 365 526 q 337 681 365 642 q 263 721 308 721 q 225 713 246 721 q 193 621 193 676 q 221 527 193 568 q 299 486 249 486 l 326 489 m 657 194 q 720 354 657 285 q 868 424 783 424 q 1019 355 956 424 q 1083 194 1083 286 q 1024 33 1083 99 q 875 -33 965 -33 q 722 34 786 -33 q 657 194 657 101 m 1158 194 q 1222 354 1158 285 q 1369 424 1285 424 q 1521 355 1457 424 q 1585 194 1585 286 q 1526 33 1585 99 q 1376 -33 1467 -33 q 1223 34 1288 -33 q 1158 194 1158 101 m 917 79 q 956 178 956 114 q 927 269 956 229 q 853 310 899 310 l 815 303 q 783 208 783 263 q 812 115 783 154 q 890 75 840 75 l 917 79 m 1418 79 q 1457 178 1457 114 q 1428 269 1457 229 q 1354 310 1400 310 l 1317 303 q 1285 208 1285 263 q 1313 115 1285 154 q 1392 75 1342 75 l 1418 79 z "},"‹":{"ha":482,"x_min":78,"x_max":404,"o":"m 293 656 l 396 589 l 264 351 l 404 125 l 297 53 l 78 306 l 78 397 l 293 656 z "},"›":{"ha":482,"x_min":78,"x_max":404,"o":"m 404 306 l 185 53 l 78 125 l 218 351 l 86 589 l 189 656 l 404 397 l 404 306 z "},"⁄":{"ha":226,"x_min":-301,"x_max":589,"o":"m 508 946 l 589 867 l -219 21 l -301 99 l 508 946 z "},"€":{"ha":879,"x_min":-39,"x_max":853,"o":"m 817 171 l 850 75 l 594 -29 q 290 56 403 -31 q 138 283 176 143 l -31 283 l -39 315 l 13 374 l 121 374 l 118 432 l 119 476 l 4 476 l -4 508 l 49 567 l 133 567 q 292 834 174 738 q 578 931 410 931 q 853 844 743 931 q 813 632 840 719 l 711 632 l 693 765 q 517 811 606 811 l 483 810 q 340 567 372 729 l 767 567 l 775 535 l 724 476 l 329 476 l 328 446 l 332 374 l 710 374 l 718 342 l 667 283 l 356 283 q 615 115 415 129 l 817 171 z "},"₽":{"ha":904,"x_min":39,"x_max":865,"o":"m 369 329 l 369 267 l 542 267 l 549 218 l 490 174 l 369 174 l 369 94 l 536 71 l 535 0 l 54 0 l 46 44 q 158 100 89 71 l 158 174 l 47 174 l 39 219 l 99 267 l 158 267 l 158 335 l 47 335 l 39 381 l 99 435 l 158 435 l 158 831 l 56 843 l 57 914 l 506 925 q 766 840 667 925 q 865 624 865 754 q 770 416 865 500 q 528 329 675 332 l 369 329 m 369 804 l 369 436 l 476 436 q 604 490 561 436 q 647 621 647 543 q 625 740 647 682 q 563 819 603 797 l 369 804 z "},"™":{"ha":1157,"x_min":7,"x_max":1121,"o":"m 467 1022 q 460 892 471 976 l 453 857 l 379 857 l 363 958 l 306 963 l 306 668 l 371 657 l 369 624 l 111 624 l 107 643 l 171 676 l 171 963 l 113 958 l 96 857 l 22 857 q 7 1003 7 907 l 8 1025 l 239 1022 l 468 1025 l 467 1022 m 1121 657 l 1121 624 l 892 624 l 888 643 q 943 676 908 660 l 938 822 l 944 908 l 836 633 l 835 633 l 743 619 l 632 904 l 639 825 l 635 667 l 690 657 l 690 624 l 493 624 l 489 643 l 546 678 l 557 979 l 508 988 l 510 1021 l 714 1021 l 713 1019 l 819 749 l 925 1021 l 1101 1021 l 1106 1001 l 1054 971 l 1065 667 l 1121 657 z "},"Ω":{"ha":1006,"x_min":49,"x_max":960,"o":"m 960 503 q 900 274 960 382 q 735 89 840 165 l 931 71 l 929 0 l 567 0 l 567 104 q 713 293 664 182 q 763 514 763 404 q 696 735 763 647 q 510 822 629 822 q 331 736 396 822 q 267 519 267 650 q 319 292 267 404 q 476 110 372 181 l 476 0 l 96 0 l 88 44 q 290 93 158 75 q 112 267 175 165 q 49 490 49 368 q 182 801 49 672 q 510 931 315 931 q 830 807 700 931 q 960 503 960 683 z "},"∂":{"ha":833,"x_min":94,"x_max":768,"o":"m 285 1057 q 639 814 510 989 q 768 406 768 639 q 671 79 768 206 q 414 -47 574 -47 q 183 46 272 -47 q 94 288 94 139 q 191 548 94 439 q 419 657 288 657 l 557 601 q 442 826 522 731 q 244 961 361 922 l 285 1057 m 419 69 q 538 207 496 108 q 579 428 579 306 l 572 522 l 538 524 q 356 447 426 524 q 285 256 285 371 q 320 128 285 181 q 419 69 356 75 z "},"∆":{"ha":983,"x_min":56,"x_max":933,"o":"m 933 40 l 876 0 l 64 0 l 56 46 l 388 886 l 569 936 l 926 90 l 933 40 m 704 90 l 451 724 l 213 90 l 704 90 z "},"∏":{"ha":1132,"x_min":39,"x_max":1093,"o":"m 925 -50 l 1053 -68 l 1051 -139 l 604 -139 l 596 -94 q 714 -37 636 -68 l 714 901 l 415 901 l 415 -50 l 544 -68 l 543 -139 l 94 -139 l 86 -94 q 204 -37 126 -68 l 204 901 l 53 901 l 39 978 q 179 1021 114 1021 l 1088 1021 l 1093 956 l 1035 901 l 925 901 l 925 -50 z "},"∑":{"ha":901,"x_min":42,"x_max":838,"o":"m 814 144 q 838 -92 838 53 l 836 -133 l 838 -139 l 54 -139 l 53 -56 l 314 367 l 42 932 l 43 1021 l 804 1021 l 803 1015 l 804 974 q 781 738 804 829 l 658 739 l 619 881 l 326 892 l 267 900 l 490 425 l 210 -31 l 310 -15 l 651 -3 l 692 143 l 814 144 z "},"−":{"ha":831,"x_min":78,"x_max":753,"o":"m 753 285 l 78 285 l 78 406 l 753 406 l 753 285 z "},"∕":{"ha":226,"x_min":-301,"x_max":589,"o":"m 508 946 l 589 867 l -219 21 l -301 99 l 508 946 z "},"∙":{"ha":353,"x_min":42,"x_max":276,"o":"m 175 239 q 103 283 143 251 q 42 342 63 314 q 149 472 90 439 q 276 369 219 446 q 175 239 244 286 z "},"√":{"ha":1035,"x_min":42,"x_max":926,"o":"m 926 990 l 618 -100 q 433 -124 539 -131 l 250 467 l 118 381 l 42 482 l 239 654 l 367 654 l 519 118 l 779 1043 l 926 990 z "},"∞":{"ha":1050,"x_min":42,"x_max":1019,"o":"m 793 724 q 953 649 888 724 q 1019 465 1019 575 q 947 281 1019 353 q 769 208 875 208 q 633 250 692 208 q 517 367 575 292 q 283 211 418 211 q 112 282 182 211 q 42 460 42 353 q 117 649 42 571 q 297 726 192 726 q 434 685 374 726 q 556 569 494 643 q 793 724 665 724 m 326 369 q 463 439 406 369 q 271 586 354 586 q 219 574 244 586 q 192 500 192 539 q 229 406 192 443 q 326 369 267 369 m 839 363 q 871 450 871 397 q 840 538 871 499 q 760 576 810 576 q 611 501 686 576 q 713 389 672 424 q 796 354 753 354 q 839 363 817 354 z "},"∫":{"ha":526,"x_min":-54,"x_max":579,"o":"m 257 906 q 475 797 364 908 l 579 975 q 379 1043 475 1043 q 158 942 254 1043 q 63 706 63 842 l 271 -110 q 50 -1 163 -114 l -54 -179 q 147 -247 61 -247 q 368 -147 271 -247 q 465 90 465 -46 l 257 906 z "},"≈":{"ha":782,"x_min":79,"x_max":711,"o":"m 79 424 q 181 563 143 521 q 256 606 219 606 q 344 579 286 606 q 538 483 403 553 l 657 582 l 711 535 q 609 388 644 429 q 539 346 574 346 q 391 402 500 346 q 256 458 282 458 q 144 374 224 458 l 79 424 m 79 165 q 181 305 143 263 q 256 347 219 347 q 344 321 286 347 q 538 225 403 294 l 657 324 l 711 276 q 609 129 644 171 q 539 88 574 88 q 391 144 500 88 q 256 200 282 200 q 144 115 224 200 l 79 165 z "},"≠":{"ha":811,"x_min":78,"x_max":733,"o":"m 511 422 l 422 279 l 733 279 l 733 167 l 353 167 l 235 -24 l 165 17 l 258 167 l 78 167 l 78 279 l 328 279 l 417 422 l 78 422 l 78 535 l 486 535 l 594 708 l 664 669 l 581 535 l 733 535 l 733 422 l 511 422 z "},"≤":{"ha":831,"x_min":78,"x_max":753,"o":"m 718 744 l 274 510 l 275 501 l 715 292 l 660 192 l 119 453 l 108 550 l 660 839 l 718 744 m 753 0 l 78 0 l 78 113 l 753 113 l 753 0 z "},"≥":{"ha":831,"x_min":78,"x_max":753,"o":"m 722 550 l 711 453 l 171 192 l 115 292 l 556 501 l 557 510 l 113 744 l 171 839 l 722 550 m 753 113 l 753 0 l 78 0 l 78 113 l 753 113 z "},"◊":{"ha":775,"x_min":58,"x_max":717,"o":"m 717 510 l 461 0 l 342 -11 l 58 511 l 314 1021 l 433 1032 l 717 510 m 564 510 l 381 851 l 372 850 l 211 511 l 394 169 l 403 171 l 564 510 z "},"́":{"ha":0,"x_min":-131,"x_max":211,"o":"m -131 824 l 78 1071 l 211 956 q -4 763 146 901 l -26 740 l -131 824 z "},"̆":{"ha":0,"x_min":-222,"x_max":225,"o":"m 225 989 q 160 823 222 882 q 7 764 97 764 q -148 822 -82 764 q -222 988 -214 879 l -101 997 q -3 882 -87 882 q 63 913 38 882 q 88 996 88 943 l 225 989 z "},"̌":{"ha":0,"x_min":-275,"x_max":253,"o":"m 3 868 l 161 1061 l 253 983 l 75 754 l -78 751 l -275 961 l -165 1060 l 3 868 z "},"̧":{"ha":0,"x_min":-126,"x_max":168,"o":"m -7 -81 q 120 -116 72 -81 q 168 -197 168 -151 q 93 -316 168 -267 q -103 -374 18 -365 l -126 -326 q -23 -271 -60 -304 q 14 -207 14 -237 q -13 -166 14 -181 q -89 -156 -40 -151 l -126 -96 l -39 8 l 46 8 l -7 -81 z "},"̂":{"ha":0,"x_min":-247,"x_max":258,"o":"m -67 1019 l 79 1019 l 258 811 l 186 743 l 1 893 l -167 738 l -247 801 l -67 1019 z "},"̦":{"ha":0,"x_min":-97,"x_max":97,"o":"m 28 -89 q 97 -196 97 -124 q 58 -315 97 -251 q -29 -414 18 -379 l -97 -368 q -51 -261 -51 -310 q -87 -194 -51 -221 l -90 -149 l 28 -89 z "},"̈":{"ha":0,"x_min":-269,"x_max":271,"o":"m -49 881 q -149 764 -74 800 q -269 863 -232 789 q -167 999 -258 949 q -49 881 -68 958 m 271 881 q 172 764 246 800 q 50 863 88 789 q 153 999 61 949 q 271 881 251 958 z "},"̇":{"ha":0,"x_min":-108,"x_max":113,"o":"m 113 881 q 14 764 90 801 q -108 863 -72 789 q -6 999 -97 949 q 71 949 38 982 q 113 881 104 917 z "},"̣":{"ha":0,"x_min":-108,"x_max":113,"o":"m 113 -254 q 14 -372 90 -332 q -108 -274 -72 -346 q -6 -136 -97 -186 q 71 -187 38 -154 q 113 -254 104 -219 z "},"̀":{"ha":0,"x_min":-210,"x_max":132,"o":"m 28 740 q -210 956 -137 899 l -76 1071 l 132 824 l 28 740 z "},"̋":{"ha":0,"x_min":-235,"x_max":369,"o":"m -46 1060 l 92 969 q -137 742 -3 883 l -235 813 l -46 1060 m 233 1060 l 369 969 q 142 742 290 896 l 43 813 l 233 1060 z "},"̱":{"ha":0,"x_min":-260,"x_max":258,"o":"m 251 -197 l 258 -262 l 193 -321 l -251 -321 l -260 -232 q -103 -197 -189 -197 l 251 -197 z "},"̄":{"ha":0,"x_min":-228,"x_max":271,"o":"m 264 908 l 271 843 l 206 785 l -219 785 l -228 874 q -71 908 -160 908 l 264 908 z "},"̨":{"ha":0,"x_min":-312,"x_max":51,"o":"m 8 32 q -169 -158 -169 -71 q -148 -212 -169 -192 q -89 -233 -126 -233 q 22 -199 -37 -233 l 51 -264 l -119 -350 l -142 -351 q -265 -306 -218 -351 q -312 -200 -312 -261 q -239 -57 -312 -126 q -31 60 -165 13 l 8 32 z "},"̊":{"ha":0,"x_min":-164,"x_max":164,"o":"m -164 1150 q -117 1267 -164 1219 q -1 1315 -71 1315 q 117 1267 69 1315 q 164 1146 164 1219 q 119 1031 164 1076 q 6 986 75 986 q -115 1032 -65 986 q -164 1150 -164 1078 m -81 1131 q -56 1072 -81 1094 q 3 1050 -32 1050 q 59 1072 38 1050 q 81 1129 81 1094 q 58 1188 81 1164 q 0 1211 35 1211 q -58 1188 -35 1211 q -81 1131 -81 1165 z "},"̃":{"ha":0,"x_min":-282,"x_max":310,"o":"m -282 819 q -175 971 -217 928 q -87 1014 -133 1014 q 133 889 -36 1014 l 243 1003 l 310 954 q 132 756 204 756 q 13 813 97 756 q -94 871 -72 871 q -212 765 -125 871 l -282 819 z "},"̒":{"ha":0,"x_min":-112,"x_max":135,"o":"m 135 1088 q 40 933 51 1022 l 118 867 q 79 788 111 826 q 4 736 47 750 q -112 890 -112 783 q -58 1033 -112 963 q 86 1149 -4 1104 l 135 1088 z "},"ऄ":{"ha":1139,"x_min":24,"x_max":1204,"o":"m 1181 747 l 944 747 l 1028 685 l 1028 -32 l 974 -56 l 840 19 l 840 306 q 790 297 818 297 q 694 319 747 297 q 708 236 708 279 q 640 69 708 135 q 461 3 571 3 q 236 85 350 3 q 24 379 122 167 l 118 439 q 410 163 246 163 q 518 202 479 163 q 557 293 557 242 q 536 364 557 331 q 475 413 515 397 l 333 331 l 229 493 q 397 560 299 554 q 511 713 511 625 q 488 767 511 749 q 365 738 435 772 q 233 644 294 704 l 132 779 q 390 903 256 903 q 574 826 493 903 q 656 660 656 750 q 572 492 656 567 q 715 440 636 440 q 840 483 792 440 l 840 747 l 726 747 l 660 840 l 683 888 l 860 888 q 756 1004 847 981 l 578 1038 l 524 1053 q 344 1363 360 1107 l 447 1376 q 585 1219 468 1247 l 760 1190 l 810 1178 q 974 888 964 1131 l 1139 888 l 1204 796 l 1181 747 z "},"अ":{"ha":1139,"x_min":24,"x_max":1204,"o":"m 1181 747 l 944 747 l 1028 685 l 1028 -32 l 974 -56 l 840 19 l 840 306 q 790 297 818 297 q 694 319 747 297 q 708 236 708 279 q 640 69 708 135 q 461 3 571 3 q 236 85 350 3 q 24 379 122 167 l 118 439 q 410 163 246 163 q 518 202 479 163 q 557 293 557 242 q 536 364 557 331 q 475 413 515 397 l 333 331 l 229 493 q 397 560 299 554 q 511 713 511 625 q 488 767 511 749 q 365 738 435 772 q 233 644 294 704 l 132 779 q 390 903 256 903 q 574 826 493 903 q 656 660 656 750 q 572 492 656 567 q 715 440 636 440 q 840 483 792 440 l 840 747 l 726 747 l 660 840 l 683 888 l 1139 888 l 1204 796 l 1181 747 z "},"आ":{"ha":1542,"x_min":24,"x_max":1607,"o":"m 1583 747 l 1347 747 l 1431 685 l 1431 -32 l 1376 -56 l 1243 19 l 1243 747 l 944 747 l 1028 685 l 1028 -32 l 974 -56 l 840 19 l 840 306 q 790 297 818 297 q 694 319 747 297 q 708 236 708 279 q 640 69 708 135 q 461 3 571 3 q 236 85 350 3 q 24 379 122 167 l 118 439 q 410 163 246 163 q 518 202 479 163 q 557 293 557 242 q 536 364 557 331 q 475 413 515 397 l 333 331 l 229 493 q 397 560 299 554 q 511 713 511 625 q 488 767 511 749 q 365 738 435 772 q 233 644 294 704 l 132 779 q 390 903 256 903 q 574 826 493 903 q 656 660 656 750 q 572 492 656 567 q 715 440 636 440 q 840 483 792 440 l 840 747 l 726 747 l 660 840 l 683 888 l 1540 888 l 1607 796 l 1583 747 z "},"इ":{"ha":790,"x_min":-67,"x_max":856,"o":"m 832 747 l 574 747 l 657 685 l 657 504 l 326 504 q 245 483 276 504 q 214 431 214 463 q 250 367 214 400 l 532 429 q 686 323 631 392 q 742 174 742 254 q 655 5 742 72 q 431 -72 568 -62 l 603 -224 l 456 -332 l 281 -58 q 104 31 189 -33 l 150 207 l 238 206 l 325 72 q 511 119 431 67 q 592 244 592 172 l 590 263 l 364 201 q 144 320 232 236 q 56 490 56 404 q 117 611 56 563 q 294 660 179 660 l 488 660 l 488 747 l -1 747 l -67 840 l -43 888 l 790 888 l 856 796 l 832 747 z "},"ई":{"ha":790,"x_min":-67,"x_max":856,"o":"m 832 747 l 574 747 l 657 685 l 657 504 l 326 504 q 245 483 276 504 q 214 431 214 463 q 250 367 214 400 l 532 429 q 686 323 631 392 q 742 174 742 254 q 655 5 742 72 q 431 -72 568 -62 l 603 -224 l 456 -332 l 281 -58 q 104 31 189 -33 l 150 207 l 238 206 l 325 72 q 511 119 431 67 q 592 244 592 172 l 590 263 l 364 201 q 144 320 232 236 q 56 490 56 404 q 117 611 56 563 q 294 660 179 660 l 488 660 l 488 747 l -1 747 l -67 840 l -43 888 l 464 888 q 343 1122 343 1008 q 402 1263 343 1204 q 551 1321 461 1321 q 747 1240 667 1321 l 719 1149 q 624 1175 671 1175 q 531 1142 568 1175 q 493 1051 493 1110 q 571 888 493 976 l 790 888 l 856 796 l 832 747 z "},"उ":{"ha":786,"x_min":-67,"x_max":851,"o":"m 828 747 l 569 747 q 638 604 638 682 q 575 468 638 525 q 688 352 649 421 q 728 208 728 283 q 650 26 728 100 q 451 -49 572 -49 q 4 349 188 -49 l 103 404 q 241 194 168 268 q 404 119 314 119 q 516 160 472 119 q 560 258 560 200 q 535 337 560 300 q 468 389 511 374 l 325 307 l 218 475 q 399 544 297 542 q 471 651 471 586 q 418 747 471 704 l -1 747 l -67 840 l -43 888 l 786 888 l 851 796 l 828 747 z "},"ऊ":{"ha":1132,"x_min":-67,"x_max":1197,"o":"m 569 747 q 638 604 638 682 q 575 468 638 525 l 626 429 q 865 561 746 561 q 1040 481 965 561 q 1115 296 1115 401 q 931 18 1115 150 l 804 157 q 974 363 974 292 q 918 414 974 414 q 718 278 836 414 q 728 208 728 247 q 650 26 728 100 q 451 -49 572 -49 q 4 349 188 -49 l 103 404 q 241 194 168 268 q 404 119 314 119 q 516 160 472 119 q 560 258 560 200 q 535 337 560 300 q 468 389 511 374 l 325 307 l 218 475 q 399 544 297 542 q 471 651 471 586 q 418 747 471 704 l -1 747 l -67 840 l -43 888 l 1132 888 l 1197 796 l 1174 747 l 569 747 z "},"ऋ":{"ha":1238,"x_min":-56,"x_max":1304,"o":"m 671 747 l 754 685 l 754 400 q 829 386 790 386 q 958 433 907 386 l 871 557 l 906 619 l 1085 615 q 1110 513 1110 572 q 1092 426 1110 464 q 1219 179 1219 281 q 1167 47 1219 108 q 1014 -33 1115 -14 l 918 72 l 931 124 q 1064 251 1064 163 q 1039 331 1064 288 q 936 258 999 286 q 807 229 874 229 l 754 233 l 754 -32 l 700 -56 l 567 19 l 567 261 l 276 43 l 146 183 l 483 411 l 453 440 q 346 496 392 496 q 144 389 286 496 l 26 558 q 258 667 154 667 q 467 561 360 667 l 567 463 l 567 747 l 10 747 l -56 840 l -32 888 l 1238 888 l 1304 796 l 1281 747 l 671 747 z "},"ॠ":{"ha":1269,"x_min":-56,"x_max":1408,"o":"m 1408 -208 q 1203 -303 1319 -303 q 1030 -238 1107 -303 q 953 -94 953 -174 q 961 -51 953 -72 q 842 99 842 10 q 1065 282 842 219 l 1026 342 q 808 257 939 257 l 754 261 l 754 -32 l 700 -56 l 567 19 l 567 261 l 276 43 l 146 183 l 483 411 l 453 440 q 346 496 392 496 q 144 389 286 496 l 26 558 q 258 667 154 667 q 467 561 360 667 l 567 463 l 567 747 l 10 747 l -56 840 l -32 888 l 1278 888 l 1344 796 l 1321 747 l 671 747 l 754 685 l 754 410 q 826 399 786 399 q 957 442 904 399 l 871 564 l 906 626 l 1085 622 q 1110 518 1110 576 q 1089 428 1110 464 l 1215 219 l 1219 215 l 1189 154 q 979 47 979 110 q 1006 10 979 25 q 1221 100 1074 67 l 1296 3 l 1271 -49 q 1134 -94 1181 -68 q 1088 -144 1088 -119 q 1129 -174 1088 -174 q 1229 -142 1169 -174 q 1324 -74 1289 -111 l 1408 -208 z "},"ऌ":{"ha":1058,"x_min":-67,"x_max":1124,"o":"m 1100 747 l 714 747 l 797 685 l 797 601 q 923 499 875 568 q 971 351 971 429 q 935 217 971 281 q 831 69 900 154 q 761 -50 761 -15 q 776 -88 761 -74 q 813 -103 792 -103 q 960 50 885 -103 l 1090 -64 q 875 -236 1014 -236 q 693 -156 778 -236 q 608 18 608 -76 q 633 110 608 67 q 703 210 657 153 q 774 309 750 268 q 797 396 797 350 q 776 465 797 438 q 717 492 756 492 q 619 413 660 492 q 579 228 579 335 l 581 192 l 538 167 l 400 256 l 399 297 q 422 436 399 374 q 347 456 385 456 q 261 419 296 456 q 226 325 226 382 q 292 180 226 249 q 483 32 357 111 l 410 -65 q 32 397 32 164 q 99 564 32 499 q 260 629 165 629 q 351 608 310 629 l 460 508 q 615 613 519 588 l 615 747 l -1 747 l -67 840 l -43 888 l 1057 888 l 1124 796 l 1100 747 z "},"ॡ":{"ha":1058,"x_min":-67,"x_max":1193,"o":"m 1193 -244 q 978 -389 1110 -389 q 819 -327 889 -389 q 747 -187 750 -265 q 604 7 604 -119 q 631 106 604 61 q 705 211 657 151 q 775 310 753 271 q 797 396 797 350 q 776 465 797 438 q 717 492 756 492 q 619 413 660 492 q 579 228 579 335 l 581 192 l 538 167 l 400 256 l 399 297 q 422 436 399 374 q 347 456 385 456 q 261 419 296 456 q 226 325 226 382 q 292 180 226 249 q 483 32 357 111 l 410 -65 q 32 397 32 164 q 99 564 32 499 q 260 629 165 629 q 351 608 310 629 l 460 508 q 615 613 519 588 l 615 747 l -1 747 l -67 840 l -43 888 l 1057 888 l 1124 796 l 1100 747 l 714 747 l 797 685 l 797 601 q 923 500 875 569 q 971 353 971 431 q 946 241 971 293 q 847 97 921 189 q 763 -15 772 4 q 753 -51 753 -33 q 775 -100 753 -81 q 946 29 824 -28 l 1044 -57 l 1036 -107 q 890 -237 890 -181 q 925 -269 890 -269 q 1004 -234 957 -269 q 1086 -139 1051 -199 l 1193 -244 z "},"ऍ":{"ha":817,"x_min":-67,"x_max":882,"o":"m 858 747 l 639 747 l 722 685 l 722 485 q 682 287 722 353 q 525 174 642 221 l 439 296 l 536 363 l 536 747 l 188 747 l 271 685 l 271 250 l 579 103 q 788 -25 728 31 q 847 -150 847 -81 q 790 -289 847 -229 l 618 -208 q 656 -124 656 -158 q 588 -43 656 -79 l 303 97 q 82 424 82 200 l 82 747 l -1 747 l -67 840 l -43 888 l 815 888 l 882 796 l 858 747 m 693 1194 q 607 1022 672 1086 q 444 958 542 958 q 263 1021 350 958 q 119 1200 175 1083 l 200 1269 q 394 1113 282 1113 q 546 1268 515 1113 l 693 1194 z "},"ऎ":{"ha":817,"x_min":-67,"x_max":882,"o":"m 858 747 l 639 747 l 722 685 l 722 485 q 682 287 722 353 q 525 174 642 221 l 439 296 l 536 363 l 536 747 l 188 747 l 271 685 l 271 250 l 579 103 q 788 -25 728 31 q 847 -150 847 -81 q 790 -289 847 -229 l 618 -208 q 656 -124 656 -158 q 588 -43 656 -79 l 303 97 q 82 424 82 200 l 82 747 l -1 747 l -67 840 l -43 888 l 532 888 q 428 1004 519 981 l 250 1038 l 196 1053 q 17 1363 32 1107 l 119 1376 q 257 1219 140 1247 l 432 1190 l 482 1178 q 646 888 636 1131 l 815 888 l 882 796 l 858 747 z "},"ए":{"ha":817,"x_min":-67,"x_max":882,"o":"m 858 747 l 639 747 l 722 685 l 722 485 q 682 287 722 353 q 525 174 642 221 l 439 296 l 536 363 l 536 747 l 188 747 l 271 685 l 271 250 l 579 103 q 788 -25 728 31 q 847 -150 847 -81 q 790 -289 847 -229 l 618 -208 q 656 -124 656 -158 q 588 -43 656 -79 l 303 97 q 82 424 82 200 l 82 747 l -1 747 l -67 840 l -43 888 l 815 888 l 882 796 l 858 747 z "},"ऐ":{"ha":817,"x_min":-67,"x_max":882,"o":"m 858 747 l 639 747 l 722 685 l 722 485 q 682 287 722 353 q 525 174 642 221 l 439 296 l 536 363 l 536 747 l 188 747 l 271 685 l 271 250 l 579 103 q 788 -25 728 31 q 847 -150 847 -81 q 790 -289 847 -229 l 618 -208 q 656 -124 656 -158 q 588 -43 656 -79 l 303 97 q 82 424 82 200 l 82 747 l -1 747 l -67 840 l -43 888 l 535 888 l 440 1033 q 293 1129 375 1129 q 124 1063 224 1129 l 24 1250 q 218 1317 125 1317 q 519 1106 383 1317 l 663 888 l 815 888 l 882 796 l 858 747 z "},"ऑ":{"ha":1542,"x_min":24,"x_max":1607,"o":"m 1154 950 q 972 1013 1060 950 q 829 1192 885 1075 l 910 1261 q 1104 1104 992 1104 q 1256 1260 1225 1104 l 1403 1186 q 1317 1014 1382 1078 q 1154 950 1251 950 m 1583 747 l 1347 747 l 1431 685 l 1431 -32 l 1376 -56 l 1243 19 l 1243 747 l 944 747 l 1028 685 l 1028 -32 l 974 -56 l 840 19 l 840 306 q 790 297 818 297 q 694 319 747 297 q 708 236 708 279 q 640 69 708 135 q 461 3 571 3 q 236 85 350 3 q 24 379 122 167 l 118 439 q 410 163 246 163 q 518 202 479 163 q 557 293 557 242 q 536 364 557 331 q 475 413 515 397 l 333 331 l 229 493 q 397 560 299 554 q 511 713 511 625 q 488 767 511 749 q 365 738 435 772 q 233 644 294 704 l 132 779 q 390 903 256 903 q 574 826 493 903 q 656 660 656 750 q 572 492 656 567 q 715 440 636 440 q 840 483 792 440 l 840 747 l 726 747 l 660 840 l 683 888 l 1540 888 l 1607 796 l 1583 747 z "},"ऒ":{"ha":1542,"x_min":24,"x_max":1607,"o":"m 1583 747 l 1347 747 l 1431 685 l 1431 -32 l 1376 -56 l 1243 19 l 1243 747 l 944 747 l 1028 685 l 1028 -32 l 974 -56 l 840 19 l 840 306 q 790 297 818 297 q 694 319 747 297 q 708 236 708 279 q 640 69 708 135 q 461 3 571 3 q 236 85 350 3 q 24 379 122 167 l 118 439 q 410 163 246 163 q 518 202 479 163 q 557 293 557 242 q 536 364 557 331 q 475 413 515 397 l 333 331 l 229 493 q 397 560 299 554 q 511 713 511 625 q 488 767 511 749 q 365 738 435 772 q 233 644 294 704 l 132 779 q 390 903 256 903 q 574 826 493 903 q 656 660 656 750 q 572 492 656 567 q 715 440 636 440 q 840 483 792 440 l 840 747 l 726 747 l 660 840 l 683 888 l 1276 888 q 1172 1004 1264 981 l 994 1038 l 940 1053 q 761 1363 776 1107 l 864 1376 q 1001 1219 885 1247 l 1176 1190 l 1226 1178 q 1390 888 1381 1131 l 1540 888 l 1607 796 l 1583 747 z "},"ओ":{"ha":1542,"x_min":24,"x_max":1607,"o":"m 1583 747 l 1347 747 l 1431 685 l 1431 -32 l 1376 -56 l 1243 19 l 1243 747 l 944 747 l 1028 685 l 1028 -32 l 974 -56 l 840 19 l 840 306 q 790 297 818 297 q 694 319 747 297 q 708 236 708 279 q 640 69 708 135 q 461 3 571 3 q 236 85 350 3 q 24 379 122 167 l 118 439 q 410 163 246 163 q 518 202 479 163 q 557 293 557 242 q 536 364 557 331 q 475 413 515 397 l 333 331 l 229 493 q 397 560 299 554 q 511 713 511 625 q 488 767 511 749 q 365 738 435 772 q 233 644 294 704 l 132 779 q 390 903 256 903 q 574 826 493 903 q 656 660 656 750 q 572 492 656 567 q 715 440 636 440 q 840 483 792 440 l 840 747 l 726 747 l 660 840 l 683 888 l 1226 888 l 1138 1026 q 989 1122 1072 1122 q 819 1056 919 1122 l 719 1243 q 914 1310 822 1310 q 1217 1099 1078 1310 l 1354 888 l 1540 888 l 1607 796 l 1583 747 z "},"ॲ":{"ha":1139,"x_min":24,"x_max":1204,"o":"m 1181 747 l 944 747 l 1028 685 l 1028 -32 l 974 -56 l 840 19 l 840 306 q 790 297 818 297 q 694 319 747 297 q 708 236 708 279 q 640 69 708 135 q 461 3 571 3 q 236 85 350 3 q 24 379 122 167 l 118 439 q 410 163 246 163 q 518 202 479 163 q 557 293 557 242 q 536 364 557 331 q 475 413 515 397 l 333 331 l 229 493 q 397 560 299 554 q 511 713 511 625 q 488 767 511 749 q 365 738 435 772 q 233 644 294 704 l 132 779 q 390 903 256 903 q 574 826 493 903 q 656 660 656 750 q 572 492 656 567 q 715 440 636 440 q 840 483 792 440 l 840 747 l 726 747 l 660 840 l 683 888 l 1139 888 l 1204 796 l 1181 747 m 1149 1181 q 1063 1008 1128 1072 q 900 944 997 944 q 718 1007 806 944 q 575 1186 631 1069 l 656 1256 q 850 1099 738 1099 q 1001 1254 971 1099 l 1149 1181 z "},"ॳ":{"ha":1139,"x_min":24,"x_max":1204,"o":"m 1181 747 l 944 747 l 1028 685 l 1028 -32 l 974 -56 l 840 19 l 840 306 q 790 297 818 297 q 694 319 747 297 q 708 236 708 279 q 640 69 708 135 q 461 3 571 3 q 236 85 350 3 q 24 379 122 167 l 118 439 q 410 163 246 163 q 518 202 479 163 q 557 293 557 242 q 536 364 557 331 q 475 413 515 397 l 333 331 l 229 493 q 397 560 299 554 q 511 713 511 625 q 488 767 511 749 q 365 738 435 772 q 233 644 294 704 l 132 779 q 390 903 256 903 q 574 826 493 903 q 656 660 656 750 q 572 492 656 567 q 715 440 636 440 q 840 483 792 440 l 840 747 l 726 747 l 660 840 l 683 888 l 856 888 l 856 1132 l 985 1132 l 985 888 l 1139 888 l 1204 796 l 1181 747 z "},"ॴ":{"ha":1542,"x_min":24,"x_max":1607,"o":"m 1583 747 l 1347 747 l 1431 685 l 1431 -32 l 1376 -56 l 1243 19 l 1243 747 l 944 747 l 1028 685 l 1028 -32 l 974 -56 l 840 19 l 840 306 q 790 297 818 297 q 694 319 747 297 q 708 236 708 279 q 640 69 708 135 q 461 3 571 3 q 236 85 350 3 q 24 379 122 167 l 118 439 q 410 163 246 163 q 518 202 479 163 q 557 293 557 242 q 536 364 557 331 q 475 413 515 397 l 333 331 l 229 493 q 397 560 299 554 q 511 713 511 625 q 488 767 511 749 q 365 738 435 772 q 233 644 294 704 l 132 779 q 390 903 256 903 q 574 826 493 903 q 656 660 656 750 q 572 492 656 567 q 715 440 636 440 q 840 483 792 440 l 840 747 l 726 747 l 660 840 l 683 888 l 1256 888 l 1256 1132 l 1385 1132 l 1385 888 l 1540 888 l 1607 796 l 1583 747 z "},"ॵ":{"ha":1542,"x_min":24,"x_max":1607,"o":"m 1583 747 l 1347 747 l 1431 685 l 1431 -32 l 1376 -56 l 1243 19 l 1243 747 l 944 747 l 1028 685 l 1028 -32 l 974 -56 l 840 19 l 840 306 q 790 297 818 297 q 694 319 747 297 q 708 236 708 279 q 640 69 708 135 q 461 3 571 3 q 236 85 350 3 q 24 379 122 167 l 118 439 q 410 163 246 163 q 518 202 479 163 q 557 293 557 242 q 536 364 557 331 q 475 413 515 397 l 333 331 l 229 493 q 397 560 299 554 q 511 713 511 625 q 488 767 511 749 q 365 738 435 772 q 233 644 294 704 l 132 779 q 390 903 256 903 q 574 826 493 903 q 656 660 656 750 q 572 492 656 567 q 715 440 636 440 q 840 483 792 440 l 840 747 l 726 747 l 660 840 l 683 888 l 1263 888 q 1218 949 1250 936 q 1119 963 1186 963 l 1010 963 q 832 1022 908 963 q 740 1203 756 1082 l 842 1236 q 890 1131 860 1163 q 975 1100 921 1100 l 1039 1100 q 1203 1071 1147 1100 l 1208 1082 q 1135 1124 1183 1103 l 1057 1154 q 925 1333 925 1206 q 947 1442 925 1379 l 1057 1428 q 1044 1363 1044 1389 q 1106 1278 1044 1311 l 1214 1226 q 1389 940 1389 1144 l 1386 888 l 1540 888 l 1607 796 l 1583 747 z "},"ॶ":{"ha":1139,"x_min":24,"x_max":1204,"o":"m 1181 747 l 944 747 l 1028 685 l 1028 -32 l 974 -56 l 840 19 l 840 306 q 790 297 818 297 q 694 319 747 297 q 708 236 708 279 q 640 69 708 135 q 461 3 571 3 q 236 85 350 3 q 24 379 122 167 l 118 439 q 410 163 246 163 q 518 202 479 163 q 557 293 557 242 q 536 364 557 331 q 475 413 515 397 l 333 331 l 229 493 q 397 560 299 554 q 511 713 511 625 q 488 767 511 749 q 365 738 435 772 q 233 644 294 704 l 132 779 q 390 903 256 903 q 574 826 493 903 q 656 660 656 750 q 572 492 656 567 q 715 440 636 440 q 840 483 792 440 l 840 747 l 726 747 l 660 840 l 683 888 l 1139 888 l 1204 796 l 1181 747 m 433 -93 q 653 -181 529 -181 q 893 -86 796 -181 l 978 -221 q 868 -304 940 -272 q 714 -336 796 -336 q 528 -289 618 -336 q 385 -151 439 -242 l 433 -93 z "},"ॷ":{"ha":1139,"x_min":24,"x_max":1204,"o":"m 1181 747 l 944 747 l 1028 685 l 1028 -32 l 974 -56 l 840 19 l 840 306 q 790 297 818 297 q 694 319 747 297 q 708 236 708 279 q 640 69 708 135 q 461 3 571 3 q 236 85 350 3 q 24 379 122 167 l 118 439 q 410 163 246 163 q 518 202 479 163 q 557 293 557 242 q 536 364 557 331 q 475 413 515 397 l 333 331 l 229 493 q 397 560 299 554 q 511 713 511 625 q 488 767 511 749 q 365 738 435 772 q 233 644 294 704 l 132 779 q 390 903 256 903 q 574 826 493 903 q 656 660 656 750 q 572 492 656 567 q 715 440 636 440 q 840 483 792 440 l 840 747 l 726 747 l 660 840 l 683 888 l 1139 888 l 1204 796 l 1181 747 m 431 -357 q 650 -444 526 -444 q 890 -350 793 -444 l 975 -485 q 865 -568 938 -536 q 711 -600 793 -600 q 526 -553 615 -600 q 382 -415 436 -506 l 431 -357 m 431 -93 q 650 -181 526 -181 q 890 -86 793 -181 l 975 -221 q 865 -304 938 -272 q 711 -336 793 -336 q 526 -289 615 -336 q 382 -151 436 -242 l 431 -93 z "},"औ":{"ha":1542,"x_min":24,"x_max":1607,"o":"m 1583 747 l 1347 747 l 1431 685 l 1431 -32 l 1376 -56 l 1243 19 l 1243 747 l 944 747 l 1028 685 l 1028 -32 l 974 -56 l 840 19 l 840 306 q 790 297 818 297 q 694 319 747 297 q 708 236 708 279 q 640 69 708 135 q 461 3 571 3 q 236 85 350 3 q 24 379 122 167 l 118 439 q 410 163 246 163 q 518 202 479 163 q 557 293 557 242 q 536 364 557 331 q 475 413 515 397 l 333 331 l 229 493 q 397 560 299 554 q 511 713 511 625 q 488 767 511 749 q 365 738 435 772 q 233 644 294 704 l 132 779 q 390 903 256 903 q 574 826 493 903 q 656 660 656 750 q 572 492 656 567 q 715 440 636 440 q 840 483 792 440 l 840 747 l 726 747 l 660 840 l 683 888 l 1194 888 l 1117 956 q 976 1021 1046 1021 q 814 960 911 1021 l 722 1119 q 904 1190 817 1190 q 1156 1046 1022 1190 l 1296 893 l 1217 1089 q 1128 1239 1174 1193 q 1015 1285 1083 1285 q 876 1253 960 1285 l 803 1438 q 965 1476 892 1476 q 1283 1176 1172 1476 l 1385 888 l 1540 888 l 1607 796 l 1583 747 z "},"क":{"ha":1090,"x_min":-67,"x_max":1156,"o":"m 1132 747 l 558 747 l 642 685 l 642 538 q 800 597 718 597 q 980 513 903 597 q 1057 319 1057 429 q 836 -7 1057 142 l 704 133 q 852 259 803 206 q 901 363 901 313 q 836 428 901 428 q 642 296 753 428 l 642 -32 l 588 -56 l 454 19 l 454 147 q 367 129 411 129 q 136 216 242 129 q 31 419 31 303 q 97 578 31 514 q 264 643 164 643 l 325 636 l 454 569 l 454 747 l -1 747 l -67 840 l -43 888 l 1090 888 l 1156 796 l 1132 747 m 236 275 q 278 269 253 269 q 454 364 381 269 l 454 474 q 356 497 403 497 q 250 455 290 497 q 210 356 210 413 q 236 275 210 311 z "},"ख":{"ha":1182,"x_min":-67,"x_max":1249,"o":"m 1225 747 l 988 747 l 1071 685 l 1071 -32 l 1017 -56 l 896 13 q 646 -53 790 -53 q 298 68 461 -53 q 54 385 135 189 l 96 482 l 272 482 q 279 528 279 506 l 278 747 l -1 747 l -67 840 l -43 888 l 1182 888 l 1249 796 l 1225 747 m 883 747 l 379 747 l 463 686 l 463 510 q 437 408 463 449 q 353 319 411 367 l 289 264 q 436 131 343 178 q 631 85 529 85 q 883 167 781 85 l 883 190 q 810 176 851 176 q 592 258 693 176 q 492 446 492 340 q 553 593 492 531 q 706 656 615 656 l 760 650 l 883 578 l 883 747 m 883 496 q 788 518 835 518 q 687 480 724 518 q 650 390 650 442 q 678 313 650 344 q 732 304 703 304 q 883 382 832 304 l 883 496 z "},"ग":{"ha":889,"x_min":-67,"x_max":954,"o":"m 931 747 l 694 747 l 778 685 l 778 -32 l 724 -56 l 590 19 l 590 747 l 285 747 l 368 685 l 368 297 l 367 297 l 367 190 l 289 150 q 137 253 214 181 q 36 397 60 326 l 81 464 l 185 464 l 182 747 l -1 747 l -67 840 l -43 888 l 889 888 l 954 796 l 931 747 z "},"घ":{"ha":957,"x_min":-81,"x_max":1022,"o":"m 999 747 l 763 747 l 846 685 l 846 -32 l 792 -56 l 658 19 l 658 138 q 510 99 593 99 q 264 189 379 99 q 149 389 149 279 q 188 503 149 449 q 38 704 38 590 q 44 747 38 724 l -15 747 l -81 840 l -57 888 l 957 888 l 1022 796 l 999 747 m 658 747 l 279 747 q 224 650 224 711 q 260 567 224 606 q 407 603 322 603 l 482 596 l 567 474 l 542 425 l 489 429 q 369 395 414 429 q 325 314 325 361 q 349 253 325 281 q 403 244 371 244 q 549 285 474 244 q 658 392 624 325 l 658 747 z "},"ङ":{"ha":999,"x_min":-67,"x_max":1064,"o":"m 1064 796 l 1040 747 l 618 747 l 701 685 l 701 497 l 696 499 l 696 497 l 406 497 q 271 426 271 497 q 308 363 271 396 l 550 435 q 717 328 656 403 q 779 164 779 253 q 702 -9 779 60 q 506 -78 625 -78 q 29 261 263 -78 l 108 328 q 443 89 265 89 q 577 133 524 89 q 631 235 631 176 q 625 268 631 253 l 422 196 q 199 318 288 235 q 111 488 111 401 q 175 608 111 561 q 342 657 239 656 l 532 657 l 532 747 l -1 747 l -67 840 l -43 888 l 997 888 l 1064 796 m 868 507 q 994 406 933 481 q 893 278 961 324 q 822 319 861 289 q 763 379 783 350 q 868 507 808 471 z "},"च":{"ha":967,"x_min":-67,"x_max":1032,"o":"m 1008 747 l 772 747 l 856 685 l 856 -32 l 801 -56 l 668 19 l 668 146 q 528 110 604 110 q 278 199 394 110 q 161 401 161 288 q 183 488 161 446 l 54 488 l -10 579 l 14 628 l 525 628 l 596 521 l 572 474 l 422 474 q 344 329 344 422 q 360 264 344 293 q 418 257 382 257 q 560 295 490 257 q 668 396 631 333 l 668 747 l -1 747 l -67 840 l -43 888 l 967 888 l 1032 796 l 1008 747 z "},"छ":{"ha":1069,"x_min":-67,"x_max":1135,"o":"m 1111 747 l 783 747 l 867 685 l 867 643 q 974 519 933 599 q 1015 346 1015 440 q 883 39 1015 169 q 564 -92 750 -92 q 288 -1 407 -92 q 169 204 169 90 q 193 292 169 251 q 35 507 35 389 q 89 627 35 578 q 249 676 143 676 l 381 676 l 461 557 l 436 511 l 328 511 q 199 439 199 511 q 254 357 199 397 q 403 399 315 399 q 489 389 446 399 l 572 264 l 538 217 q 463 229 496 229 q 376 203 407 229 q 344 138 344 176 q 385 57 344 89 q 460 47 424 47 q 649 91 563 47 q 792 208 736 135 q 532 506 532 347 q 578 624 532 574 q 697 685 625 675 l 697 747 l -1 747 l -67 840 l -43 888 l 1069 888 l 1135 796 l 1111 747 m 833 279 q 864 419 864 349 q 833 547 864 511 q 786 560 808 560 q 724 531 749 560 q 699 458 699 501 q 833 279 699 351 z "},"ज":{"ha":999,"x_min":-67,"x_max":1064,"o":"m 1040 747 l 804 747 l 888 685 l 888 -32 l 833 -56 l 700 19 l 700 443 l 515 443 q 608 249 608 358 q 553 108 608 164 q 404 51 497 51 q 164 188 264 51 q 1 554 64 324 l 117 592 q 223 326 171 413 q 350 240 275 240 q 422 269 396 240 q 447 339 447 297 q 381 464 447 411 l 269 508 l 269 604 l 700 604 l 700 747 l -1 747 l -67 840 l -43 888 l 997 888 l 1064 796 l 1040 747 z "},"झ":{"ha":1163,"x_min":-67,"x_max":1228,"o":"m 1204 747 l 968 747 l 1051 685 l 1051 -32 l 997 -56 l 864 19 l 864 246 q 814 240 843 240 q 726 254 772 240 q 742 174 742 213 q 655 5 742 72 q 431 -72 568 -62 l 603 -224 l 456 -332 l 281 -58 q 104 31 189 -33 l 150 207 l 238 206 l 325 72 q 511 119 431 67 q 592 244 592 172 l 590 263 l 364 201 q 144 320 232 236 q 56 490 56 404 q 117 611 56 563 q 294 660 179 660 l 488 660 l 488 747 l -1 747 l -67 840 l -43 888 l 1161 888 l 1228 796 l 1204 747 m 864 747 l 574 747 l 657 685 l 657 504 l 326 504 q 245 483 276 504 q 214 431 214 463 q 250 367 214 400 l 532 429 q 731 386 644 386 q 864 424 814 386 l 864 747 z "},"ञ":{"ha":1101,"x_min":-67,"x_max":1167,"o":"m 1143 747 l 907 747 l 990 685 l 990 -32 l 936 -56 l 803 19 l 803 279 q 706 303 751 283 q 616 154 688 211 q 447 97 544 97 q 213 184 336 97 q -21 468 89 271 l 71 532 q 226 330 154 394 q 382 265 297 265 q 499 308 456 265 q 542 410 542 351 q 519 485 542 451 q 457 535 496 519 l 314 418 l 199 569 q 401 663 283 663 q 592 593 506 663 q 701 421 678 524 l 735 419 q 803 428 772 419 l 803 747 l -1 747 l -67 840 l -43 888 l 1100 888 l 1167 796 l 1143 747 z "},"ट":{"ha":792,"x_min":-67,"x_max":857,"o":"m 833 747 l 539 747 l 622 685 l 622 404 l 621 404 l 622 403 l 396 403 q 267 365 311 403 q 222 268 222 326 q 276 154 222 206 q 378 136 321 136 q 529 169 454 136 q 653 258 604 201 l 765 107 q 631 1 708 35 q 478 -33 553 -33 q 281 16 382 -33 q 113 151 179 65 q 46 338 46 236 q 124 513 46 444 q 357 582 201 582 l 440 582 l 440 747 l -1 747 l -67 840 l -43 888 l 790 888 l 857 796 l 833 747 z "},"ठ":{"ha":860,"x_min":-67,"x_max":925,"o":"m 901 747 l 543 747 l 626 685 l 626 497 q 756 360 708 439 q 803 200 803 281 q 720 21 803 89 q 508 -47 638 -47 q 195 67 333 -47 q 57 326 57 181 q 138 505 57 438 q 358 575 219 572 l 444 575 l 444 747 l -1 747 l -67 840 l -43 888 l 860 888 l 925 796 l 901 747 m 429 106 q 574 153 518 106 q 629 269 629 200 q 572 401 629 336 l 411 401 q 279 361 325 401 q 233 261 233 321 q 290 140 233 192 q 429 106 356 106 z "},"ड":{"ha":850,"x_min":-67,"x_max":915,"o":"m 892 747 l 632 747 l 715 685 l 715 501 l 393 501 q 274 432 274 501 q 313 364 274 394 l 561 428 q 729 319 668 394 q 790 157 790 243 q 712 -12 790 56 q 513 -81 633 -81 q 26 263 254 -81 l 107 328 q 456 85 261 85 q 590 127 535 85 q 644 228 644 169 l 640 258 l 429 190 q 203 312 293 226 q 114 490 114 397 q 176 615 114 565 q 360 664 238 664 l 546 664 l 546 747 l -1 747 l -67 840 l -43 888 l 849 888 l 915 796 l 892 747 z "},"ढ":{"ha":839,"x_min":-67,"x_max":904,"o":"m 881 747 l 599 747 l 682 685 l 682 444 l 425 444 q 278 392 331 444 q 226 268 226 340 q 297 113 226 181 q 483 74 388 74 l 403 128 q 376 225 376 176 q 426 339 376 296 q 549 382 475 382 q 721 306 647 382 q 794 136 794 229 q 719 -19 794 44 q 531 -82 644 -82 q 305 -22 417 -82 q 122 135 193 38 q 51 338 51 232 q 139 538 51 460 q 371 618 226 615 l 503 618 l 503 747 l -1 747 l -67 840 l -43 888 l 838 888 l 904 796 l 881 747 m 540 178 q 567 89 540 138 q 667 201 667 125 q 651 250 667 232 q 611 268 635 268 q 562 244 583 268 q 540 178 540 219 z "},"ण":{"ha":1011,"x_min":-81,"x_max":1076,"o":"m 1053 747 l 817 747 l 900 685 l 900 -32 l 846 -56 l 713 19 l 713 747 l 497 747 l 581 685 l 581 417 q 528 235 581 290 q 394 179 476 179 q 174 281 281 179 q 68 501 68 383 l 68 747 l -15 747 l -81 840 l -57 888 l 1010 888 l 1076 796 l 1053 747 m 399 747 l 171 747 l 249 685 l 249 357 q 319 321 272 321 q 399 424 399 321 l 399 747 z "},"त":{"ha":849,"x_min":-67,"x_max":914,"o":"m 890 747 l 654 747 l 738 685 l 738 -32 l 683 -56 l 550 19 l 550 421 l 401 421 q 229 297 229 421 q 407 22 229 197 l 314 -60 q 115 169 185 64 q 44 369 44 275 q 119 534 44 468 q 338 600 193 600 l 550 600 l 550 747 l -1 747 l -67 840 l -43 888 l 847 888 l 914 796 l 890 747 z "},"थ":{"ha":908,"x_min":50,"x_max":975,"o":"m 951 747 l 714 747 l 797 685 l 797 -32 l 743 -56 l 610 19 l 610 144 q 472 110 549 110 q 231 203 347 110 q 50 450 114 297 l 74 514 q 284 576 208 528 q 360 701 360 625 q 322 789 360 754 l 296 793 q 240 770 264 793 q 217 714 217 747 q 271 626 217 668 l 206 574 q 58 768 58 669 q 108 876 58 831 q 232 921 157 921 q 428 829 339 921 q 518 624 518 738 q 449 464 518 536 q 254 361 379 392 q 314 257 276 300 l 356 254 q 503 290 432 254 q 610 393 575 325 l 610 747 l 554 747 l 488 840 l 511 888 l 908 888 l 975 796 l 951 747 z "},"द":{"ha":817,"x_min":-67,"x_max":882,"o":"m 858 747 l 568 747 l 651 685 l 651 435 l 650 435 l 651 433 l 414 433 q 276 389 324 433 q 229 283 229 344 q 294 156 229 207 q 383 139 339 139 q 517 172 454 139 l 497 293 l 622 342 l 778 151 q 679 39 749 90 l 813 -208 l 628 -282 l 568 -18 q 486 -29 524 -29 q 290 22 392 -29 q 119 160 188 74 q 50 349 50 247 q 135 538 50 465 q 363 610 219 610 l 472 610 l 472 747 l -1 747 l -67 840 l -43 888 l 815 888 l 882 796 l 858 747 z "},"ध":{"ha":958,"x_min":36,"x_max":1024,"o":"m 1000 747 l 764 747 l 847 685 l 847 -32 l 793 -56 l 660 19 l 660 139 q 508 99 596 99 q 263 189 378 99 q 147 389 147 279 q 194 514 147 458 q 36 746 36 625 q 92 874 36 822 q 233 926 147 926 q 382 872 318 926 q 501 707 446 817 l 425 651 q 333 774 381 733 l 308 776 q 240 751 268 776 q 213 683 213 725 q 271 575 213 626 q 404 603 333 603 l 481 596 l 565 474 l 540 425 l 488 429 q 368 395 413 429 q 324 314 324 361 q 347 253 324 281 q 400 244 369 244 q 550 286 472 244 q 660 397 628 328 l 660 747 l 583 747 l 517 840 l 540 888 l 958 888 l 1024 796 l 1000 747 z "},"न":{"ha":818,"x_min":-67,"x_max":883,"o":"m 860 747 l 624 747 l 707 685 l 707 -32 l 653 -56 l 519 19 l 519 389 l 318 389 l 318 243 l 235 204 q 110 328 168 247 q 33 483 53 408 l 88 557 l 519 557 l 519 747 l -1 747 l -67 840 l -43 888 l 818 888 l 883 796 l 860 747 z "},"ऩ":{"ha":818,"x_min":-67,"x_max":883,"o":"m 860 747 l 624 747 l 707 685 l 707 -32 l 653 -56 l 519 19 l 519 389 l 318 389 l 318 243 l 235 204 q 110 328 168 247 q 33 483 53 408 l 88 557 l 519 557 l 519 747 l -1 747 l -67 840 l -43 888 l 818 888 l 883 796 l 860 747 m 322 -133 q 251 -92 290 -122 q 193 -33 213 -62 q 296 92 239 58 q 421 -7 360 69 q 322 -133 392 -86 z "},"प":{"ha":825,"x_min":-67,"x_max":890,"o":"m 867 747 l 631 747 l 714 685 l 714 -32 l 660 -56 l 526 19 l 526 189 q 432 165 479 165 q 189 278 310 165 q 68 518 68 392 l 68 747 l -1 747 l -67 840 l -43 888 l 825 888 l 890 796 l 867 747 m 526 747 l 181 747 l 264 685 l 264 368 q 357 328 299 328 q 455 355 408 328 q 526 433 501 382 l 526 747 z "},"फ":{"ha":1126,"x_min":-67,"x_max":1192,"o":"m 1168 747 l 582 747 l 665 685 l 665 543 q 832 608 744 608 q 1012 524 935 608 q 1089 329 1089 440 q 868 4 1089 150 l 736 143 q 883 269 833 215 q 933 374 933 324 q 869 439 933 439 q 665 303 781 439 l 665 -32 l 611 -56 l 478 19 l 478 194 q 426 188 450 188 q 192 298 310 188 q 68 529 75 408 l 68 747 l -1 747 l -67 840 l -43 888 l 1126 888 l 1192 796 l 1168 747 m 478 747 l 181 747 l 264 685 l 264 396 q 357 347 296 347 q 478 404 426 347 l 478 747 z "},"ब":{"ha":863,"x_min":-67,"x_max":928,"o":"m 904 747 l 668 747 l 751 685 l 751 -32 l 697 -56 l 564 19 l 564 131 q 431 99 503 99 q 253 142 346 99 q 98 261 160 186 q 36 426 36 336 q 110 597 36 526 q 296 667 185 667 q 371 658 333 667 l 564 565 l 564 747 l -1 747 l -67 840 l -43 888 l 861 888 l 928 796 l 904 747 m 504 290 q 564 353 539 314 l 564 463 q 390 514 472 514 l 360 513 l 504 290 m 254 257 q 340 239 293 239 q 431 254 382 239 l 282 482 q 219 357 219 439 q 254 257 219 300 z "},"भ":{"ha":951,"x_min":-21,"x_max":1011,"o":"m 988 747 l 750 747 l 833 685 l 833 -32 l 779 -56 l 646 19 l 646 290 l 446 290 l 446 163 l 367 124 q 216 233 296 153 q 111 383 136 313 l 156 451 l 263 451 l 263 682 q 229 789 263 760 q 163 769 189 792 q 136 713 136 747 q 199 617 136 660 l 135 557 q -21 765 -21 661 q 28 876 -21 831 q 150 921 76 921 q 351 824 258 921 q 443 613 443 728 l 443 451 l 646 451 l 646 747 l 567 747 l 500 840 l 524 888 l 944 888 l 1011 796 l 988 747 z "},"म":{"ha":922,"x_min":-67,"x_max":988,"o":"m 964 747 l 728 747 l 811 685 l 811 -32 l 757 -56 l 624 19 l 624 281 l 379 281 l 379 157 l 300 117 q 149 226 229 146 q 44 378 69 306 l 89 444 l 196 444 l 183 747 l -1 747 l -67 840 l -43 888 l 922 888 l 988 796 l 964 747 m 624 747 l 288 747 l 371 685 l 374 444 l 624 444 l 624 747 z "},"य":{"ha":881,"x_min":-67,"x_max":946,"o":"m 922 747 l 686 747 l 769 685 l 769 -32 l 715 -56 l 582 19 l 582 143 q 453 110 524 110 q 211 203 328 110 q 31 450 94 297 l 54 514 q 221 553 172 529 q 269 622 269 578 q 172 747 269 685 l -1 747 l -67 840 l -43 888 l 881 888 l 946 796 l 922 747 m 582 747 l 318 747 q 443 549 443 654 q 240 361 443 403 q 294 257 260 300 l 340 253 q 479 289 411 253 q 582 390 547 325 l 582 747 z "},"र":{"ha":624,"x_min":-67,"x_max":689,"o":"m 665 747 l 375 747 l 458 686 l 458 503 q 421 389 458 439 q 308 283 383 339 l 614 76 l 614 28 l 490 -81 l 36 371 l 78 482 l 263 482 l 267 506 l 267 747 l -1 747 l -67 840 l -43 888 l 622 888 l 689 796 l 665 747 z "},"ऱ":{"ha":624,"x_min":-67,"x_max":689,"o":"m 665 747 l 375 747 l 458 686 l 458 503 q 421 389 458 439 q 308 283 383 339 l 614 76 l 614 28 l 490 -81 l 36 371 l 78 482 l 263 482 l 267 506 l 267 747 l -1 747 l -67 840 l -43 888 l 622 888 l 689 796 l 665 747 m 199 -185 q 128 -144 167 -174 q 69 -85 89 -114 q 172 40 115 7 q 297 -58 236 18 q 199 -185 268 -137 z "},"ल":{"ha":1025,"x_min":-67,"x_max":1088,"o":"m 1064 747 l 828 747 l 911 685 l 911 -32 l 857 -56 l 724 19 l 724 486 q 615 390 656 463 q 571 213 574 318 l 525 186 l 388 278 q 421 433 389 364 q 347 456 385 456 q 261 422 297 456 q 225 329 225 389 q 290 184 225 254 q 483 32 356 114 l 410 -65 q 32 397 32 164 q 99 564 32 499 q 260 629 165 629 q 351 608 310 629 l 467 503 q 724 608 564 614 l 724 747 l -1 747 l -67 840 l -43 888 l 1021 888 l 1088 796 l 1064 747 z "},"ळ":{"ha":1061,"x_min":-67,"x_max":1126,"o":"m 1103 747 l 744 747 l 828 685 l 828 579 q 969 444 913 536 q 1026 243 1026 351 q 956 45 1026 124 q 776 -33 885 -33 q 649 -1 708 -33 l 540 114 q 336 -33 447 -33 q 128 72 218 -33 q 38 322 38 178 q 111 531 38 446 q 293 615 185 615 q 396 590 343 615 l 535 446 q 640 581 586 544 l 640 747 l -1 747 l -67 840 l -43 888 l 1061 888 l 1126 796 l 1103 747 m 719 117 q 826 171 788 117 q 865 296 865 225 q 837 408 865 356 q 758 481 808 461 l 699 394 l 588 193 q 719 117 649 117 m 297 83 q 488 353 392 157 q 343 447 413 447 q 244 392 283 447 q 204 265 204 338 q 230 158 204 208 q 297 83 256 107 z "},"ऴ":{"ha":1061,"x_min":-67,"x_max":1126,"o":"m 1103 747 l 744 747 l 828 685 l 828 579 q 969 444 913 536 q 1026 243 1026 351 q 956 45 1026 124 q 776 -33 885 -33 q 649 -1 708 -33 l 540 114 q 336 -33 447 -33 q 128 72 218 -33 q 38 322 38 178 q 111 531 38 446 q 293 615 185 615 q 396 590 343 615 l 535 446 q 640 581 586 544 l 640 747 l -1 747 l -67 840 l -43 888 l 1061 888 l 1126 796 l 1103 747 m 719 117 q 826 171 788 117 q 865 296 865 225 q 837 408 865 356 q 758 481 808 461 l 699 394 l 588 193 q 719 117 649 117 m 297 83 q 488 353 392 157 q 343 447 413 447 q 244 392 283 447 q 204 265 204 338 q 230 158 204 208 q 297 83 256 107 m 556 -224 q 485 -183 524 -212 q 426 -124 446 -153 q 529 1 472 -32 q 654 -97 593 -21 q 556 -224 625 -176 z "},"व":{"ha":854,"x_min":-67,"x_max":919,"o":"m 896 747 l 660 747 l 743 685 l 743 -32 l 689 -56 l 556 19 l 556 140 q 428 106 494 106 q 252 147 344 106 q 98 262 160 189 q 36 425 36 335 q 110 592 36 525 q 294 660 185 660 q 369 651 331 660 l 556 567 l 556 747 l -1 747 l -67 840 l -43 888 l 854 888 l 919 796 l 896 747 m 261 264 q 326 254 289 254 q 454 284 390 254 q 556 368 518 314 l 556 463 q 400 506 478 506 q 274 461 319 506 q 229 356 229 417 q 261 264 229 304 z "},"श":{"ha":1111,"x_min":-67,"x_max":1176,"o":"m 1153 747 l 917 747 l 1000 685 l 1000 -32 l 946 -56 l 813 19 l 813 747 l 599 747 q 682 535 682 658 q 607 335 682 433 q 393 179 532 238 l 650 65 l 657 15 l 542 -100 l 258 131 q 158 142 210 128 q 79 182 107 157 l 133 363 l 193 376 l 265 307 q 403 381 343 333 q 193 486 274 410 q 113 656 113 563 q 135 747 113 703 l -1 747 l -67 840 l -43 888 l 1110 888 l 1176 796 l 1153 747 m 474 456 q 519 606 519 524 q 485 716 519 676 q 401 756 451 756 q 327 723 356 756 q 299 639 299 690 q 345 524 299 575 q 474 456 392 472 z "},"ष":{"ha":860,"x_min":-67,"x_max":925,"o":"m 901 747 l 665 747 l 749 685 l 749 -32 l 694 -56 l 561 19 l 561 188 q 454 163 511 163 q 197 271 321 163 q 68 506 72 379 l 68 747 l -1 747 l -67 840 l -43 888 l 860 888 l 925 796 l 901 747 m 561 747 l 322 747 l 556 435 l 561 447 l 561 747 m 369 321 q 501 365 447 321 l 260 689 l 260 368 q 369 321 293 321 z "},"स":{"ha":1046,"x_min":-74,"x_max":1111,"o":"m 1088 747 l 851 747 l 935 685 l 935 -32 l 881 -56 l 747 19 l 747 314 l 340 314 l 301 283 l 607 76 l 607 28 l 483 -81 l 29 371 l 71 482 l 256 482 l 260 506 l 260 747 l -8 747 l -74 840 l -50 888 l 1044 888 l 1111 796 l 1088 747 m 747 747 l 368 747 l 451 686 l 451 503 l 447 465 l 747 465 l 747 747 z "},"ह":{"ha":801,"x_min":-67,"x_max":867,"o":"m 843 747 l 607 747 l 690 685 l 690 501 l 346 501 q 226 433 226 501 q 244 386 226 408 q 407 421 314 421 q 646 346 547 421 q 744 158 744 271 q 619 -40 744 35 l 478 78 q 563 158 528 113 q 599 238 597 203 q 481 271 551 271 q 344 229 401 271 q 286 117 286 188 q 401 -45 286 17 q 704 -149 515 -107 l 665 -265 q 251 -99 404 -214 q 97 164 97 15 q 168 335 97 267 q 71 507 71 417 q 126 619 71 572 q 297 665 181 665 l 521 665 l 521 747 l -1 747 l -67 840 l -43 888 l 800 888 l 867 796 l 843 747 z "},"क़":{"ha":1090,"x_min":-67,"x_max":1156,"o":"m 256 -139 q 185 -98 224 -128 q 126 -39 146 -68 q 229 86 172 53 q 354 -12 293 64 q 256 -139 325 -92 m 1132 747 l 558 747 l 642 685 l 642 538 q 800 597 718 597 q 980 513 903 597 q 1057 319 1057 429 q 836 -7 1057 142 l 704 133 q 852 259 803 206 q 901 363 901 313 q 836 428 901 428 q 642 296 753 428 l 642 -32 l 588 -56 l 454 19 l 454 147 q 367 129 411 129 q 136 216 242 129 q 31 419 31 303 q 97 578 31 514 q 264 643 164 643 l 325 636 l 454 569 l 454 747 l -1 747 l -67 840 l -43 888 l 1090 888 l 1156 796 l 1132 747 m 236 275 q 278 269 253 269 q 454 364 381 269 l 454 474 q 356 497 403 497 q 250 455 290 497 q 210 356 210 413 q 236 275 210 311 z "},"ख़":{"ha":1182,"x_min":-67,"x_max":1249,"o":"m 1225 747 l 988 747 l 1071 685 l 1071 -32 l 1017 -56 l 896 13 q 646 -53 790 -53 q 298 68 461 -53 q 54 385 135 189 l 96 482 l 272 482 q 279 528 279 506 l 278 747 l -1 747 l -67 840 l -43 888 l 1182 888 l 1249 796 l 1225 747 m 883 747 l 379 747 l 463 686 l 463 510 q 437 408 463 449 q 353 319 411 367 l 289 264 q 436 131 343 178 q 631 85 529 85 q 883 167 781 85 l 883 190 q 810 176 851 176 q 592 258 693 176 q 492 446 492 340 q 553 593 492 531 q 706 656 615 656 l 760 650 l 883 578 l 883 747 m 883 496 q 788 518 835 518 q 687 480 724 518 q 650 390 650 442 q 678 313 650 344 q 732 304 703 304 q 883 382 832 304 l 883 496 m 268 -207 q 197 -166 236 -196 q 139 -107 158 -136 q 242 18 185 -15 q 367 -81 306 -4 q 268 -207 338 -160 z "},"ग़":{"ha":889,"x_min":-67,"x_max":954,"o":"m 931 747 l 694 747 l 778 685 l 778 -32 l 724 -56 l 590 19 l 590 747 l 285 747 l 368 685 l 368 297 l 367 297 l 367 190 l 289 150 q 137 253 214 181 q 36 397 60 326 l 81 464 l 185 464 l 182 747 l -1 747 l -67 840 l -43 888 l 889 888 l 954 796 l 931 747 m 397 -143 q 326 -102 365 -132 q 268 -43 288 -72 q 371 82 314 49 q 496 -17 435 60 q 397 -143 467 -96 z "},"ज़":{"ha":999,"x_min":-67,"x_max":1064,"o":"m 1040 747 l 804 747 l 888 685 l 888 -32 l 833 -56 l 700 19 l 700 443 l 515 443 q 608 249 608 358 q 553 108 608 164 q 404 51 497 51 q 164 188 264 51 q 1 554 64 324 l 117 592 q 223 326 171 413 q 350 240 275 240 q 422 269 396 240 q 447 339 447 297 q 381 464 447 411 l 269 508 l 269 604 l 700 604 l 700 747 l -1 747 l -67 840 l -43 888 l 997 888 l 1064 796 l 1040 747 m 457 -210 q 386 -169 425 -199 q 328 -110 347 -139 q 431 15 374 -18 q 556 -83 494 -7 q 457 -210 526 -162 z "},"ड़":{"ha":850,"x_min":-67,"x_max":915,"o":"m 892 747 l 632 747 l 715 685 l 715 501 l 393 501 q 274 432 274 501 q 313 364 274 394 l 561 428 q 729 319 668 394 q 790 157 790 243 q 712 -12 790 56 q 513 -81 633 -81 q 26 263 254 -81 l 107 328 q 456 85 261 85 q 590 127 535 85 q 644 228 644 169 l 640 258 l 429 190 q 203 312 293 226 q 114 490 114 397 q 176 615 114 565 q 360 664 238 664 l 546 664 l 546 747 l -1 747 l -67 840 l -43 888 l 849 888 l 915 796 l 892 747 m 500 -335 q 429 -294 468 -324 q 371 -235 390 -264 q 474 -110 417 -143 q 599 -208 538 -132 q 500 -335 569 -287 z "},"ढ़":{"ha":839,"x_min":-67,"x_max":904,"o":"m 881 747 l 599 747 l 682 685 l 682 444 l 425 444 q 278 392 331 444 q 226 268 226 340 q 297 113 226 181 q 483 74 388 74 l 403 128 q 376 225 376 176 q 426 339 376 296 q 549 382 475 382 q 721 306 647 382 q 794 136 794 229 q 719 -19 794 44 q 531 -82 644 -82 q 305 -22 417 -82 q 122 135 193 38 q 51 338 51 232 q 139 538 51 460 q 371 618 226 615 l 503 618 l 503 747 l -1 747 l -67 840 l -43 888 l 838 888 l 904 796 l 881 747 m 540 178 q 567 89 540 138 q 667 201 667 125 q 651 250 667 232 q 611 268 635 268 q 562 244 583 268 q 540 178 540 219 m 514 -333 q 443 -292 482 -322 q 385 -233 404 -262 q 488 -108 431 -142 q 613 -207 551 -131 q 514 -333 583 -286 z "},"फ़":{"ha":1126,"x_min":-67,"x_max":1192,"o":"m 1168 747 l 582 747 l 665 685 l 665 543 q 832 608 744 608 q 1012 524 935 608 q 1089 329 1089 440 q 868 4 1089 150 l 736 143 q 883 269 833 215 q 933 374 933 324 q 869 439 933 439 q 665 303 781 439 l 665 -32 l 611 -56 l 478 19 l 478 194 q 426 188 450 188 q 192 298 310 188 q 68 529 75 408 l 68 747 l -1 747 l -67 840 l -43 888 l 1126 888 l 1192 796 l 1168 747 m 478 747 l 181 747 l 264 685 l 264 396 q 357 347 296 347 q 478 404 426 347 l 478 747 m 278 -93 q 207 -52 246 -82 q 149 7 168 -22 q 251 132 194 99 q 376 33 315 110 q 278 -93 347 -46 z "},"य़":{"ha":881,"x_min":-67,"x_max":946,"o":"m 922 747 l 686 747 l 769 685 l 769 -32 l 715 -56 l 582 19 l 582 143 q 453 110 524 110 q 211 203 328 110 q 31 450 94 297 l 54 514 q 221 553 172 529 q 269 622 269 578 q 172 747 269 685 l -1 747 l -67 840 l -43 888 l 881 888 l 946 796 l 922 747 m 582 747 l 318 747 q 443 549 443 654 q 240 361 443 403 q 294 257 260 300 l 340 253 q 479 289 411 253 q 582 390 547 325 l 582 747 m 308 -139 q 238 -98 276 -128 q 179 -39 199 -68 q 282 86 225 53 q 407 -12 346 64 q 308 -139 378 -92 z "},"ॹ":{"ha":999,"x_min":-67,"x_max":1064,"o":"m 1040 747 l 804 747 l 888 685 l 888 -32 l 833 -56 l 700 19 l 700 443 l 515 443 q 608 249 608 358 q 553 108 608 164 q 404 51 497 51 q 164 188 264 51 q 1 554 64 324 l 117 592 q 223 326 171 413 q 350 240 275 240 q 422 269 396 240 q 447 339 447 297 q 381 464 447 411 l 269 508 l 269 604 l 700 604 l 700 747 l -1 747 l -67 840 l -43 888 l 997 888 l 1064 796 l 1040 747 m 286 -208 q 215 -167 254 -197 q 157 -108 176 -137 q 260 17 203 -17 q 385 -82 324 -6 q 286 -208 356 -161 m 438 -372 q 367 -331 406 -361 q 308 -272 328 -301 q 411 -147 354 -181 q 536 -246 475 -169 q 438 -372 507 -325 m 576 -208 q 506 -167 544 -197 q 447 -108 467 -137 q 550 17 493 -17 q 675 -82 614 -6 q 576 -208 646 -161 z "},"ॺ":{"ha":881,"x_min":-67,"x_max":946,"o":"m 922 747 l 686 747 l 769 685 l 769 -32 l 715 -56 l 582 19 l 582 143 q 453 110 524 110 q 211 203 328 110 q 31 450 94 297 l 54 514 q 221 553 172 529 q 269 622 269 578 q 172 747 269 685 l -1 747 l -67 840 l -43 888 l 881 888 l 946 796 l 922 747 m 582 747 l 318 747 q 443 549 443 654 l 442 526 l 582 401 l 582 747 m 294 257 l 339 253 q 525 319 444 253 l 396 435 q 240 361 344 383 q 294 257 260 300 z "},"ॻ":{"ha":889,"x_min":-67,"x_max":954,"o":"m 931 747 l 694 747 l 778 685 l 778 -129 l 740 -176 l 165 -176 l 99 -85 l 122 -36 l 590 -36 l 590 747 l 285 747 l 368 685 l 368 297 l 367 297 l 367 190 l 289 150 q 137 253 214 181 q 36 397 60 326 l 81 464 l 185 464 l 182 747 l -1 747 l -67 840 l -43 888 l 889 888 l 954 796 l 931 747 z "},"ॼ":{"ha":999,"x_min":-67,"x_max":1064,"o":"m 1040 747 l 804 747 l 888 685 l 888 -129 l 850 -176 l 179 -176 l 113 -85 l 136 -36 l 700 -36 l 700 450 l 515 450 q 608 256 608 365 q 553 115 608 171 q 404 58 497 58 q 164 194 264 58 q 1 561 64 331 l 117 599 q 223 333 171 419 q 350 247 275 247 q 422 276 396 247 q 447 346 447 304 q 381 471 447 418 l 269 515 l 269 611 l 700 611 l 700 747 l -1 747 l -67 840 l -43 888 l 997 888 l 1064 796 l 1040 747 z "},"ॾ":{"ha":850,"x_min":-67,"x_max":915,"o":"m 915 796 l 892 747 l 632 747 l 715 685 l 715 501 l 393 501 q 274 432 274 501 q 313 364 274 394 l 561 428 q 729 319 668 394 q 790 157 790 243 q 712 -12 790 56 q 513 -81 633 -81 q 26 263 254 -81 l 107 328 q 456 85 261 85 q 590 127 535 85 q 644 228 644 169 l 640 258 l 429 190 q 203 312 293 226 q 114 490 114 397 q 176 615 114 565 q 360 664 238 664 l 546 664 l 546 747 l -1 747 l -67 840 l -43 888 l 849 888 l 915 796 m 764 -135 l 831 -228 l 807 -275 l 192 -275 l 125 -183 l 149 -135 l 764 -135 z "},"ॿ":{"ha":863,"x_min":-67,"x_max":928,"o":"m 904 747 l 668 747 l 751 685 l 751 -87 l 750 -87 l 750 -129 l 713 -176 l 165 -176 l 99 -85 l 122 -36 l 564 -36 l 564 131 q 431 99 503 99 q 253 142 346 99 q 98 261 160 186 q 36 426 36 336 q 110 597 36 526 q 296 667 185 667 q 371 658 333 667 l 564 565 l 564 747 l -1 747 l -67 840 l -43 888 l 861 888 l 928 796 l 904 747 m 504 290 q 564 353 539 314 l 564 463 q 390 514 472 514 l 360 513 l 504 290 m 254 257 q 340 239 293 239 q 431 254 382 239 l 282 482 q 219 357 219 439 q 254 257 219 300 z "},"ऽ":{"ha":819,"x_min":100,"x_max":707,"o":"m 293 621 q 322 571 293 593 q 414 518 351 549 l 469 489 q 643 363 579 432 q 707 200 707 294 q 637 34 707 100 q 458 -32 567 -32 q 242 53 338 -32 q 100 271 147 139 l 208 338 q 424 122 285 122 q 512 151 475 122 q 549 229 549 181 q 476 338 549 290 l 260 467 q 132 656 132 551 q 196 782 132 733 q 382 831 260 831 l 608 831 l 678 719 l 651 672 l 408 672 q 293 621 293 672 z "},"ॽ":{"ha":790,"x_min":115,"x_max":700,"o":"m 700 564 q 464 282 700 379 l 464 -32 l 410 -56 l 285 19 l 285 422 q 467 501 406 444 q 528 624 528 557 q 486 722 528 681 q 349 692 433 725 q 201 614 265 660 l 115 783 q 374 886 249 886 q 599 789 499 886 q 700 564 700 692 z "},"ा":{"ha":403,"x_min":-67,"x_max":468,"o":"m 444 747 l 208 747 l 292 685 l 292 -32 l 238 -56 l 104 19 l 104 747 l -1 747 l -67 840 l -43 888 l 401 888 l 468 796 l 444 747 z "},"ि":{"ha":403,"x_min":-67,"x_max":1017,"o":"m 418 1165 q 253 1121 318 1165 q 188 1000 188 1076 q 228 888 188 947 l 401 888 l 468 796 l 444 747 l 215 747 l 299 685 l 299 -32 l 244 -56 l 111 19 l 111 747 l -1 747 l -67 840 l -43 888 l 111 888 q 24 1082 24 978 q 112 1264 24 1194 q 336 1333 200 1333 q 642 1253 468 1333 q 1017 985 817 1172 l 957 911 q 418 1165 638 1165 z "},"ी":{"ha":403,"x_min":-417,"x_max":468,"o":"m 444 747 l 208 747 l 292 685 l 292 -32 l 238 -56 l 104 19 l 104 747 l -1 747 l -67 840 l -43 888 l 110 888 q 6 1101 64 1022 q -135 1179 -51 1179 q -226 1145 -190 1179 q -261 1063 -261 1111 q -219 951 -261 1013 l -290 911 q -417 1142 -417 1014 q -353 1292 -417 1233 q -189 1351 -289 1351 q 69 1222 -37 1351 q 235 888 175 1093 l 401 888 l 468 796 l 444 747 z "},"ु":{"ha":0,"x_min":-712,"x_max":-10,"o":"m -439 -81 q -251 35 -371 35 q -83 -43 -157 35 q -10 -219 -10 -121 q -76 -369 -10 -310 q -237 -428 -142 -428 q -712 -111 -451 -428 l -633 -37 q -441 -222 -517 -164 q -289 -279 -365 -279 q -188 -244 -226 -279 q -150 -161 -150 -208 q -197 -78 -150 -108 l -322 -199 l -439 -81 z "},"ू":{"ha":0,"x_min":-499,"x_max":179,"o":"m -90 -332 q -254 -407 -165 -407 q -422 -335 -346 -407 q -499 -174 -499 -264 q -431 -28 -499 -87 q -271 32 -364 32 q 47 -185 -115 32 l 179 -372 l 94 -442 q -119 -172 -64 -219 q -232 -125 -175 -125 q -324 -160 -289 -125 q -360 -239 -360 -196 q -333 -296 -360 -271 l -185 -203 l -90 -332 z "},"ृ":{"ha":0,"x_min":-492,"x_max":29,"o":"m -111 -86 q -274 -145 -200 -104 q -347 -233 -347 -186 q -272 -287 -347 -287 q -162 -257 -225 -287 q -51 -185 -99 -226 l 29 -343 q -200 -439 -69 -439 q -402 -363 -312 -439 q -492 -185 -492 -287 q -399 -17 -492 -85 q -140 65 -307 51 l -111 65 l -111 -86 z "},"ॄ":{"ha":0,"x_min":-465,"x_max":115,"o":"m 115 -449 q -92 -543 26 -543 q -263 -478 -186 -543 q -340 -333 -340 -412 q -332 -290 -340 -311 q -465 -136 -465 -232 q -157 67 -465 6 l -111 67 l -111 -79 q -321 -186 -321 -124 q -285 -228 -321 -215 q -72 -140 -214 -171 l 3 -237 l -24 -289 q -159 -333 -112 -307 q -206 -383 -206 -358 q -164 -412 -206 -412 q -65 -382 -124 -412 q 31 -314 -6 -351 l 115 -449 z "},"ॢ":{"ha":0,"x_min":-275,"x_max":276,"o":"m 276 -425 q 164 -503 238 -503 q 75 -466 115 -503 q 35 -379 35 -429 q 76 -289 35 -340 q 124 -224 118 -237 q 131 -196 131 -211 q 92 -149 131 -149 q 38 -190 61 -149 q 15 -297 14 -232 l -76 -296 l -79 -260 q -68 -183 -79 -221 q -111 -165 -87 -165 q -168 -226 -168 -165 q -57 -372 -168 -297 l -107 -425 q -275 -200 -275 -314 q -237 -103 -275 -143 q -143 -64 -199 -64 q -36 -119 -81 -64 q 75 -64 8 -64 q 177 -108 135 -64 q 219 -207 219 -151 q 165 -328 219 -265 q 115 -404 115 -378 q 142 -431 115 -431 q 179 -413 158 -431 q 213 -371 200 -396 l 276 -425 z "},"ॣ":{"ha":0,"x_min":-299,"x_max":300,"o":"m 300 -525 q 194 -587 260 -587 q 115 -558 151 -587 q 79 -485 79 -529 l 81 -474 q 11 -379 11 -440 q 53 -289 11 -340 q 101 -224 94 -237 q 107 -196 107 -211 q 68 -149 107 -149 q 13 -191 35 -149 q -8 -297 -10 -233 l -100 -296 l -103 -260 q -92 -183 -103 -221 q -135 -165 -111 -165 q -192 -226 -192 -165 q -81 -372 -192 -297 l -131 -425 q -299 -200 -299 -314 q -260 -103 -299 -143 q -167 -64 -222 -64 q -60 -119 -104 -64 q 51 -64 -15 -64 q 153 -108 111 -64 q 196 -207 196 -151 q 142 -328 196 -265 q 92 -404 92 -378 q 103 -426 92 -419 q 201 -375 135 -389 l 229 -442 q 164 -469 186 -451 q 142 -503 142 -487 q 168 -525 142 -525 q 249 -476 210 -525 l 300 -525 z "},"ॅ":{"ha":0,"x_min":-557,"x_max":17,"o":"m 17 1200 q -69 1028 -4 1092 q -232 964 -135 964 q -414 1026 -326 964 q -557 1206 -501 1089 l -476 1275 q -282 1118 -394 1118 q -131 1274 -161 1118 l 17 1200 z "},"ॆ":{"ha":0,"x_min":-782,"x_max":-151,"o":"m -679 1376 q -619 1258 -667 1297 q -444 1203 -571 1218 q -267 1156 -317 1188 q -151 864 -156 1085 l -264 864 q -306 971 -267 935 q -467 1022 -344 1007 q -621 1060 -561 1036 q -727 1154 -681 1083 q -782 1363 -774 1225 l -679 1376 z "},"े":{"ha":0,"x_min":-801,"x_max":-146,"o":"m -801 1250 q -607 1317 -700 1317 q -306 1106 -442 1317 l -146 861 l -242 811 l -378 1022 q -532 1129 -446 1129 q -701 1063 -601 1129 l -801 1250 z "},"ै":{"ha":0,"x_min":-814,"x_max":-133,"o":"m -133 832 l -232 789 l -422 979 q -556 1043 -486 1043 q -722 981 -624 1043 l -814 1140 q -626 1214 -712 1214 q -390 1076 -508 1214 l -240 899 l -321 1110 q -406 1259 -361 1213 q -519 1306 -451 1306 q -660 1274 -575 1306 l -733 1458 q -569 1497 -644 1497 q -247 1182 -354 1497 l -133 832 z "},"ॉ":{"ha":403,"x_min":-310,"x_max":468,"o":"m 444 747 l 208 747 l 292 685 l 292 -32 l 238 -56 l 104 19 l 104 747 l -1 747 l -67 840 l -43 888 l 401 888 l 468 796 l 444 747 m 264 1186 q 178 1014 243 1078 q 15 950 113 950 q -167 1013 -79 950 q -310 1192 -254 1075 l -229 1261 q -35 1104 -147 1104 q 117 1260 86 1104 l 264 1186 z "},"ॊ":{"ha":403,"x_min":-378,"x_max":468,"o":"m 444 747 l 208 747 l 292 685 l 292 -32 l 238 -56 l 104 19 l 104 747 l -1 747 l -67 840 l -43 888 l 138 888 q 33 1004 125 981 l -144 1038 l -199 1053 q -378 1363 -362 1107 l -275 1376 q -137 1219 -254 1247 l 38 1190 l 88 1178 q 251 888 242 1131 l 401 888 l 468 796 l 444 747 z "},"ो":{"ha":403,"x_min":-419,"x_max":468,"o":"m 444 747 l 208 747 l 292 685 l 292 -32 l 238 -56 l 104 19 l 104 747 l -1 747 l -67 840 l -43 888 l 88 888 l -1 1026 q -150 1122 -67 1122 q -319 1056 -219 1122 l -419 1243 q -225 1310 -317 1310 q 78 1099 -61 1310 l 215 888 l 401 888 l 468 796 l 444 747 z "},"ौ":{"ha":403,"x_min":-417,"x_max":468,"o":"m 444 747 l 208 747 l 292 685 l 292 -32 l 238 -56 l 104 19 l 104 747 l -1 747 l -67 840 l -43 888 l 56 888 l -22 956 q -162 1021 -93 1021 q -325 960 -228 1021 l -417 1119 q -235 1190 -322 1190 q 17 1046 -117 1190 l 157 893 l 78 1089 q -10 1239 35 1193 q -124 1285 -56 1285 q -262 1253 -179 1285 l -336 1438 q -174 1476 -247 1476 q 144 1176 33 1476 l 246 888 l 401 888 l 468 796 l 444 747 z "},"ॖ":{"ha":0,"x_min":-689,"x_max":-96,"o":"m -640 -93 q -421 -181 -544 -181 q -181 -86 -278 -181 l -96 -221 q -206 -304 -133 -272 q -360 -336 -278 -336 q -545 -289 -456 -336 q -689 -151 -635 -242 l -640 -93 z "},"ॗ":{"ha":0,"x_min":-689,"x_max":-96,"o":"m -640 -357 q -421 -444 -544 -444 q -181 -350 -278 -444 l -96 -485 q -206 -568 -133 -536 q -360 -600 -278 -600 q -545 -553 -456 -600 q -689 -415 -635 -506 l -640 -357 m -640 -93 q -421 -181 -544 -181 q -181 -86 -278 -181 l -96 -221 q -206 -304 -133 -272 q -360 -336 -278 -336 q -545 -289 -456 -336 q -689 -151 -635 -242 l -640 -93 z "},"ऺ":{"ha":0,"x_min":-285,"x_max":-156,"o":"m -156 794 l -194 776 l -285 824 l -285 1132 l -156 1132 l -156 794 z "},"ऻ":{"ha":403,"x_min":-67,"x_max":468,"o":"m 444 747 l 208 747 l 292 685 l 292 -32 l 238 -56 l 104 19 l 104 747 l -1 747 l -67 840 l -43 888 l 113 888 l 113 1132 l 242 1132 l 242 888 l 401 888 l 468 796 l 444 747 z "},"ॏ":{"ha":403,"x_min":-399,"x_max":468,"o":"m 444 747 l 208 747 l 292 685 l 292 -32 l 238 -56 l 104 19 l 104 747 l -1 747 l -67 840 l -43 888 l 124 888 q 79 949 111 936 q -19 963 47 963 l -129 963 q -307 1022 -231 963 q -399 1203 -383 1082 l -297 1236 q -249 1131 -279 1163 q -164 1100 -218 1100 l -100 1100 q 64 1071 8 1100 l 69 1082 q -4 1124 44 1103 l -82 1154 q -214 1333 -214 1206 q -192 1442 -214 1379 l -82 1428 q -94 1363 -94 1389 q -33 1278 -94 1311 l 75 1226 q 250 940 250 1144 l 247 888 l 401 888 l 468 796 l 444 747 z "},"ॕ":{"ha":479,"x_min":-82,"x_max":535,"o":"m 492 1200 q 406 1028 471 1092 q 243 964 340 964 q 61 1026 149 964 q -82 1206 -26 1089 l -1 1275 q 193 1118 81 1118 q 344 1274 314 1118 l 492 1200 m -67 840 l -43 888 l 468 888 l 535 796 l 511 747 l -1 747 l -67 840 z "},"्":{"ha":0,"x_min":-414,"x_max":150,"o":"m -168 -232 l -300 -297 l -414 -182 q -224 -103 -315 -103 q -61 -178 -146 -103 l 150 -378 l 79 -453 l -168 -232 z "},"ऀ":{"ha":0,"x_min":-611,"x_max":-11,"o":"m -611 1160 q -521 1333 -592 1268 q -350 1397 -450 1397 q -159 1334 -253 1397 q -11 1154 -65 1271 l -92 1086 q -300 1242 -174 1242 q -405 1202 -360 1242 q -465 1086 -450 1163 l -611 1160 m -276 1168 q -181 1046 -208 1121 q -301 950 -235 975 q -401 1072 -362 989 q -344 1128 -382 1099 q -276 1168 -307 1157 z "},"ँ":{"ha":0,"x_min":-587,"x_max":14,"o":"m -290 1169 q -358 1210 -321 1181 q -415 1265 -396 1239 q -315 1388 -376 1349 q -194 1292 -249 1363 q -290 1169 -222 1217 m 14 1186 q -78 1015 -7 1079 q -249 950 -149 950 q -439 1013 -346 950 q -587 1192 -532 1076 l -507 1261 q -299 1104 -425 1104 q -194 1144 -239 1104 q -133 1260 -149 1183 l 14 1186 z "},"ं":{"ha":0,"x_min":-137,"x_max":104,"o":"m -1 990 q -76 1034 -35 1003 q -137 1094 -117 1065 q -28 1229 -89 1192 q 104 1124 46 1200 q -1 990 71 1038 z "},"ः":{"ha":403,"x_min":74,"x_max":306,"o":"m 203 431 q 133 472 172 442 q 74 531 94 501 q 178 656 125 626 q 301 557 240 633 q 203 431 272 478 m 207 65 q 138 106 176 76 q 78 164 99 136 q 182 290 124 256 q 249 248 214 278 q 306 190 285 218 q 207 65 278 115 z "},"़":{"ha":0,"x_min":-108,"x_max":119,"o":"m 21 -286 q -50 -245 -11 -275 q -108 -186 -89 -215 q -6 -61 -62 -94 q 119 -160 58 -83 q 21 -286 90 -239 z "},"॑":{"ha":0,"x_min":-276,"x_max":-147,"o":"m -147 997 l -186 979 l -276 1026 l -276 1360 l -239 1378 l -147 1331 l -147 997 z "},"॒":{"ha":0,"x_min":-531,"x_max":-62,"o":"m -531 -192 l -512 -153 l -110 -153 l -62 -244 l -81 -282 l -483 -282 l -531 -192 z "},"॓":{"ha":0,"x_min":-449,"x_max":-111,"o":"m -111 1044 l -171 974 l -214 974 l -449 1210 l -386 1281 l -343 1281 l -111 1044 z "},"॔":{"ha":0,"x_min":-353,"x_max":-12,"o":"m -289 976 l -353 1047 l -118 1279 l -75 1279 l -12 1201 l -246 976 l -289 976 z "},"ॱ":{"ha":481,"x_min":119,"x_max":361,"o":"m 256 701 q 181 745 222 714 q 119 806 140 776 q 229 940 168 903 q 361 835 303 911 q 256 701 328 749 z "},"०":{"ha":714,"x_min":42,"x_max":665,"o":"m 407 106 q 157 216 272 106 q 42 465 42 326 q 124 656 42 578 q 315 735 206 735 q 556 619 446 735 q 665 364 665 503 q 590 180 665 254 q 407 106 514 106 m 458 556 q 379 572 417 572 q 261 519 310 572 q 213 394 213 467 q 258 275 213 328 q 336 261 299 261 q 458 311 413 261 q 503 431 503 361 q 458 556 503 499 z "},"१":{"ha":632,"x_min":61,"x_max":575,"o":"m 575 25 q 528 -85 575 -35 l 353 -10 q 381 57 381 24 q 361 106 381 85 q 106 299 342 126 l 99 386 l 271 521 q 392 699 392 615 q 353 790 392 753 l 333 792 q 259 758 288 792 q 233 682 231 725 q 288 594 236 626 l 226 540 q 61 740 61 633 q 117 867 61 814 q 256 921 172 921 q 461 824 371 921 q 551 617 551 728 q 418 388 551 501 l 306 294 q 537 115 499 156 q 575 25 575 74 z "},"२":{"ha":757,"x_min":35,"x_max":701,"o":"m 610 -76 l 251 238 q 152 257 203 240 q 78 297 101 274 l 139 488 l 197 499 l 264 419 q 439 506 378 444 q 500 646 500 568 q 428 783 500 732 q 144 639 297 767 l 35 801 q 173 888 94 856 q 326 921 251 921 q 569 820 465 921 q 674 588 674 719 q 601 397 674 482 q 401 267 528 311 l 700 46 l 701 -6 l 610 -76 z "},"३":{"ha":803,"x_min":31,"x_max":732,"o":"m 732 250 q 642 77 732 147 q 417 7 553 7 l 392 8 l 575 -157 l 575 -207 l 485 -269 l 258 14 q 165 53 213 26 q 93 104 118 81 l 165 275 l 228 282 l 296 174 l 360 167 q 503 206 446 167 q 561 304 561 246 q 449 415 561 388 l 258 342 l 160 506 q 347 564 232 564 l 385 561 q 489 690 489 608 q 435 785 489 753 q 288 738 369 779 q 140 640 206 696 l 31 801 q 173 888 89 856 q 335 921 257 921 q 559 838 461 921 q 657 650 657 756 q 569 482 657 554 q 732 250 732 382 z "},"४":{"ha":782,"x_min":-43,"x_max":772,"o":"m 494 461 q 644 172 644 294 q 586 25 644 83 q 444 -33 528 -33 q 247 51 339 -33 q 156 238 156 136 q 278 493 156 339 q -43 786 121 647 l 44 889 q 367 597 256 707 q 647 890 471 714 l 772 765 q 490 467 588 576 l 494 461 m 342 114 q 390 103 371 103 q 455 130 431 103 q 479 199 479 157 q 400 360 479 261 q 317 186 317 253 q 342 114 317 144 z "},"५":{"ha":776,"x_min":35,"x_max":744,"o":"m 744 10 l 724 -37 l 590 -65 l 522 246 q 364 179 453 179 q 138 288 242 179 q 35 539 35 397 q 146 899 35 700 l 319 828 q 210 457 210 582 q 219 385 210 415 q 310 342 254 342 q 396 372 354 342 q 458 451 438 401 l 417 610 l 460 656 l 646 597 q 604 396 649 508 l 744 10 z "},"६":{"ha":760,"x_min":51,"x_max":738,"o":"m 738 -149 l 722 -194 l 614 -225 l 553 22 q 451 6 503 6 q 200 101 315 6 q 85 319 85 197 q 174 506 85 433 q 51 703 51 594 q 133 858 51 799 q 343 918 215 918 q 583 861 469 918 l 581 694 q 375 749 469 749 q 258 721 303 749 q 214 646 214 693 q 269 554 214 599 q 404 574 328 574 q 565 557 489 574 l 574 388 q 447 400 507 400 q 297 362 346 400 q 247 267 247 324 q 289 174 247 211 q 350 165 314 165 q 507 203 435 165 l 496 283 l 569 317 l 717 164 q 640 68 694 110 l 738 -149 z "},"७":{"ha":856,"x_min":-26,"x_max":814,"o":"m 489 788 q 716 646 618 788 q 814 326 814 504 q 733 84 814 176 q 525 -8 653 -8 q 263 107 379 -8 q 74 394 147 222 q -26 735 0 565 l 114 779 q 269 322 172 464 q 488 181 365 181 q 660 333 622 181 q 592 321 625 321 q 401 410 493 321 q 304 603 304 499 q 357 733 304 679 q 489 788 410 788 m 472 460 q 519 451 490 451 q 664 499 596 451 q 556 628 643 628 q 486 594 511 628 q 461 515 461 561 q 472 460 461 482 z "},"८":{"ha":657,"x_min":49,"x_max":647,"o":"m 207 264 q 242 179 207 211 q 326 147 276 147 q 528 290 432 147 l 647 163 q 383 -15 536 -15 q 153 90 258 -15 q 49 313 49 194 q 150 549 49 421 l 415 879 l 532 729 l 274 408 q 207 264 207 321 z "},"९":{"ha":678,"x_min":18,"x_max":671,"o":"m 671 44 q 625 -65 671 -10 l 449 10 q 482 86 482 47 q 439 169 482 129 l 190 404 q 62 550 106 482 q 18 694 18 618 q 83 855 18 789 q 243 921 147 921 q 449 825 357 921 q 540 624 540 729 q 379 386 540 493 l 565 224 q 671 44 671 126 m 300 771 q 222 733 254 771 q 190 642 190 696 q 251 504 190 574 q 383 682 383 592 q 360 744 383 718 q 300 771 338 771 z "},"।":{"ha":651,"x_min":307,"x_max":493,"o":"m 493 -54 l 439 -78 l 307 18 l 307 897 l 361 921 l 493 825 l 493 -54 z "},"॥":{"ha":1026,"x_min":307,"x_max":868,"o":"m 493 -54 l 439 -78 l 307 18 l 307 897 l 361 921 l 493 825 l 493 -54 m 868 -54 l 814 -78 l 682 18 l 682 897 l 736 921 l 868 825 l 868 -54 z "},"॰":{"ha":497,"x_min":103,"x_max":601,"o":"m 389 199 q 191 281 279 199 q 103 474 103 363 q 168 631 103 568 q 329 694 233 694 q 519 612 438 694 q 601 417 601 529 q 540 260 601 322 q 389 199 479 199 m 425 543 q 372 554 396 554 q 288 517 322 554 q 254 429 254 481 q 285 344 254 381 q 336 336 313 336 q 424 372 390 336 q 458 457 458 407 q 425 543 458 508 z "},"ꣻ":{"ha":403,"x_min":-67,"x_max":468,"o":"m -67 840 l -43 888 l 401 888 l 468 796 l 444 747 l -1 747 l -67 840 z "},"࿕":{"ha":1226,"x_min":158,"x_max":1060,"o":"m 706 524 l 986 524 l 1060 431 l 1060 14 l 1006 -11 l 883 83 l 883 363 l 706 363 l 706 50 l 661 0 l 225 0 l 158 110 l 182 158 l 529 158 l 529 363 l 232 363 l 158 447 l 158 874 l 213 897 l 335 804 l 335 524 l 529 524 l 529 838 l 574 888 l 994 888 l 1060 778 l 1036 731 l 706 731 l 706 524 z "},"ॐ":{"ha":1481,"x_min":21,"x_max":1461,"o":"m 822 1040 q 755 1081 793 1051 q 697 1136 717 1110 q 799 1258 742 1225 q 864 1218 829 1247 q 918 1163 899 1189 q 822 1040 888 1081 m 856 807 q 674 869 763 807 q 529 1049 585 932 l 611 1118 q 814 954 697 954 q 915 997 874 954 q 972 1117 957 1039 l 1117 1050 q 1028 876 1100 944 q 856 807 956 807 m 1174 792 q 1378 701 1294 792 q 1461 490 1461 611 q 1378 267 1461 376 q 1163 96 1296 157 l 1021 221 q 1223 382 1139 282 q 1307 564 1307 482 q 1283 632 1307 606 q 1222 658 1260 658 q 1115 576 1165 658 l 1067 490 l 1011 389 q 794 246 924 246 q 725 260 758 246 l 726 240 q 650 63 726 138 q 461 -12 574 -12 q 235 76 349 -12 q 21 382 122 164 l 115 442 q 253 222 183 296 q 415 147 324 147 q 533 191 489 147 q 576 292 576 235 q 489 413 576 385 l 347 331 l 243 493 q 403 558 314 553 q 518 713 518 625 q 494 767 518 749 q 372 738 442 772 q 240 644 301 704 l 139 779 q 397 903 263 903 q 581 826 500 903 q 663 660 663 750 q 576 489 663 564 q 690 372 649 442 q 729 363 708 363 q 805 403 774 363 q 877 528 836 444 q 953 665 918 611 q 1044 755 989 718 q 1174 792 1099 792 z "},"◌":{"ha":1007,"x_min":136,"x_max":871,"o":"m 506 654 q 465 671 479 654 q 450 711 450 688 q 465 752 450 735 q 506 769 479 769 q 545 752 531 769 q 560 711 560 735 q 545 671 560 688 q 506 654 531 654 m 347 614 q 306 631 321 614 q 292 671 292 647 q 306 712 292 694 q 347 729 321 729 q 387 712 372 729 q 401 671 401 694 q 387 631 401 647 q 347 614 372 614 m 661 614 q 620 631 635 614 q 606 671 606 647 q 620 712 606 694 q 661 729 635 729 q 701 712 686 729 q 715 671 715 694 q 701 631 715 647 q 661 614 686 614 m 232 499 q 191 515 206 499 q 176 556 176 532 q 191 597 176 579 q 232 614 206 614 q 272 597 257 614 q 286 556 286 579 q 272 515 286 532 q 232 499 257 499 m 778 499 q 737 515 751 499 q 722 556 722 532 q 737 597 722 579 q 778 614 751 614 q 817 597 803 614 q 832 556 832 579 q 817 515 832 532 q 778 499 803 499 m 192 342 q 151 358 165 342 q 136 399 136 375 q 151 440 136 422 q 192 457 165 457 q 231 440 217 457 q 246 399 246 422 q 231 358 246 375 q 192 342 217 342 m 817 342 q 776 358 790 342 q 761 399 761 375 q 776 440 761 422 q 817 457 790 457 q 856 440 842 457 q 871 399 871 422 q 856 358 871 375 q 817 342 842 342 m 232 186 q 191 203 206 186 q 176 243 176 219 q 191 284 176 267 q 232 301 206 301 q 272 284 257 301 q 286 243 286 267 q 272 203 286 219 q 232 186 257 186 m 778 186 q 737 203 751 186 q 722 243 722 219 q 737 284 722 267 q 778 301 751 301 q 817 284 803 301 q 832 243 832 267 q 817 203 832 219 q 778 186 803 186 m 349 69 q 308 86 322 69 q 293 126 293 103 q 308 167 293 150 q 349 185 322 185 q 388 167 374 185 q 403 126 403 150 q 388 86 403 103 q 349 69 374 69 m 661 69 q 620 86 635 69 q 606 126 606 103 q 620 167 606 150 q 661 185 635 185 q 701 167 686 185 q 715 126 715 150 q 701 86 715 103 q 661 69 686 69 m 507 31 q 466 47 481 31 q 451 88 451 64 q 466 128 451 111 q 507 146 481 146 q 547 128 532 146 q 561 88 561 111 q 547 47 561 64 q 507 31 532 31 z "},"‌":{"ha":0,"x_min":-96,"x_max":94,"o":"m 0 1107 l 72 1181 l 94 1157 l 22 1086 l 94 1013 l 72 990 l 0 1063 l -74 989 l -96 1013 l -24 1086 l -96 1157 l -74 1182 l 0 1107 z "},"‍":{"ha":0,"x_min":-137,"x_max":139,"o":"m 107 1071 l -106 1071 l -106 1007 l -137 1007 l -137 1101 l 139 1101 l 139 1007 l 107 1007 l 107 1071 z "}}}
